<svg width="82" height="18" viewBox="0 0 82 18" fill="none" xmlns="http://www.w3.org/2000/svg">
<g clip-path="url(#clip0)">
<path d="M31.0833 3.13232C32.9382 2.54342 34.7931 1.95452 36.648 1.4834C36.648 2.89676 36.648 4.4279 36.648 5.84127C37.443 5.84127 38.3704 5.84127 39.1654 5.84127C39.1654 6.90129 39.1654 8.07909 39.1654 9.13912C38.3704 9.13912 37.443 9.13912 36.648 9.13912C36.648 10.3169 36.648 11.3769 36.648 12.5547C36.648 13.0259 36.913 13.6148 37.443 13.8503C37.973 13.9681 38.6354 13.8503 39.1654 13.7325C39.1654 14.7926 39.1654 15.9704 39.1654 17.0304C37.5755 17.5015 35.9856 17.7371 34.2632 17.6193C33.2032 17.5015 32.2758 17.0304 31.7458 16.2059C31.0833 15.3815 30.9508 14.3214 30.9508 13.3792C30.9508 11.9658 30.9508 10.5525 30.9508 9.13912C30.2884 9.13912 29.6259 9.13912 28.9634 9.13912C28.9634 8.07909 28.9634 6.90129 28.9634 5.84127C29.6259 5.84127 30.2884 5.84127 30.9508 5.84127C31.0833 4.89903 30.9508 3.95678 31.0833 3.13232Z" fill="#32448C"/>
<path d="M40.6233 2.19034C42.4782 1.60144 44.4656 1.60144 46.3205 1.60144C48.0429 1.71922 49.8978 2.07256 51.2227 3.13258C52.9451 4.54595 53.0776 7.2549 51.2227 8.66826C50.6928 9.0216 50.1628 9.25716 49.6328 9.49272C50.4278 9.72828 51.2227 10.0816 51.8852 10.6705C52.8126 11.6128 52.9451 13.0261 52.6801 14.2039C52.4152 15.264 51.4877 16.2062 50.2953 16.6773C48.3079 17.6196 45.923 17.6196 43.6706 17.5018C42.6107 17.384 41.5507 17.2662 40.6233 17.0307C40.6233 15.8529 40.6233 14.6751 40.6233 13.3795C42.3457 13.8506 44.3331 14.2039 46.0555 13.8506C47.2479 13.615 47.3804 11.8483 46.188 11.3772C44.9956 10.9061 43.6706 11.0239 42.4782 11.2594C42.4782 10.0816 42.4782 9.0216 42.4782 7.8438C43.4056 7.8438 44.3331 7.96158 45.393 7.8438C45.923 7.72602 46.5855 7.49046 46.718 6.90155C46.8505 6.43043 46.718 5.95931 46.453 5.60597C46.0555 5.25263 45.393 5.01707 44.8631 5.01707C43.4056 4.89929 42.0807 5.13485 40.7558 5.60597C40.6233 4.54595 40.6233 3.36815 40.6233 2.19034Z" fill="#32448C"/>
<path d="M69.374 1.83691C73.0838 1.83691 76.7936 1.83691 80.371 1.83691C80.371 3.01472 80.371 4.19252 80.371 5.37032C78.3836 5.37032 76.3962 5.37032 74.4088 5.37032C74.4088 6.19478 74.4088 6.90147 74.4088 7.72593C75.4687 7.72593 76.6612 7.60815 77.7211 7.84371C79.311 8.31483 80.5035 9.49263 80.7684 10.906C81.1659 12.2016 81.0334 13.7327 80.2385 15.0283C79.4435 16.2061 78.1186 16.9128 76.6612 17.1484C74.1438 17.7373 71.4939 17.3839 68.9766 16.795C68.9766 15.6172 68.9766 14.4394 68.9766 13.2616C70.5665 13.6149 72.2889 13.9683 73.8788 13.4972C75.2037 13.1438 75.4687 11.3771 74.4088 10.5527C73.7463 10.0815 72.9514 9.96375 72.1564 9.96375C71.2289 9.96375 70.434 10.0815 69.5065 10.1993C69.374 10.1993 69.1091 10.3171 68.9766 10.4349C68.9766 10.3171 69.1091 10.1993 69.1091 10.0815C69.374 7.49037 69.374 4.66364 69.374 1.83691Z" fill="#32448C"/>
<path d="M21.2793 14.0865C20.8818 13.8509 20.8818 13.3798 20.7493 12.9086C23.3991 12.9086 25.9165 12.9086 28.5664 12.9086C28.5664 12.0842 28.5664 11.2597 28.4339 10.4353C28.3014 9.13968 27.7714 7.72632 26.579 6.78407C25.519 5.84183 23.9291 5.48849 22.3392 5.60627C20.3518 5.60627 18.2319 5.95961 16.7745 7.25519C15.4496 8.55078 15.0521 10.3175 15.1846 12.0842C15.3171 13.6153 15.847 15.2643 17.3045 16.3243C18.7619 17.5021 20.8818 17.7376 22.7367 17.7376C24.4591 17.7376 26.1815 17.6199 27.7714 17.031C27.7714 16.0887 27.7714 15.0287 27.7714 14.0865C26.4465 14.6754 24.9891 14.7931 23.5316 14.7931C22.8692 14.6754 21.9417 14.5576 21.2793 14.0865ZM21.2793 8.66856C21.6767 8.07966 22.8692 8.07966 23.2666 8.66856C23.6641 9.25746 23.6641 9.84636 23.6641 10.553C22.7367 10.553 21.6767 10.553 20.7493 10.553C20.8818 9.84636 20.8818 9.13968 21.2793 8.66856Z" fill="#32448C"/>
<path d="M12.6669 6.78375C11.4745 5.60595 9.48708 5.25261 7.89716 5.72373C6.96971 5.95929 6.30725 6.54819 5.64478 7.25488C5.64478 5.01705 5.64478 2.89701 5.64478 0.65918C3.78988 0.65918 1.93498 0.65918 0.0800781 0.65918C0.0800781 6.19485 0.0800781 11.8483 0.0800781 17.384C1.80249 17.384 3.52489 17.384 5.3798 17.384C5.3798 16.6773 5.3798 15.9706 5.3798 15.2639C5.77727 15.9706 6.17475 16.6773 6.83722 17.0306C7.89716 17.6195 9.22209 17.7373 10.4145 17.5018C11.607 17.2662 12.6669 16.5595 13.1969 15.4995C13.9918 14.0861 14.2568 12.555 14.2568 11.0238C14.2568 9.4927 13.8593 7.96156 12.6669 6.78375ZM7.89716 13.4972C7.49968 14.0861 6.43974 14.0861 6.04226 13.4972C5.64478 12.9083 5.64478 12.3194 5.64478 11.6127C5.64478 11.0238 5.64478 10.4349 5.90977 9.84604C5.90977 9.4927 6.17475 9.13936 6.70472 9.02158C7.2347 8.9038 7.76467 9.13936 8.02965 9.4927C8.42713 10.0816 8.42713 10.7883 8.42713 11.495C8.42713 12.2016 8.29464 12.9083 7.89716 13.4972Z" fill="#32448C"/>
<path d="M67.5191 9.72808C66.7241 8.31471 65.0017 7.37247 63.2793 7.25469C61.8219 7.13691 60.3644 7.37247 59.172 8.19693C59.172 7.60803 59.3045 7.01913 59.702 6.54801C60.2319 5.72355 61.1594 5.37021 62.0868 5.25242C63.6768 5.13464 65.2667 5.37021 66.7241 5.72355C66.7241 4.54574 66.7241 3.36794 66.7241 2.19014C64.8692 1.71902 62.8818 1.71902 61.0269 1.8368C58.907 1.95458 56.9196 2.77904 55.5947 4.1924C54.0048 5.95911 53.4748 8.19693 53.4748 10.4348C53.4748 12.2015 54.1373 14.0859 55.4622 15.4993C56.5221 16.7949 58.2445 17.6194 60.0994 17.8549C62.2193 18.0905 64.3392 17.7371 66.0616 16.5593C67.2541 15.8527 67.9165 14.6748 68.1815 13.3793C68.1815 11.9659 68.1815 10.7881 67.5191 9.72808ZM62.4843 13.6148C61.9544 14.4393 60.3644 14.5571 59.702 13.8504C59.0395 13.2615 59.0395 12.3192 59.172 11.6126C59.3045 11.0237 59.702 10.5525 60.2319 10.317C61.0269 10.0814 62.0868 10.317 62.4843 10.9059C63.1468 11.7303 63.1468 12.7904 62.4843 13.6148Z" fill="#32448C"/>
</g>
<defs>
<clipPath id="clip0">
<rect width="81.0857" height="16.9604" fill="white" transform="translate(0.0800781 0.65918)"/>
</clipPath>
</defs>
</svg>
