<svg width="129" height="14" viewBox="0 0 129 14" fill="none" xmlns="http://www.w3.org/2000/svg">
<g clip-path="url(#clip0)">
<path d="M11.9275 1.07935H20.9234L21.1566 3.79727H20.6235C20.4236 2.66231 20.3903 2.45324 19.9238 2.00523C19.4574 1.55722 18.5578 1.61696 17.8248 1.61696H15.5258C15.3592 1.61696 15.226 1.64682 15.0927 1.76629C14.9927 1.88576 14.9261 2.0351 14.9594 2.18444V5.64904H15.959C16.4587 5.64904 16.9585 5.46984 17.2584 5.1413C17.6249 4.69329 17.8248 4.12581 17.7915 3.52847H18.3246V8.39684H17.7915C17.7581 7.59042 17.5916 7.02294 17.2584 6.66453C16.8919 6.30613 16.3921 6.12692 15.859 6.12692H14.9261V10.0395C14.9261 10.159 14.9927 10.3083 15.0927 10.3979C15.2593 10.4875 15.4592 10.5473 15.6591 10.5174H17.4916C19.4574 10.5174 20.5902 9.94994 20.8901 7.68002H21.4565L21.2566 11.055H11.9275V10.5174H12.4272C12.6605 10.5473 12.8937 10.4875 13.0936 10.3681C13.2269 10.2486 13.2935 10.0993 13.2935 9.94994V2.15457C13.2935 2.00523 13.2602 1.8559 13.1269 1.73643C12.9936 1.64682 12.7937 1.58709 12.5938 1.58709H11.9275V1.07935Z" fill="#32448C"/>
<path d="M20.7569 4.39486H24.8217V4.87273C24.5218 4.84287 24.1886 4.9026 23.8888 4.9922C23.7555 5.05194 23.6889 5.17141 23.6889 5.29088C23.6889 5.38048 23.7222 5.49995 23.7555 5.58955L25.7213 9.53204L27.5538 5.70902C27.5871 5.64928 27.5871 5.58955 27.5871 5.49995C27.5871 5.14154 27.2206 4.93247 26.4543 4.84287V4.36499H29.5529V4.84287C29.2863 4.84287 29.0198 4.93247 28.8199 5.08181C28.62 5.20127 28.4867 5.38048 28.3867 5.58955L25.6546 11.2643H25.2215L22.2895 5.44021C22.2229 5.26101 22.0896 5.11167 21.8897 4.9922C21.5232 4.9026 21.1567 4.84287 20.7902 4.87273L20.7569 4.39486Z" fill="#32448C"/>
<path d="M32.4185 4.18551C33.3848 4.15564 34.2844 4.51405 34.9507 5.17113C35.6504 5.85808 36.0169 6.78396 35.9836 7.73972C36.0169 8.3968 35.8503 9.02401 35.5171 9.62136C35.2173 10.1291 34.7841 10.5472 34.2177 10.8459C33.6513 11.1446 33.0183 11.2939 32.3852 11.2939C31.4523 11.2939 30.5527 10.9355 29.9197 10.3083C28.587 8.81494 28.587 6.69436 29.9197 5.20099C30.5527 4.54391 31.4523 4.18551 32.4185 4.18551ZM32.4185 4.69325C31.8188 4.69325 31.2857 4.96206 30.9525 5.41007C30.586 5.88794 30.3861 6.66449 30.3861 7.67998C30.3861 8.72534 30.586 9.50189 30.9525 10.0096C31.2524 10.4576 31.8188 10.7563 32.4185 10.7563C33.0183 10.7563 33.5847 10.4875 33.9179 10.0096C34.3177 9.53176 34.4843 8.72534 34.4843 7.62025C34.4843 6.57489 34.2844 5.85808 33.9179 5.3802C33.5847 4.96206 33.0183 4.69325 32.4185 4.69325Z" fill="#32448C"/>
<path d="M38.4161 0.959961V10.0994C38.4161 10.2188 38.4494 10.3084 38.5494 10.398C38.6826 10.4876 38.8492 10.5474 39.0491 10.5474H39.5156V11.085H35.9172V10.5474H36.3504C36.5503 10.5474 36.7502 10.5175 36.8835 10.398C37.0167 10.2786 37.0834 10.1292 37.05 9.95002V2.33386C37.0834 2.15465 36.9834 1.94558 36.8501 1.82611C36.6502 1.67678 36.3837 1.58717 36.1171 1.58717H35.4508V1.04956L38.4161 0.959961Z" fill="#32448C"/>
<path d="M42.2144 4.27517V8.69553C42.1811 9.14354 42.3477 9.59155 42.6808 9.94995C42.9807 10.2486 43.4138 10.398 43.847 10.398C44.4467 10.398 44.9798 10.159 45.3463 9.74088C45.7794 9.29287 45.9793 8.72539 45.9793 8.12805V5.6192C45.9793 5.41012 45.8794 5.20105 45.7128 5.08158C45.3796 4.93225 45.0131 4.84265 44.6466 4.87251V4.36477L47.2787 4.2453V9.74088C47.2787 9.94995 47.3454 10.159 47.512 10.3382C47.7119 10.4876 47.9451 10.5473 48.1783 10.5473H48.6448V11.0252L46.1459 11.0849L45.9793 9.77075C45.6128 10.1889 45.1464 10.5473 44.6466 10.846C44.2468 11.0849 43.747 11.2044 43.2806 11.2044C42.6475 11.2342 42.0478 10.9953 41.5813 10.607C41.1149 10.2188 40.8817 9.53181 40.8817 8.57606V5.67893C40.915 5.43999 40.7817 5.20105 40.5485 5.08158C40.2486 4.96212 39.9154 4.90238 39.5822 4.93225V4.4245L42.2144 4.27517Z" fill="#32448C"/>
<path d="M50.1433 1.677H50.6764V4.39493H55.2077V5.05201H50.6764V9.32303C50.6431 9.62171 50.743 9.92038 50.9763 10.1892C51.1762 10.3983 51.4427 10.4879 51.7093 10.4879C52.0758 10.4879 52.4089 10.3087 52.6422 10.0398C52.942 9.59184 53.1086 9.0841 53.0753 8.54648H53.6084C53.5751 9.4425 53.3418 10.0996 52.942 10.5177C52.5422 10.9359 51.9425 11.1748 51.3094 11.1748C50.7763 11.2047 50.2766 11.0255 49.8768 10.7268C49.5103 10.3983 49.3437 9.98011 49.3437 9.5321V5.05201H48.0443V4.54426C48.5773 4.48453 49.0438 4.24559 49.377 3.88718C49.9101 3.2301 50.1766 2.45355 50.1433 1.677Z" fill="#32448C"/>
<path d="M53.6091 4.39506L56.5744 4.30546V10.04C56.5744 10.1595 56.6077 10.2789 56.7077 10.3685C56.8409 10.4581 57.0075 10.5179 57.1741 10.5179H57.7072V11.0555H54.0755V10.5179H54.542C54.7419 10.5477 54.9085 10.488 55.0418 10.3685C55.175 10.2491 55.2083 10.0997 55.2083 9.92051V5.85856C55.2417 5.64949 55.1417 5.41055 54.9418 5.26121C54.7419 5.11188 54.442 5.05214 54.1755 5.05214H53.5757V4.39506H53.6091ZM55.6748 1.22913C55.908 1.22913 56.1413 1.31873 56.3079 1.46806C56.4744 1.6174 56.5744 1.82647 56.5744 2.03554C56.5744 2.24461 56.4744 2.45369 56.3079 2.60302C55.9413 2.9017 55.4083 2.9017 55.0418 2.60302C54.7086 2.27448 54.7086 1.7966 55.0418 1.46806C55.2417 1.31873 55.4416 1.22913 55.6748 1.22913Z" fill="#32448C"/>
<path d="M61.439 4.18551C62.4052 4.15564 63.3048 4.51405 63.9712 5.17113C64.6708 5.85808 65.0374 6.78396 65.004 7.73972C65.0374 8.3968 64.8708 9.02401 64.5376 9.62136C64.2377 10.1291 63.8046 10.5472 63.2382 10.8459C62.6718 11.1446 62.0387 11.2939 61.4057 11.2939C60.4727 11.2939 59.5731 10.9355 58.9401 10.3083C57.6074 8.81494 57.6074 6.69436 58.9401 5.20099C59.5731 4.54391 60.5061 4.18551 61.439 4.18551ZM61.439 4.69325C60.8392 4.69325 60.3062 4.96206 59.973 5.41007C59.6065 5.88794 59.4066 6.66449 59.4066 7.67998C59.4066 8.72534 59.6065 9.50189 59.973 10.0096C60.2728 10.4576 60.8392 10.7563 61.439 10.7563C62.0387 10.7563 62.6051 10.4875 62.9383 10.0096C63.3381 9.53176 63.5047 8.72534 63.5047 7.62025C63.5047 6.57489 63.3048 5.85808 62.9383 5.3802C62.6384 4.96206 62.0387 4.69325 61.439 4.69325Z" fill="#32448C"/>
<path d="M64.8373 4.39464L67.3029 4.2453C67.4028 4.72318 67.5028 5.23092 67.5361 5.7088C67.836 5.26079 68.2358 4.90238 68.7022 4.63358C69.1687 4.39464 69.7018 4.27517 70.2349 4.27517C70.668 4.27517 71.1012 4.36477 71.4677 4.54397C71.8342 4.75304 72.1007 5.02185 72.2673 5.38026C72.4672 5.76853 72.5672 6.21654 72.5672 6.63468V9.89022C72.5338 10.0694 72.6005 10.2785 72.7337 10.398C72.9003 10.5174 73.1336 10.5772 73.3335 10.5473H73.5334V11.0849H70.3015V10.5473H70.3682C70.6347 10.5772 70.8679 10.5174 71.1012 10.398C71.2344 10.2785 71.3344 10.1292 71.3011 9.94996V7.08269C71.3344 6.60482 71.2011 6.12694 70.9679 5.7088C70.668 5.29066 70.1682 5.05172 69.6018 5.08158C69.0021 5.08158 68.469 5.32052 68.1025 5.73867C67.6694 6.21654 67.4695 6.81389 67.5028 7.4411V9.92009C67.4695 10.0993 67.5361 10.3084 67.7027 10.4278C67.8693 10.5473 68.1025 10.607 68.3357 10.5772H68.5357V11.1148H65.2038V10.5772H65.4037C65.6037 10.5772 65.8369 10.5473 66.0035 10.4278C66.1367 10.3382 66.2034 10.2188 66.2034 10.0694V5.7088C66.2367 5.46986 66.1367 5.23092 65.9368 5.05172C65.7369 4.90238 65.4704 4.81278 65.2038 4.84265H64.8373V4.39464Z" fill="#32448C"/>
<path d="M83.2286 1.91578L83.895 0.870422H84.4281L84.7279 5.08171H84.2281C83.8283 3.88702 83.3619 2.991 82.8288 2.45339C82.2624 1.82618 81.3961 1.4379 80.4632 1.40803C79.7968 1.40803 79.1304 1.58724 78.5974 1.94565C78.0309 2.33392 77.5978 2.87153 77.3646 3.49874C77.0314 4.33503 76.8981 5.26092 76.9314 6.15693C76.8981 7.02309 77.0314 7.91911 77.3646 8.75539C77.5978 9.35274 77.9976 9.89035 78.564 10.2786C79.0971 10.6072 79.6969 10.7864 80.3632 10.7565C81.1629 10.8162 81.9292 10.5474 82.5289 10.0696C83.0287 9.59167 83.3286 8.93459 83.2952 8.27751V7.29189C83.2952 7.14256 83.2286 7.02309 83.0953 6.93348C82.8954 6.84388 82.6622 6.78415 82.429 6.81402H81.4294V6.30627H85.9607V6.81402H85.6275C85.3943 6.78415 85.1944 6.84388 84.9945 6.96335C84.8612 7.05295 84.7946 7.20229 84.7946 7.38149V11.3837H84.2615C84.0616 10.7565 83.8616 10.1592 83.6617 9.59167C83.3286 10.1293 82.8288 10.5773 82.229 10.9058C81.6626 11.2045 81.0296 11.3538 80.3632 11.3538C79.397 11.3538 78.4308 11.1149 77.5978 10.6669C74.9657 9.17353 74.0994 6.0972 75.5987 3.64808C76.0652 2.84166 76.7648 2.15472 77.6311 1.67684C78.3974 1.19896 79.297 0.960024 80.23 0.930157C80.7297 0.930157 81.1962 0.989892 81.6626 1.1691C82.229 1.28856 82.7621 1.55737 83.2286 1.91578Z" fill="#32448C"/>
<path d="M93.8907 10.5474L94.024 10.7564C94.024 11.1447 93.5242 11.085 93.0577 11.085C92.6912 11.085 91.9915 11.0551 91.725 10.9058C91.4584 10.7564 91.3918 10.5474 91.1919 10.0994C90.8254 10.4876 90.3589 10.8162 89.8592 11.0551C89.426 11.2343 88.9596 11.294 88.4931 11.294C87.8601 11.3239 87.2603 11.1746 86.7606 10.846C86.3607 10.5772 86.1608 10.1591 86.1608 9.71108C86.1608 9.02413 86.6273 8.42678 87.5269 7.97877C88.6597 7.47103 89.8925 7.14249 91.1586 7.05289V6.0374C91.1586 5.67899 90.992 5.35045 90.6588 5.11151C90.3256 4.84271 89.8925 4.72324 89.426 4.72324C89.0262 4.72324 88.5931 4.81284 88.2266 4.99204C87.9933 5.11151 87.8601 5.26085 87.8601 5.38032C87.8934 5.49979 87.96 5.61926 88.06 5.70886C88.1932 5.85819 88.2599 6.0374 88.2932 6.2166C88.2932 6.42567 88.2266 6.60488 88.06 6.75421C87.8934 6.90355 87.6935 6.96329 87.4602 6.96329C87.1937 6.96329 86.9605 6.87368 86.7939 6.72435C86.6273 6.54514 86.5273 6.33607 86.5273 6.09713C86.5273 5.61926 86.8272 5.20111 87.4269 4.81284C88.1266 4.3947 88.9262 4.18562 89.7592 4.21549C90.4922 4.18562 91.1919 4.36483 91.7916 4.72324C92.2248 5.02191 92.4913 5.49979 92.4913 5.97766V9.59161C92.4913 9.80068 92.5246 10.0396 92.6579 10.2188C92.7579 10.3383 92.8911 10.4578 93.091 10.4876C93.3243 10.5175 93.6241 10.5474 93.8907 10.5474ZM91.1253 7.53076C89.7925 7.70997 88.8263 7.97877 88.2599 8.33718C87.8267 8.63586 87.5935 9.08387 87.6268 9.56174C87.5935 9.89028 87.7268 10.189 87.96 10.4279C88.1932 10.637 88.4931 10.7266 88.793 10.7266C89.426 10.7266 89.9924 10.4876 90.4256 10.0994C90.892 9.68121 91.1253 9.08387 91.1253 8.48652V7.53076Z" fill="#32448C"/>
<path d="M93.624 4.39446L95.7564 4.27499C95.8563 4.75286 95.9563 5.23074 95.9896 5.67875C96.2895 5.23074 96.7226 4.87233 97.189 4.57366C97.5889 4.36459 98.0553 4.24512 98.5218 4.24512C98.9882 4.21525 99.4214 4.36459 99.7879 4.60353C100.188 4.93207 100.454 5.32034 100.554 5.79822C100.854 5.35021 101.254 4.93207 101.72 4.63339C102.153 4.39446 102.653 4.24512 103.153 4.24512C103.719 4.21525 104.286 4.39446 104.686 4.78273C105.152 5.32034 105.385 5.94756 105.352 6.6345V9.94978C105.319 10.0991 105.385 10.2484 105.519 10.3679C105.719 10.4874 105.952 10.5471 106.185 10.5173H106.518V11.0549H102.787V10.5173H103.153C103.386 10.5471 103.619 10.4874 103.819 10.3679C103.953 10.2484 104.019 10.0991 104.019 9.94978V6.6345C104.053 6.21636 103.919 5.79822 103.619 5.46968C103.353 5.20087 102.953 5.05154 102.553 5.05154C102.22 5.05154 101.92 5.14114 101.654 5.29048C101.387 5.46968 101.154 5.70862 101.021 5.97742C100.821 6.30596 100.721 6.66437 100.687 7.05265V9.91991C100.687 10.0692 100.721 10.2484 100.854 10.3679C101.021 10.4575 101.187 10.5173 101.387 10.5173H101.887V11.0549H98.0886V10.5173H98.5218C98.7217 10.5173 98.9549 10.4874 99.1215 10.3679C99.2548 10.2783 99.3214 10.1588 99.3214 10.0095V6.96305C99.3547 6.4553 99.2215 5.97742 98.9216 5.52941C98.6884 5.23074 98.2885 5.0814 97.8887 5.0814C97.3889 5.05154 96.9225 5.26061 96.5893 5.58915C96.1562 6.06703 95.9229 6.66437 95.9563 7.29159V9.94978C95.9229 10.0991 95.9896 10.2484 96.1229 10.3679C96.3228 10.4874 96.556 10.5471 96.7892 10.5173H97.189V11.0549H93.4241V10.5173H93.9905C94.1571 10.5173 94.357 10.4874 94.4903 10.3679C94.5902 10.2783 94.6569 10.129 94.6569 10.0095V5.64888C94.6902 5.43981 94.5902 5.26061 94.4569 5.11127C94.2237 4.96194 93.9238 4.87233 93.624 4.87233V4.39446Z" fill="#32448C"/>
<path d="M106.718 4.39506L109.384 4.30546V10.04C109.384 10.1595 109.417 10.2789 109.517 10.3685C109.65 10.4581 109.817 10.5179 109.983 10.5179H110.816V11.0555H106.252V10.5179H107.351C107.551 10.5477 107.718 10.488 107.851 10.3685C107.984 10.2491 108.017 10.0997 108.017 9.92051V5.73909C108.051 5.53002 107.951 5.29108 107.751 5.14174C107.551 4.99241 107.251 4.93267 106.985 4.93267H106.685L106.718 4.39506ZM108.484 1.22913C108.717 1.22913 108.95 1.31873 109.117 1.46806C109.284 1.6174 109.384 1.82647 109.384 2.03554C109.384 2.24461 109.284 2.45369 109.117 2.60302C108.75 2.9017 108.217 2.9017 107.851 2.60302C107.518 2.27448 107.518 1.7966 107.851 1.46806C108.051 1.31873 108.251 1.22913 108.484 1.22913Z" fill="#32448C"/>
<path d="M110.583 4.39464L113.049 4.2453C113.149 4.72318 113.249 5.23092 113.282 5.7088C113.582 5.26079 113.982 4.90238 114.448 4.63358C114.914 4.39464 115.448 4.27517 115.981 4.27517C116.414 4.27517 116.847 4.36477 117.213 4.54397C117.58 4.75304 117.846 5.02185 118.013 5.38026C118.213 5.76853 118.313 6.21654 118.313 6.63468V9.89022C118.28 10.0694 118.346 10.2785 118.479 10.398C118.646 10.5174 118.879 10.5772 119.079 10.5473H119.312V11.0849H116.014V10.5473H116.081C116.347 10.5772 116.58 10.5174 116.814 10.398C116.947 10.2785 117.047 10.1292 117.013 9.94996V7.08269C117.047 6.60482 116.914 6.12694 116.68 5.7088C116.38 5.29066 115.881 5.05172 115.314 5.08158C114.715 5.08158 114.181 5.32052 113.815 5.73867C113.382 6.21654 113.182 6.81389 113.215 7.4411V9.92009C113.182 10.0993 113.249 10.3084 113.415 10.4278C113.582 10.5473 113.815 10.607 114.015 10.5772H114.215V11.1148H110.583V10.5772H111.083C111.283 10.5772 111.516 10.5473 111.683 10.4278C111.816 10.3382 111.882 10.2188 111.882 10.0694V5.7088C111.916 5.46986 111.816 5.23092 111.616 5.05172C111.416 4.90238 111.149 4.81278 110.883 4.84265H110.483L110.583 4.39464Z" fill="#32448C"/>
<path d="M125.01 4.75319C125.543 4.27531 127.009 3.55849 127.509 3.55849C127.775 3.52862 128.042 3.58836 128.275 3.7377C128.442 3.88703 128.142 4.24544 128.142 4.45451C128.142 4.60385 128.075 4.78305 127.975 4.90252C127.875 5.02199 127.709 5.08173 127.576 5.08173C127.276 5.08173 127.076 4.90252 126.976 4.57398C126.942 4.42464 126.876 4.36491 126.776 4.36491C126.309 4.51425 125.843 4.75318 125.476 5.05186C125.676 5.26093 125.843 5.52974 125.943 5.79854C126.043 6.00761 126.076 6.24655 126.076 6.45562C126.076 6.8439 125.976 7.23217 125.743 7.56071C125.476 7.91912 125.077 8.21779 124.643 8.397C124.177 8.63594 123.677 8.75541 123.144 8.75541H122.278C121.845 8.72554 121.445 8.78527 121.045 8.93461C120.845 9.05408 120.745 9.23328 120.745 9.44236C120.745 9.62156 120.845 9.7709 120.978 9.8605C121.278 9.97997 121.578 10.0397 121.911 10.0098L123.877 9.97997C124.877 9.97997 125.576 10.1293 126.01 10.428C126.443 10.6968 126.709 11.1747 126.676 11.6525C126.676 12.22 126.409 12.7278 125.943 13.0862C125.243 13.6238 124.21 13.9225 122.844 13.9225C121.711 13.9225 120.845 13.7432 120.312 13.355C119.912 13.1459 119.679 12.7576 119.646 12.3694C119.646 12.0707 119.812 11.8019 120.046 11.5928C120.445 11.324 120.945 11.1448 121.445 11.0851C121.012 10.9955 120.612 10.8461 120.245 10.5773C119.979 10.3682 119.846 10.0696 119.846 9.74103C119.846 9.44236 119.979 9.17355 120.179 8.93461C120.479 8.6658 120.879 8.45673 121.278 8.33726C120.879 8.15806 120.512 7.85939 120.279 7.53085C120.046 7.20231 119.946 6.81403 119.946 6.45562C119.946 5.82841 120.245 5.23106 120.779 4.84279C121.412 4.39478 122.178 4.15584 122.978 4.18571C123.344 4.18571 123.711 4.24544 124.044 4.33504C124.377 4.42464 124.71 4.57398 125.01 4.75319ZM123.377 11.0851C122.411 11.0851 121.711 11.2045 121.278 11.4435C120.912 11.6227 120.679 11.9512 120.645 12.3096C120.645 12.6083 120.812 12.907 121.112 13.0563C121.645 13.3251 122.278 13.4744 122.878 13.4147C123.577 13.4446 124.31 13.3251 124.943 12.9966C125.41 12.7278 125.643 12.4291 125.643 12.1005C125.643 11.8915 125.576 11.7123 125.443 11.5629C125.277 11.3837 125.043 11.2344 124.777 11.1747C124.31 11.1149 123.844 11.0552 123.377 11.0851ZM122.911 4.63372C122.478 4.63372 122.045 4.78305 121.745 5.11159C121.412 5.47 121.245 5.94788 121.278 6.42576C121.245 6.9335 121.412 7.41138 121.745 7.82952C122.278 8.397 123.277 8.4866 123.91 7.97886C123.977 7.91912 124.044 7.88925 124.077 7.82952C124.41 7.44124 124.577 6.9335 124.544 6.45562C124.577 5.97775 124.41 5.49987 124.077 5.14146C123.811 4.81292 123.377 4.63372 122.911 4.63372Z" fill="#32448C"/>
<path d="M127.775 3.61847C128.008 3.61847 128.242 3.70807 128.408 3.85741C128.575 4.00674 128.675 4.21582 128.675 4.42489C128.675 4.63396 128.575 4.84303 128.408 4.99237C128.042 5.29104 127.509 5.29104 127.142 4.99237C126.809 4.66383 126.809 4.18595 127.142 3.85741C127.342 3.6782 127.542 3.61847 127.775 3.61847Z" fill="#32448C"/>
<path d="M8.76292 11.1447H8.59633V10.9057H8.66296C8.7296 10.9057 8.76292 10.9057 8.82956 10.9057C8.86287 10.9356 8.89619 10.9655 8.89619 10.9953C8.92951 11.0849 8.86287 11.1148 8.76292 11.1447C8.76292 11.1148 8.76292 11.1148 8.76292 11.1447ZM9.06278 11.0252C9.06278 10.9655 9.02946 10.8759 8.96283 10.846C8.89619 10.7863 8.79624 10.7863 8.69628 10.7863H8.42974V11.5628H8.59633V11.2641H8.7296L8.89619 11.5628H9.06278L8.86287 11.2641C9.02947 11.2044 9.0961 11.1148 9.06278 11.0252ZM8.76292 11.7719C8.39642 11.7719 8.09655 11.5031 8.09655 11.1745C8.09655 10.846 8.39642 10.5772 8.76292 10.5772C9.12942 10.5772 9.42928 10.846 9.42928 11.1745C9.42928 11.5031 9.12942 11.7719 8.76292 11.7719ZM8.76292 10.4279C8.29646 10.4279 7.92996 10.7564 7.92996 11.1745C7.92996 11.5927 8.29646 11.9212 8.76292 11.9212C9.22937 11.9212 9.59588 11.5927 9.59588 11.1745C9.59588 10.7564 9.19606 10.4279 8.76292 10.4279Z" fill="#32448C"/>
<path d="M0 0.750732C3.96487 -1.16078 9.09588 0.840333 9.46238 5.67884C2.13237 6.18658 1.23277 3.22972 0 0.750732Z" fill="#32448C"/>
<path d="M0 11.0851C3.96487 12.9966 9.06256 10.9656 9.46238 6.15699C2.13237 5.61938 1.23277 8.60611 0 11.0851Z" fill="#32448C"/>
<path d="M8.09633 2.24453C6.19719 0.0343509 2.7321 -0.622729 0 0.751166C1.0995 2.96135 1.93246 5.58967 7.36333 5.739C8.02969 4.69365 8.29624 3.46909 8.09633 2.24453ZM1.33273 8.63613C1.49932 8.63613 1.63259 8.666 1.79918 8.666C3.93155 8.666 5.89733 7.71024 7.09678 6.12728C3.8316 6.27661 2.29896 7.32197 1.33273 8.63613Z" fill="#32448C"/>
</g>
<defs>
<clipPath id="clip0">
<rect width="128.675" height="13.8883" fill="white" transform="translate(0 0.0341797)"/>
</clipPath>
</defs>
</svg>
