<svg width="77" height="17" viewBox="0 0 77 17" fill="none" xmlns="http://www.w3.org/2000/svg">
<g clip-path="url(#clip0)">
<path d="M9.4396 0.0449219C4.22617 0.0449219 0 3.83337 0 8.52235C0 9.36077 0.138563 10.1837 0.415689 10.9755C0.588893 10.7582 0.762096 10.5408 0.91798 10.3234C1.57615 9.45393 2.21701 8.58445 2.85786 7.69945L3.32551 7.03181C3.48139 6.81444 3.63728 6.58154 3.77584 6.36417C4.08761 5.91391 4.38205 5.46364 4.65918 5.01338C4.79774 4.78048 4.9363 4.56311 5.09219 4.33021C5.24807 4.09732 5.36931 3.87995 5.50788 3.64705C5.64644 3.41416 5.785 3.18126 5.90625 2.96389L6.28729 2.2652L6.32193 2.21862C6.52978 1.84599 7.03207 1.69072 7.46508 1.86151C7.77684 2.01678 7.96737 2.31178 7.95005 2.63783C7.95005 3.04152 7.86345 3.46073 7.82881 3.86442C7.79417 4.26811 7.77685 4.68732 7.7422 5.10653C7.70756 5.92943 7.69024 6.76786 7.69024 7.59076C7.69024 8.41366 7.7422 9.23656 7.82881 10.0284C7.88077 10.4166 7.95005 10.8047 8.03665 11.1929C8.10593 11.5345 8.22717 11.8761 8.40038 12.1866C8.45234 12.2797 8.52162 12.3729 8.60822 12.4505C8.66018 12.4816 8.62554 12.4661 8.66018 12.4661C8.69482 12.4661 8.6775 12.4661 8.69483 12.4661L8.72947 12.4505H8.74679L8.79875 12.435C8.81607 12.4195 8.85071 12.404 8.86803 12.3884C9.00659 12.2953 9.12783 12.1866 9.24908 12.0624C9.5262 11.7674 9.78601 11.4724 10.0112 11.1463C10.2537 10.8203 10.4788 10.4632 10.704 10.106C11.1543 9.39183 11.57 8.66208 11.9684 7.91682C12.1589 7.54418 12.3667 7.17155 12.5573 6.79891C12.7478 6.42628 12.9383 6.03812 13.1115 5.66549C13.2847 5.27733 13.787 5.09101 14.22 5.24627C14.4971 5.33943 14.6877 5.5568 14.7396 5.82075C14.7396 5.91391 14.757 6.03812 14.7743 6.16233L14.8089 6.51944C14.8436 6.75234 14.8782 6.98523 14.9302 7.21813C15.0168 7.68392 15.1207 8.14971 15.2592 8.59998C15.3978 9.05025 15.571 9.50051 15.7789 9.93525C15.9867 10.37 16.2465 10.7737 16.5756 11.1463C16.6449 11.2395 16.6276 11.3637 16.541 11.4258C16.4543 11.4879 16.3331 11.4879 16.2638 11.4258C15.8308 11.0842 15.4498 10.696 15.1207 10.2768C14.7916 9.85762 14.5145 9.40735 14.2547 8.95709C14.0815 8.64656 13.9429 8.33603 13.787 8.0255C13.6831 8.21182 13.5965 8.39814 13.4926 8.56893C13.0769 9.32972 12.6612 10.0905 12.1762 10.8513C11.9511 11.2239 11.7086 11.5966 11.4314 11.9692C11.1543 12.3574 10.8426 12.73 10.5135 13.0716C10.3229 13.2734 10.0978 13.4442 9.87261 13.615C9.80333 13.6616 9.73405 13.7082 9.64744 13.7392L9.49156 13.8169L9.40496 13.8479H9.38764L9.33568 13.8634H9.30104L9.23176 13.879C9.17979 13.8945 9.14515 13.91 9.09319 13.91C8.98927 13.9255 8.88535 13.9411 8.78143 13.9566C8.55626 13.9721 8.31378 13.9411 8.10593 13.879C7.89809 13.8169 7.70756 13.7082 7.53436 13.584C7.27455 13.3821 7.04939 13.1337 6.89351 12.8542C6.65102 12.4195 6.47782 11.9537 6.3739 11.4724C6.26997 11.0376 6.20069 10.5874 6.14873 10.1526C6.04481 9.28314 6.01017 8.42919 5.99285 7.55971C5.99285 7.15602 5.99285 6.73681 5.99285 6.33312C5.81964 6.62812 5.64644 6.92313 5.47324 7.2026C5.33467 7.4355 5.19611 7.66839 5.04023 7.90129L4.60722 8.59998C4.01833 9.53156 3.41211 10.4476 2.77126 11.3637C2.37289 11.9537 1.9572 12.5437 1.54151 13.1182C4.39937 17.0308 10.2537 18.1177 14.6184 15.5558C18.9831 12.994 20.1955 7.74603 17.3377 3.83337C15.5883 1.48888 12.6265 0.0449219 9.4396 0.0449219Z" fill="#32448C"/>
<path d="M27.0546 11.5656V5.94505H26.8988L24.8896 11.5656H24.3873L22.3781 5.94505H22.2222V11.5656H21.3909V5.35504H22.8631L24.6471 10.2924L26.3965 5.35504H27.886V11.5811H27.0546V11.5656Z" fill="#32448C"/>
<path d="M29.0983 6.16242V5.35504H29.999V6.16242H29.0983ZM29.1156 11.5656V6.76795H29.999V11.5656H29.1156Z" fill="#32448C"/>
<path d="M35.351 9.99728C35.351 10.9289 34.9526 11.6431 33.2205 11.6431C31.0382 11.6431 30.9169 10.5252 30.9169 9.15885C30.9169 7.79252 31.0382 6.67462 33.2205 6.67462C34.9526 6.67462 35.351 7.38884 35.351 8.32042H34.5196C34.5196 7.55963 34.2251 7.18699 33.2205 7.18699C31.8696 7.18699 31.8003 7.8391 31.8003 9.14332C31.8003 10.4475 31.8696 11.0997 33.2205 11.0997C34.2251 11.0997 34.5196 10.727 34.5196 9.96622L35.351 9.99728Z" fill="#32448C"/>
<path d="M37.0654 7.28023C37.4811 7.04733 38.018 6.7368 38.5203 6.72128C38.6242 6.70575 38.7282 6.70575 38.8321 6.70575C38.9706 6.70575 39.0919 6.70575 39.2478 6.72128L39.1785 7.29575C39.0399 7.28023 38.9187 7.28023 38.7974 7.28023C38.6935 7.28023 38.5896 7.28023 38.4684 7.29575C38.0007 7.31128 37.4984 7.62181 37.1347 7.80812V11.581H36.2513V6.76785H36.9442L37.0654 7.28023Z" fill="#32448C"/>
<path d="M44.2012 9.17435C44.2012 10.5407 44.0799 11.6586 41.8629 11.6586C39.6459 11.6586 39.5247 10.5407 39.5247 9.17435C39.5247 7.80803 39.6459 6.69012 41.8629 6.69012C44.0799 6.69012 44.2012 7.80803 44.2012 9.17435ZM40.408 9.17435C40.408 10.4786 40.4773 11.1307 41.8629 11.1307C43.2486 11.1307 43.3178 10.4941 43.3178 9.17435C43.3178 7.8546 43.2486 7.21802 41.8629 7.21802C40.4773 7.21802 40.408 7.8546 40.408 9.17435Z" fill="#32448C"/>
<path d="M45.8123 12.6833C46.1414 12.7144 46.5744 12.7299 47.0594 12.7299C48.4104 12.7299 48.5836 12.4038 48.6009 11.1307C48.2026 11.3325 47.6483 11.5654 47.0767 11.5809C45.1195 11.612 44.9983 10.6649 44.9983 9.17435C44.9983 7.68382 45.1022 6.69012 46.9901 6.69012C47.631 6.69012 48.2199 6.95407 48.6875 7.21802L48.7741 6.78328H49.4669V11.0375C49.4669 12.761 49.0339 13.2889 47.2673 13.2889C46.7476 13.2889 46.228 13.2423 45.7257 13.1802L45.8123 12.6833ZM48.6009 7.65276C48.2199 7.43539 47.7349 7.21802 47.2673 7.21802C45.9682 7.21802 45.8816 7.87013 45.8816 9.17435C45.8816 10.4475 45.9682 11.053 47.2673 11.053C47.7349 11.053 48.2372 10.8202 48.6009 10.6494V7.65276Z" fill="#32448C"/>
<path d="M54.2652 11.5654L54.1786 11.1307C53.7455 11.3791 53.174 11.6586 52.5504 11.6586C50.5932 11.6896 50.472 10.6959 50.472 9.17435C50.472 7.65276 50.5759 6.69012 52.5158 6.69012C53.1567 6.69012 53.7282 6.95407 54.1612 7.18697L54.2478 6.76776H54.9407V11.5654H54.2652ZM54.092 7.62171C53.7282 7.43539 53.2259 7.21802 52.7583 7.21802C51.4593 7.21802 51.3727 7.87013 51.3727 9.17435C51.3727 10.4786 51.4593 11.1307 52.7583 11.1307C53.2259 11.1307 53.7109 10.8978 54.092 10.6959V7.62171Z" fill="#32448C"/>
<path d="M56.8107 7.1871C57.2091 6.96973 57.746 6.70579 58.3176 6.69026C59.2182 6.65921 59.6859 6.87658 59.911 7.21816C60.3267 6.98526 60.881 6.70579 61.4872 6.69026C63.3231 6.64368 63.4271 7.48211 63.4271 8.64659V11.5656H62.5437V8.69317C62.5437 7.69948 62.4744 7.21816 61.2793 7.21816C60.8463 7.21816 60.396 7.45105 60.0323 7.6529C60.1189 7.99448 60.1535 8.35159 60.1362 8.70869V11.5811H59.3741V8.69317C59.3741 7.69948 59.3048 7.21816 58.1097 7.21816C57.694 7.21816 57.2437 7.45105 56.8973 7.62184V11.5656H56.0139V6.76789H56.7068L56.8107 7.1871Z" fill="#32448C"/>
<path d="M64.5355 6.16242V5.35504H65.4361V6.16242H64.5355ZM64.5528 11.5656V6.76795H65.4361V11.5656H64.5528Z" fill="#32448C"/>
<path d="M67.3071 7.18711C67.7401 6.96974 68.3116 6.70579 68.9352 6.69026C70.8924 6.64369 71.0136 7.48211 71.0136 8.64659V11.5656H70.1303V8.69317C70.1303 7.69948 70.0437 7.21816 68.7446 7.21816C68.277 7.21816 67.7747 7.45106 67.411 7.63738V11.5811H66.5276V6.7679H67.2205L67.3071 7.18711Z" fill="#32448C"/>
<path d="M72.7281 12.6833C73.0572 12.7144 73.4902 12.7299 73.9752 12.7299C75.3262 12.7299 75.4994 12.4038 75.5167 11.1307C75.1184 11.3325 74.5641 11.5654 73.9925 11.5809C72.0353 11.612 71.9141 10.6649 71.9141 9.17435C71.9141 7.68382 72.018 6.69012 73.9059 6.69012C74.5468 6.69012 75.1357 6.95407 75.6033 7.21802L75.6899 6.78328H76.3828V11.0375C76.3828 12.761 75.9497 13.2889 74.1831 13.2889C73.6634 13.2889 73.1438 13.2423 72.6415 13.1802L72.7281 12.6833ZM75.4994 7.65276C75.1184 7.43539 74.6334 7.21802 74.1657 7.21802C72.8667 7.21802 72.7801 7.87013 72.7801 9.17435C72.7801 10.4475 72.8667 11.053 74.1657 11.053C74.6334 11.053 75.1357 10.8202 75.4994 10.6494V7.65276Z" fill="#32448C"/>
</g>
<defs>
<clipPath id="clip0">
<rect width="76.3655" height="16.9238" fill="white" transform="translate(0 0.0449219)"/>
</clipPath>
</defs>
</svg>
