<svg width="18" height="19" viewBox="0 0 18 19" fill="none" xmlns="http://www.w3.org/2000/svg">
<g clip-path="url(#clip0)">
<path d="M17.7077 8.24235C16.6975 6.94709 15.389 5.87571 13.9236 5.14411C12.4278 4.39729 10.8186 4.00979 9.13872 3.98947C9.09246 3.98821 8.90669 3.98821 8.86042 3.98947C7.18059 4.00983 5.57135 4.39729 4.07553 5.14411C2.61018 5.87571 1.30171 6.94706 0.291457 8.24235C-0.097722 8.74132 -0.097722 9.4383 0.291457 9.93727C1.30167 11.2325 2.61018 12.3039 4.07553 13.0355C5.57135 13.7823 7.18056 14.1698 8.86042 14.1901C8.90669 14.1914 9.09246 14.1914 9.13872 14.1901C10.8186 14.1698 12.4278 13.7823 13.9236 13.0355C15.389 12.3039 16.6975 11.2326 17.7077 9.93727C18.0969 9.43823 18.0969 8.74132 17.7077 8.24235ZM4.40266 12.3804C3.03438 11.6972 1.81242 10.6967 0.868862 9.48692C0.686507 9.25309 0.686507 8.92653 0.868862 8.6927C1.81238 7.48294 3.03434 6.4824 4.40266 5.79924C4.79127 5.60525 5.18812 5.43749 5.59231 5.29546C4.55246 6.23019 3.89732 7.58483 3.89732 9.08979C3.89732 10.5948 4.55249 11.9496 5.59245 12.8843C5.18826 12.7422 4.79131 12.5744 4.40266 12.3804ZM8.99961 13.4598C6.58993 13.4598 4.62955 11.4994 4.62955 9.08976C4.62955 6.68008 6.58993 4.71974 8.99961 4.71974C11.4093 4.71974 13.3697 6.68012 13.3697 9.08979C13.3697 11.4995 11.4093 13.4598 8.99961 13.4598ZM17.1304 9.48688C16.1868 10.6966 14.9649 11.6972 13.5966 12.3803C13.2084 12.5741 12.8118 12.7411 12.4081 12.883C13.4473 11.9483 14.1019 10.5941 14.1019 9.08976C14.1019 7.58458 13.4466 6.22977 12.4066 5.29503C12.8109 5.4371 13.2079 5.60508 13.5966 5.79917C14.9649 6.48233 16.1868 7.48287 17.1304 8.69263C17.3127 8.92649 17.3127 9.25306 17.1304 9.48688Z" fill="#8C91BA"/>
<path d="M8.99983 7.21973C7.96863 7.21973 7.1297 8.05866 7.1297 9.08986C7.1297 10.1211 7.96863 10.96 8.99983 10.96C10.031 10.96 10.87 10.1211 10.87 9.08986C10.87 8.05866 10.0311 7.21973 8.99983 7.21973ZM8.99983 10.2278C8.3724 10.2278 7.8619 9.71737 7.8619 9.08986C7.8619 8.46239 8.37233 7.95196 8.99983 7.95196C9.62727 7.95196 10.1377 8.46239 10.1377 9.08986C10.1378 9.71737 9.62727 10.2278 8.99983 10.2278Z" fill="#8C91BA"/>
</g>
<defs>
<clipPath id="clip0">
<rect width="18" height="18" fill="white" transform="matrix(-1 0 0 1 18 0.0898438)"/>
</clipPath>
</defs>
</svg>
