<?xml version="1.0" encoding="utf-8"?><svg width="176" height="151" viewBox="0 0 176 151" xmlns="http://www.w3.org/2000/svg" xmlns:xlink="http://www.w3.org/1999/xlink"><view id="adult" viewBox="0 0 60.07 61"/><svg width="60.07" height="61" fill="none" viewBox="-5.39 -5.39 64.78 65.78" xmlns="http://www.w3.org/2000/svg"><g clip-path="url(#aclip0)" fill="#32448C" fill-opacity=".2"><path d="M16.378 15.19h-3.657c-1.431 0-2.12.266-2.12 1.435v1.327c0 1.169.742 1.434 2.12 1.434h.848c.53 0 .742.266.742 1.116v17.42c0 1.433.265 2.124 1.431 2.124h1.378c1.166 0 1.431-.744 1.431-2.125V16.625c-.053-1.169-.795-1.434-2.173-1.434z"/><path d="M41.502 3.082C39.912 1.542 37.95.745 35.565.745H17.703c-2.385 0-4.4.797-5.936 2.337l-9.488 9.453C.795 14.022 0 15.987 0 18.165V36.38c0 2.496.848 4.461 2.544 6.108l9.01 9.028c1.75 1.753 3.764 2.603 6.308 2.55h17.65c2.438 0 4.453-.744 6.308-2.55l9.01-9.028c1.643-1.647 2.544-3.612 2.544-6.108V18.165c0-2.178-.795-4.143-2.279-5.63l-9.593-9.453zm8.268 21.297c0 .584-.265.902-.848.902h-2.703V23.37c0-1.433-.212-2.124-1.431-2.124h-1.22c-1.218 0-1.43.744-1.43 2.124v1.913h-1.855c-1.432 0-2.12.212-2.12 1.433v1.275c0 1.222.741 1.434 2.12 1.434h1.908v1.912c0 1.434.212 2.124 1.43 2.124h1.22c1.219 0 1.43-.743 1.43-2.124v-1.912h2.704c.53 0 .795.265.848.797v6.16c0 1.487-.424 2.603-1.484 3.612l-9.01 9.028c-1.06 1.062-2.227 1.54-3.658 1.54h-18.02c-1.432 0-2.598-.478-3.658-1.54l-9.01-9.028c-1.06-1.063-1.538-2.125-1.485-3.612V18.59c0-1.487.477-2.762 1.59-3.877l9.117-9.294c.9-.903 2.12-1.222 3.445-1.222h17.968c1.325 0 2.491.266 3.445 1.222l9.17 9.294c1.06 1.115 1.59 2.39 1.59 3.877v5.789h-.053z"/><path d="M33.87 27.14c2.278-1.646 2.278-3.346 2.278-4.726v-1.381c-.265-4.568-1.749-6.32-7.05-6.32-5.3 0-6.784 1.752-7.049 6.32v1.38c0 1.381.053 3.08 2.28 4.727-2.704 1.063-2.916 3.346-2.916 6.373 0 4.462 1.59 6.692 7.633 6.798 6.095-.106 7.632-2.337 7.632-6.798.106-3.027-.106-5.31-2.809-6.373zm-4.718-8.656c2.226 0 3.127.796 3.127 3.505 0 2.602-.901 3.505-3.127 3.505s-3.127-.903-3.127-3.505c0-2.709.9-3.505 3.127-3.505zm0 18.057c-2.597 0-3.498-1.01-3.498-3.559 0-2.549.9-3.717 3.498-3.717 2.597 0 3.498 1.168 3.498 3.717 0 2.55-.954 3.559-3.498 3.559z"/></g><defs><clipPath id="aclip0"><path fill="#fff" transform="translate(0 .745)" d="M0 0h53.268v53.268H0z"/></clipPath></defs></svg><view id="cards" viewBox="60.07 0 50 50"/><svg width="50" height="50" fill="none" viewBox="-5 -5 50 50" x="60.07" xmlns="http://www.w3.org/2000/svg"><g clip-path="url(#bclip0)" fill="#fff"><path d="M38.652 10.402a2.476 2.476 0 0 0-1.265-1.426L19.447.25a2.493 2.493 0 0 0-3.33 1.15l-.837 1.721-4.9-.959a2.5 2.5 0 0 0-2.932 1.971l-.622 3.18H3.74a2.493 2.493 0 0 0-2.491 2.49V37.51A2.493 2.493 0 0 0 3.74 40h19.951a2.494 2.494 0 0 0 2.491-2.49v-.006a.78.78 0 0 0 .235-.285l12.12-24.914a2.474 2.474 0 0 0 .115-1.903zm-21.13-8.318a.929.929 0 0 1 1.241-.428l7.39 3.594-9.286-1.817.656-1.349zm-8.54 2.35a.936.936 0 0 1 1.097-.737l5.477 1.072.03.005 14.059 2.751a.928.928 0 0 1 .596.396c.14.207.19.456.142.701l-4.201 21.461V9.805a2.494 2.494 0 0 0-2.49-2.491H8.417l.564-2.88zM24.619 37.51a.93.93 0 0 1-.928.928H3.741a.93.93 0 0 1-.929-.927V9.805c0-.512.417-.928.929-.928h19.95a.93.93 0 0 1 .928.928V37.51zm12.514-25.887L27.52 31.38l4.396-22.457c.056-.289.062-.58.018-.861l4.77 2.32c.223.107.39.296.471.53a.92.92 0 0 1-.042.71z"/><path d="M13.607 28.848a.78.78 0 0 1-.44-.135 27.968 27.968 0 0 1-3.065-2.486c-2.134-2.009-3.215-3.79-3.215-5.294a3.936 3.936 0 0 1 6.77-2.724 3.918 3.918 0 0 1 2.784-1.155 3.936 3.936 0 0 1 3.932 3.931c0 1.485-1.09 3.251-3.242 5.251a28.54 28.54 0 0 1-3.086 2.478.778.778 0 0 1-.438.134zm-2.79-10.284a2.371 2.371 0 0 0-2.368 2.369c0 1.82 3 4.619 5.16 6.18 2.176-1.561 5.201-4.346 5.201-6.128a2.372 2.372 0 0 0-2.369-2.368c-.888 0-1.695.49-2.104 1.281a.78.78 0 0 1-1.394-.013 2.357 2.357 0 0 0-2.125-1.32zM5.09 13.352a.781.781 0 0 1-.78-.782v-1.176a.781.781 0 1 1 1.562 0v1.176c0 .432-.35.782-.781.782zM22.341 36.514a.781.781 0 0 1-.781-.782v-1.176a.781.781 0 1 1 1.562 0v1.177c0 .431-.35.78-.781.78zM19.773 31.987a.779.779 0 0 1-.552-.229.74.74 0 0 1-.169-.254.789.789 0 0 1 0-.597.804.804 0 0 1 .288-.351.788.788 0 0 1 1.083.216.798.798 0 0 1 .131.434.776.776 0 0 1-.628.765.782.782 0 0 1-.153.016zM16.793 31.987H7.486a.781.781 0 1 1 0-1.562h9.307a.781.781 0 1 1 0 1.562z"/></g><defs><clipPath id="bclip0"><path fill="#fff" d="M0 0h40v40H0z"/></clipPath></defs></svg><view id="casinolive" viewBox="30 91 29 27"/><svg width="29" height="27" fill="none" viewBox="-5 -5 29 27" x="30" y="91" xmlns="http://www.w3.org/2000/svg"><path d="M18.75 10.36a.816.816 0 0 1-.815.812h-3.832c-.346 0-.652-.183-.774-.528l-.612-1.707-1.997 6.724a.825.825 0 0 1-.774.589h-.02c-.368-.02-.694-.264-.775-.63L6.52 4.266l-1.589 6.317c-.081.365-.408.589-.795.589H.815A.816.816 0 0 1 0 10.359c0-.447.367-.812.815-.812h2.69L5.768.589C5.849.223 6.196 0 6.563 0c.366 0 .692.264.794.63l2.69 11.618 1.835-6.175a.801.801 0 0 1 .754-.589.815.815 0 0 1 .795.529l1.263 3.534h3.261c.428 0 .795.365.795.812z" fill="#B00E0E"/></svg><view id="eye" viewBox="147.07 0 28 29"/><svg width="28" height="29" fill="none" viewBox="-5 -5 28 29" x="147.07" xmlns="http://www.w3.org/2000/svg"><g clip-path="url(#dclip0)" fill="#8C91BA"><path d="M17.708 8.242a11.14 11.14 0 0 0-3.784-3.098A10.917 10.917 0 0 0 8.86 3.99c-1.68.02-3.289.408-4.784 1.155A11.141 11.141 0 0 0 .29 8.242a1.376 1.376 0 0 0 0 1.695 11.141 11.141 0 0 0 3.785 3.099 10.917 10.917 0 0 0 5.063 1.154c1.68-.02 3.289-.408 4.785-1.154a11.14 11.14 0 0 0 3.784-3.099c.389-.499.389-1.196 0-1.695zM4.403 12.38A10.405 10.405 0 0 1 .869 9.487a.645.645 0 0 1 0-.794 10.328 10.328 0 0 1 4.723-3.397A5.09 5.09 0 0 0 3.897 9.09a5.09 5.09 0 0 0 1.695 3.794c-.404-.142-.8-.31-1.19-.504zM9 13.46c-2.41 0-4.37-1.96-4.37-4.37S6.59 4.72 9 4.72s4.37 1.96 4.37 4.37-1.96 4.37-4.37 4.37zm8.13-3.973a10.405 10.405 0 0 1-3.533 2.893c-.389.194-.785.361-1.189.503a5.09 5.09 0 0 0-.002-7.588 10.323 10.323 0 0 1 4.724 3.398.645.645 0 0 1 0 .794z"/><path d="M9 7.22c-1.031 0-1.87.839-1.87 1.87 0 1.031.839 1.87 1.87 1.87 1.031 0 1.87-.839 1.87-1.87 0-1.031-.839-1.87-1.87-1.87zm0 3.008a1.14 1.14 0 0 1 0-2.276 1.14 1.14 0 0 1 0 2.276z"/></g><defs><clipPath id="dclip0"><path fill="#fff" transform="matrix(-1 0 0 1 18 .09)" d="M0 0h18v18H0z"/></clipPath></defs></svg><view id="favorites" viewBox="110.07 37 34 31"/><svg width="34" height="31" fill="none" viewBox="-5 -5 34 31" x="110.07" y="37" xmlns="http://www.w3.org/2000/svg"><path d="M14.483 7.556l.243.537.588.047 6.19.496-4.64 3.747-.496.401.154.62 1.414 5.666-5.445-3.06-.49-.276-.49.275-5.445 3.061 1.413-5.667.155-.619-.497-.4-4.641-3.75 6.19-.495.588-.047.243-.537L12 2.078l2.483 5.478zM5.813 20.08h0zm5.808-18.838h0z" stroke="#9E1477" stroke-width="2"/></svg><view id="lastplayed" viewBox="70 61 30 30"/><svg width="30" height="30" fill="none" viewBox="-5 -5 30 30" x="70" y="61" xmlns="http://www.w3.org/2000/svg"><path d="M10.125.75C4.948.75.75 4.948.75 10.125S4.948 19.5 10.125 19.5s9.375-4.198 9.375-9.375S15.302.75 10.125.75zm0 17.12a7.741 7.741 0 0 1-7.745-7.745 7.741 7.741 0 0 1 7.745-7.745 7.741 7.741 0 0 1 7.745 7.745 7.741 7.741 0 0 1-7.745 7.745zm3.118-5.789a.812.812 0 0 1 0 1.162.804.804 0 0 1-.57.245.805.805 0 0 1-.571-.245l-2.527-2.527a.805.805 0 0 1-.245-.57V5.294c0-.449.367-.815.815-.815.449 0 .816.366.816.815v4.524l2.282 2.262z" fill="#5D830C"/></svg><view id="login" viewBox="147.07 29 21 23"/><svg width="21" height="23" fill="none" viewBox="-5 -5 21 23" x="147.07" y="29" xmlns="http://www.w3.org/2000/svg"><path d="M5.45 6.252c1.517 0 2.746-1.4 2.746-3.126S7.793 0 5.45 0 2.703 1.4 2.703 3.126c0 1.727 1.23 3.126 2.747 3.126zM10.37 10.92c-.052-3.008-.47-3.865-3.678-4.408 0 0-.452.54-1.504.54-1.053 0-1.504-.54-1.504-.54C.51 7.05.066 7.893.008 10.822c-.005.239-.007.252-.008.224v.316s.764 1.442 5.188 1.442c4.423 0 5.187-1.442 5.187-1.442v-.234c0 .017-.003-.016-.006-.209z" fill="#87E389"/></svg><view id="new-games" viewBox="110.07 0 37 37"/><svg width="37" height="37" fill="none" viewBox="-5 -5 37 37" x="110.07" xmlns="http://www.w3.org/2000/svg"><path d="M22.165 18.078l-.426-2.77a.85.85 0 0 1 .15-.624l1.636-2.276a.849.849 0 0 0-.13-1.133L21.29 9.426a.849.849 0 0 1-.287-.574l-.21-2.794a.849.849 0 0 0-.827-.785l-2.802-.063a.85.85 0 0 1-.588-.255l-1.957-2.006a.849.849 0 0 0-1.139-.07l-2.186 1.753a.849.849 0 0 1-.615.183l-2.789-.28a.848.848 0 0 0-.917.68l-.548 2.748a.849.849 0 0 1-.354.535l-2.315 1.58a.849.849 0 0 0-.266 1.109l1.347 2.457a.849.849 0 0 1 .073.638L4.15 16.98A.848.848 0 0 0 4.66 18l2.61 1.017a.85.85 0 0 1 .467.442l1.152 2.554a.85.85 0 0 0 1.046.455l2.655-.9a.847.847 0 0 1 .64.04l2.525 1.215c.394.19.867.049 1.094-.324l1.455-2.396a.85.85 0 0 1 .515-.382l2.716-.691a.849.849 0 0 0 .63-.952zm-12.35-2.662l-1.58-2.57-.007 2.566-.738-.002.01-3.935.773.002 1.604 2.632.006-2.628.738.002-.01 3.935-.797-.002zm1.636.004l.01-3.934 2.918.007-.002.665-2.123-.005-.002.872 1.975.005-.002.663-1.975-.005-.003 1.07 2.198.006-.001.663-2.993-.007zm6.651.017l-.776-2.944-.789 2.94-.861-.002-.93-3.937.814.002.586 2.704.726-2.7.945.002.683 2.75.61-2.747.8.002-.965 3.932-.843-.002z" fill="#C25202"/></svg><view id="popular" viewBox="38 61 32 30"/><svg width="32" height="30" fill="none" viewBox="-5 -5 32 30" x="38" y="61" xmlns="http://www.w3.org/2000/svg"><path d="M19.038 17.279a1.62 1.62 0 0 0-1.62-1.62H4.584a1.62 1.62 0 1 0 0 3.24h12.834c.896 0 1.62-.728 1.62-1.62zM3.68 14.77l.1.367H18.22l.102-.367 1.682-6.09a1.833 1.833 0 0 0-.335-3.634 1.833 1.833 0 0 0-1.825 1.99l-2.48 1.45-2.985-4.947a1.833 1.833 0 1 0-2.755 0L6.64 8.485l-2.48-1.45A1.833 1.833 0 1 0 1.996 8.68l1.682 6.09z" stroke="#EEAB01"/></svg><view id="search" viewBox="0 91 30 31"/><svg width="30" height="31" fill="none" viewBox="-5 -5 30 31" y="91" xmlns="http://www.w3.org/2000/svg"><path d="M19.696 19.128l-4.93-5.198a8.522 8.522 0 0 0 1.962-5.451C16.728 3.804 12.976 0 8.364 0 3.752 0 0 3.804 0 8.479c0 4.675 3.752 8.479 8.364 8.479 1.731 0 3.381-.53 4.792-1.535l4.967 5.238c.208.218.487.339.787.339.283 0 .552-.11.756-.309a1.118 1.118 0 0 0 .03-1.563zM8.364 2.212c3.409 0 6.182 2.811 6.182 6.267 0 3.455-2.773 6.267-6.182 6.267-3.409 0-6.182-2.812-6.182-6.267 0-3.456 2.773-6.267 6.182-6.267z" fill="#87E389"/></svg><view id="slots" viewBox="0 61 38 30"/><svg width="38" height="30" fill="none" viewBox="-5 -5 38 30" y="61" xmlns="http://www.w3.org/2000/svg"><path d="M19.903 2.455c0-.536-.456-.974-1.014-.974H1.014C.456 1.48 0 1.919 0 2.455v12.662c0 .536.456.974 1.014.974h17.875c.558 0 1.014-.438 1.014-.974V2.455zm-2.028 11.688H2.028V3.429h15.847v10.714zM14.2 18.526c0 .536-.456.974-1.014.974H6.742c-.558 0-1.014-.438-1.014-.974s.456-.974 1.014-.974h6.444c.558 0 1.014.438 1.014.974zM25.852 14.227v-8.51c.964-.39 1.648-1.314 1.648-2.386C27.5 1.92 26.309.75 24.839.75s-2.662 1.169-2.662 2.581c0 1.072.685 1.997 1.648 2.386v.025l-.04 6.727h-3.882v1.674s.045.084 5.95.084zM24.84 2.21c.633 0 1.14.511 1.14 1.12 0 .609-.507 1.12-1.14 1.12-.634 0-1.14-.511-1.14-1.12 0-.609.506-1.12 1.14-1.12z" fill="#0B8B5D"/></svg><view id="tablegames" viewBox="0 122 29 29"/><svg width="29" height="29" fill="none" viewBox="-5 -5 29 29" y="122" xmlns="http://www.w3.org/2000/svg"><path d="M18.75 1.773c0-.568-.487-1.023-1.096-1.023H1.096C.487.75 0 1.205 0 1.773v15.454c0 .569.487 1.023 1.096 1.023h16.558c.609 0 1.096-.454 1.096-1.023V1.773zm-2.192 14.431H2.192V2.795h14.366v13.41z" fill="#1440B3"/><path d="M5.826 8.443c-.31-.29-.5-.723-.5-1.141 0-.418.19-.82.5-1.109.31-.29.757-.45 1.205-.482.448 0 .878.177 1.205.482.31.29.482.707.5 1.11 0 .417-.173.835-.5 1.14-.31.29-.757.45-1.205.45-.448.032-.895-.16-1.205-.45zm5.355 4.323c.447 0 .895-.16 1.205-.45.31-.29.482-.707.5-1.14 0-.419-.19-.82-.5-1.11-.31-.29-.775-.466-1.205-.482-.448 0-.878.177-1.206.482-.31.29-.482.707-.499 1.109 0 .418.172.836.5 1.141.292.273.74.466 1.205.45z" fill="#1440B3"/></svg></svg>