<?xml version="1.0" encoding="utf-8"?><svg width="131" height="89" viewBox="0 0 131 89" xmlns="http://www.w3.org/2000/svg" xmlns:xlink="http://www.w3.org/1999/xlink"><view id="icon-arroba" viewBox="45 0 43 44"/><svg width="43" height="44" fill="none" viewBox="-5 -5 43 44" x="45" xmlns="http://www.w3.org/2000/svg"><g clip-path="url(#aclip0)"><circle cx="17" cy="17.09" r="13" fill="#fff"/><path d="M16.564 13.625c-1.599 0-2.9 1.301-2.9 2.9 0 1.6 1.301 2.9 2.9 2.9 1.6 0 2.9-1.3 2.9-2.9 0-1.599-1.3-2.9-2.9-2.9z" fill="#277EBC"/><path d="M16.436.09C7.373.09 0 7.463 0 16.525 0 25.588 7.373 33.09 16.436 33.09 25.498 33.09 33 25.588 33 16.525 33 7.463 25.498.09 16.436.09zm6.896 21.27a3.86 3.86 0 0 1-3.16-1.65c-.886 1.003-2.167 1.65-3.608 1.65a4.84 4.84 0 0 1-4.834-4.835 4.84 4.84 0 0 1 4.834-4.834c1.093 0 2.09.378 2.9.992v-.025a.966.966 0 1 1 1.934 0v4.834c0 1.066.868 1.934 1.934 1.934a1.936 1.936 0 0 0 1.934-1.934c0-6.47-4.282-9.668-8.701-9.668-4.799 0-8.702 3.903-8.702 8.701 0 4.799 3.903 8.702 8.701 8.702 1.934 0 3.763-.62 5.29-1.792 1.02-.779 2.187.758 1.178 1.533a10.53 10.53 0 0 1-6.468 2.192C10.7 27.16 5.93 22.39 5.93 16.525c0-5.864 4.77-10.634 10.634-10.634 5.343 0 10.635 3.94 10.635 11.601a3.871 3.871 0 0 1-3.867 3.867z" fill="#277EBC"/></g><defs><clipPath id="aclip0"><path fill="#fff" transform="translate(0 .09)" d="M0 0h33v33H0z"/></clipPath></defs></svg><view id="icon-facebook" viewBox="88 0 43 44"/><svg width="43" height="44" fill="none" viewBox="-5 -5 43 44" x="88" xmlns="http://www.w3.org/2000/svg"><g clip-path="url(#bclip0)"><path d="M16.5 33.09c9.113 0 16.5-7.388 16.5-16.5C33 7.477 25.613.09 16.5.09S0 7.477 0 16.59s7.387 16.5 16.5 16.5z" fill="#3B5998"/><path d="M20.648 17.236h-2.944v10.786h-4.46V17.236h-2.122v-3.791h2.121v-2.453c0-1.754.834-4.501 4.5-4.501l3.305.014v3.68h-2.397c-.393 0-.947.196-.947 1.033v2.23h3.334l-.39 3.788z" fill="#fff"/></g><defs><clipPath id="bclip0"><path fill="#fff" transform="translate(0 .09)" d="M0 0h33v33H0z"/></clipPath></defs></svg><view id="icon-google-plus" viewBox="0 45 43 44"/><svg width="43" height="44" fill="none" viewBox="-5 -5 43 44" y="45" xmlns="http://www.w3.org/2000/svg"><g clip-path="url(#cclip0)"><path d="M16.5 33.089c9.113 0 16.5-7.387 16.5-16.5S25.613.089 16.5.089 0 7.476 0 16.589s7.387 16.5 16.5 16.5z" fill="#DC4E41"/><path d="M5.745 17.329c-.059 2.839 1.897 5.548 4.586 6.432 2.534.85 5.65.214 7.335-1.956 1.231-1.52 1.51-3.547 1.377-5.44-2.17-.02-4.34-.013-6.506-.01-.003.773 0 1.543.004 2.316 1.299.036 2.598.02 3.897.045-.328 1.124-1.075 2.17-2.209 2.576-2.189.965-4.982-.296-5.67-2.592-.832-2.2.529-4.853 2.776-5.493 1.394-.49 2.83.062 4.022.786.604-.565 1.17-1.17 1.725-1.78-1.355-1.133-3.096-1.829-4.886-1.676-3.511.042-6.585 3.284-6.451 6.792zM23.266 14.405c-.006.646-.013 1.296-.016 1.942-.65.006-1.296.01-1.942.013v1.936c.646.003 1.296.006 1.942.013.006.647.006 1.293.013 1.942.643 0 1.29-.003 1.936 0 .003-.65.006-1.295.013-1.945l1.942-.01V16.36c-.646-.003-1.295-.006-1.942-.013-.003-.646-.01-1.296-.013-1.942h-1.933z" fill="#DC4E41"/><path d="M5.745 17.328c-.134-3.508 2.94-6.75 6.45-6.792 1.79-.152 3.532.543 4.886 1.676-.555.611-1.12 1.215-1.724 1.78-1.193-.724-2.628-1.276-4.022-.786-2.248.64-3.609 3.294-2.777 5.493.689 2.296 3.482 3.557 5.671 2.592 1.134-.406 1.881-1.452 2.209-2.576-1.3-.026-2.599-.01-3.898-.045-.003-.773-.006-1.543-.003-2.316 2.167-.003 4.336-.01 6.506.01.133 1.893-.146 3.92-1.377 5.44-1.686 2.17-4.801 2.807-7.335 1.956-2.69-.884-4.645-3.593-4.586-6.432zM23.266 14.405H25.2c.003.646.01 1.296.013 1.942.646.006 1.296.01 1.942.013v1.936l-1.942.01c-.006.65-.01 1.296-.013 1.945-.646-.003-1.293 0-1.936 0-.006-.65-.006-1.296-.013-1.942-.646-.007-1.296-.01-1.942-.013V16.36c.646-.004 1.293-.007 1.942-.013.003-.646.01-1.296.016-1.943z" fill="#fff"/></g><defs><clipPath id="cclip0"><path fill="#fff" transform="translate(0 .09)" d="M0 0h33v33H0z"/></clipPath></defs></svg><view id="icon-odnoklassniki" viewBox="43 45 44 44"/><svg width="44" height="44" fill="none" viewBox="-5 -5 44 44" x="43" y="45" xmlns="http://www.w3.org/2000/svg"><g clip-path="url(#dclip0)"><circle cx="17" cy="17.09" r="13" fill="#fff"/><path d="M17.016 13.765c1.624-.006 2.916-1.272 2.91-2.85-.005-1.58-1.301-2.837-2.925-2.838-1.638-.002-2.945 1.278-2.933 2.872.012 1.573 1.32 2.822 2.948 2.816z" fill="#F98D2E"/><path d="M17 .09C7.611.09 0 7.477 0 16.59c0 9.112 7.611 16.5 17 16.5s17-7.388 17-16.5C34 7.477 26.389.09 17 .09zm.024 5.018c3.312.008 5.97 2.637 5.952 5.887-.016 3.174-2.718 5.747-6.023 5.736-3.272-.01-5.956-2.644-5.936-5.825.018-3.215 2.703-5.807 6.007-5.798zm6.707 13.907c-.732.729-1.613 1.257-2.592 1.625-.925.348-1.94.524-2.943.64.152.16.223.24.318.33 1.362 1.33 2.73 2.652 4.088 3.985.463.455.559 1.018.304 1.545-.277.578-.901.957-1.513.916-.387-.026-.69-.212-.958-.475-1.028-1.004-2.076-1.99-3.082-3.013-.294-.298-.435-.24-.694.018a202.675 202.675 0 0 1-3.142 3.063c-.475.454-1.04.536-1.59.276-.586-.274-.958-.855-.93-1.439.02-.393.22-.695.499-.964 1.348-1.306 2.693-2.617 4.038-3.926.089-.087.172-.179.301-.314-1.834-.186-3.488-.624-4.904-1.699-.175-.133-.357-.262-.517-.412-.62-.578-.682-1.24-.192-1.921.42-.584 1.124-.74 1.856-.404.142.064.277.146.406.232 2.639 1.76 6.264 1.809 8.913.079.262-.195.543-.355.868-.435.632-.158 1.222.068 1.56.604.388.614.384 1.212-.094 1.689z" fill="#F98D2E"/></g><defs><clipPath id="dclip0"><path fill="#fff" transform="translate(0 .09)" d="M0 0h34v33H0z"/></clipPath></defs></svg><view id="icon-vk" viewBox="0 0 45 45"/><svg width="45" height="45" fill="none" viewBox="-5 -5 45 45" xmlns="http://www.w3.org/2000/svg"><g clip-path="url(#eclip0)"><path d="M17.5 34.09c9.665 0 17.5-7.611 17.5-17s-7.835-17-17.5-17S0 7.7 0 17.09s7.835 17 17.5 17z" fill="#4D76A1"/><path fill-rule="evenodd" clip-rule="evenodd" d="M16.839 24.546h1.373s.415-.044.627-.266c.195-.204.189-.586.189-.586s-.027-1.79.828-2.054c.844-.26 1.926 1.73 3.074 2.495.868.58 1.527.452 1.527.452l3.07-.041s1.604-.096.843-1.322c-.062-.1-.443-.907-2.281-2.565-1.924-1.735-1.667-1.454.651-4.455 1.412-1.828 1.976-2.944 1.8-3.422-.168-.455-1.207-.335-1.207-.335l-3.455.021s-.256-.034-.446.077c-.186.108-.305.36-.305.36s-.547 1.414-1.276 2.617c-1.539 2.538-2.154 2.672-2.405 2.514-.585-.367-.44-1.475-.44-2.262 0-2.46.385-3.485-.747-3.75-.376-.089-.652-.147-1.613-.156-1.232-.013-2.276.003-2.867.284-.393.187-.696.604-.511.628.228.03.745.135 1.02.498.354.468.341 1.519.341 1.519s.203 2.895-.475 3.255c-.466.247-1.105-.257-2.476-2.56-.703-1.179-1.234-2.483-1.234-2.483s-.102-.243-.285-.374c-.221-.158-.53-.208-.53-.208l-3.284.021s-.493.013-.674.222c-.16.185-.013.568-.013.568s2.57 5.842 5.481 8.786c2.67 2.7 5.7 2.522 5.7 2.522z" fill="#fff"/></g><defs><clipPath id="eclip0"><path fill="#fff" transform="translate(0 .09)" d="M0 0h35v34H0z"/></clipPath></defs></svg></svg>