<svg width="156" height="41" viewBox="0 0 156 41" fill="none" xmlns="http://www.w3.org/2000/svg"><path d="M56.78 20.663c0 4.393 3.62 8.01 8.268 8.01 1.805 0 3.872-.776 5.173-2.327.262 0 .262-.263.262-.525l-1.805-1.813c-.262-.262-.514-.262-.514 0-.776.513-2.067 1.038-3.095 1.038-2.581 0-4.396-2.066-4.396-4.655 0-2.328 1.815-4.393 4.396-4.393 1.028 0 2.067.262 3.095 1.027 0 .262.263.262.514 0l1.553-1.803c.263-.262.263-.514 0-.514-1.29-1.551-3.095-2.065-5.172-2.065-4.659.01-8.279 3.627-8.279 8.02zm20.932 1.803c0 3.355 2.843 6.197 6.201 6.197 3.62 0 6.463-2.842 6.463-6.197v-9.299c0-.262-.262-.262-.514-.262H87.27c-.251 0-.514 0-.514.262v9.037c0 1.552-1.038 2.841-2.843 2.841-1.553 0-2.581-1.289-2.581-2.84v-9.038c0-.262-.262-.262-.514-.262h-2.581c-.263 0-.514 0-.514.262l-.01 9.3zm21.205 5.42c0 .263.262.514.514.514h5.435c2.591 0 4.91-1.813 4.91-4.392 0-2.066-1.805-3.104-3.106-3.617 1.029-.514 2.592-1.804 2.592-3.355 0-2.58-2.067-4.131-4.659-4.131h-5.172c-.263 0-.514 0-.514.262v14.72zm3.357-8.774v-3.093h1.815c.777 0 1.553.513 1.553 1.551 0 .776-.776 1.552-1.553 1.552h-1.815v-.01zm0 6.206v-3.365h1.815c1.029 0 2.067.776 2.067 1.551 0 1.038-.776 1.814-1.815 1.814h-2.067zm15.256 2.569c0 .262.262.513.262.513h2.843c.252 0 .252-.262.252-.513v-14.72c0-.262 0-.262-.252-.262h-2.843s-.262 0-.262.262v14.72zm14.206 0c0 .262.262.513.525.513h2.581c.262 0 .514-.262.514-.513V16.008h3.106c.262 0 .514-.262.514-.262v-2.579c0-.262-.263-.262-.514-.262h-9.821c-.262 0-.514 0-.514.262v2.58s.262.261.514.261h3.095v11.879zm13.451-1.028c.514.514 2.067 1.814 5.173 1.814 3.095 0 5.172-2.327 5.172-4.655 0-3.103-2.843-4.393-4.396-5.169-1.804-.775-2.591-1.29-2.591-2.065 0-.514.776-1.29 1.552-1.29 1.291 0 2.844 1.29 3.106 1.552.262 0 .514-.262.777-.262l1.038-1.803c.263-.262.263-.514 0-.776-.776-.514-2.591-1.552-4.921-1.552-3.368 0-5.162 2.066-5.162 4.393 0 2.58 2.592 4.13 4.397 4.907 1.552.513 2.329 1.29 2.329 2.327 0 .776-.514 1.29-1.553 1.29-1.553 0-3.106-1.29-3.106-1.29-.262 0-.514-.262-.776 0l-1.028 2.066c-.273.251-.273.251-.011.513z" fill="#524DA3"/><path d="M32.995 37.711L26.28 25.822h-4.66l-1.29-.765-2.33-3.88v-1.551l2.33-3.869 1.29-.775h4.659L32.995 2.84H14.644l-1.301.776-9.045 16.009v1.552l9.045 15.757 1.3.776h18.352z" fill="#F7CE39"/><path d="M35.586 0l5.949 10.075 5.949 10.338-5.95 10.075-5.948 10.337H12.062L6.376 30.488.426 20.402l5.95-10.337L12.062 0h23.524zm-9.307 14.982l6.726-12.14H14.654l6.967 12.14h4.659zm8.006-11.365l-7.24 12.654h-4.648l2.067 3.355h19.127l-4.648-8.01-4.658-7.999zm-7.23 20.664l7.24 12.654 4.659-8.01 4.648-7.747H24.464l-2.067 3.103h4.659zm5.94 13.43l-6.726-11.878H21.62L14.643 37.71h18.351zM4.297 19.626H18l1.29-2.065 1.029-1.803-6.978-12.141-4.396 8.01-4.648 8zM18 21.178H4.298l4.648 7.747 4.396 8.01 6.988-11.878-2.33-3.88zm3.106 2.327l2.067-3.103-2.067-3.355-1.805 3.355 1.805 3.103z" fill="#524DA3"/></svg>