<svg width="53" height="42" viewBox="0 0 53 42" fill="none" xmlns="http://www.w3.org/2000/svg"><path d="M9.808 41.077v-2.693c.122-.857-.607-1.592-1.457-1.714h-.243c-.607 0-1.214.245-1.457.734-.243-.49-.85-.734-1.458-.734-.485 0-.971.245-1.214.612v-.49h-.971v4.285h.971v-2.448c-.121-.612.364-1.102.85-1.102h.122c.607 0 .971.367.971 1.102v2.448h.972v-2.448c-.122-.612.364-1.102.85-1.102h.121c.607 0 .972.367.972 1.102v2.448h.971zm13.966-4.285h-1.579v-1.346h-.971v1.346h-.85v.857h.85v1.959c0 .98.364 1.591 1.457 1.591.486 0 .85-.122 1.214-.367l-.242-.857c-.243.122-.486.245-.85.245-.486 0-.608-.245-.608-.735v-1.958h1.58v-.735zm7.894-.122c-.486 0-.85.245-1.093.612v-.49h-.972v4.285h.972v-2.448c0-.735.243-1.102.971-1.102.243 0 .365 0 .608.122l.242-.857c-.242-.122-.485-.122-.728-.122zm-12.023.49c-.486-.368-1.093-.49-1.7-.49-1.093 0-1.822.49-1.822 1.346 0 .857.486 1.102 1.457 1.225h.486c.486.122.729.244.729.49 0 .244-.364.489-.972.489-.485 0-.971-.123-1.457-.49l-.486.735a3.256 3.256 0 0 0 1.822.612c1.214 0 1.943-.612 1.943-1.347 0-.734-.607-1.101-1.457-1.224h-.486c-.364 0-.729-.122-.729-.49 0-.367.243-.49.85-.49.486 0 .972.123 1.336.368l.486-.734zm25.017-.49c-.486 0-.85.245-1.093.612v-.49h-.972v4.285h.972v-2.448c0-.735.243-1.102.972-1.102.242 0 .364 0 .607.122l.243-.857c-.243-.122-.486-.122-.729-.122zM32.64 38.996c0 1.224.85 2.203 2.065 2.326h.243c.607 0 1.093-.123 1.578-.49l-.485-.735c-.365.245-.729.368-1.093.368a1.353 1.353 0 0 1-1.336-1.347c0-.734.607-1.346 1.336-1.346.364 0 .85.122 1.093.367l.486-.735c-.486-.367-.972-.49-1.58-.49-1.214-.122-2.185.858-2.307 2.082 0-.123 0-.123 0 0zm8.744 0v-2.204h-.971v.49c-.365-.367-.85-.612-1.336-.612-1.215 0-2.308.98-2.308 2.326s.972 2.326 2.308 2.326c.486 0 .971-.245 1.336-.612v.49h.971v-2.204zm-3.522 0c0-.735.608-1.224 1.336-1.224.729 0 1.215.612 1.215 1.346 0 .735-.608 1.224-1.336 1.224-.608 0-1.215-.49-1.215-1.346zM26.69 36.67c-1.215 0-2.186 1.102-2.186 2.326s1.093 2.203 2.307 2.203c.607 0 1.215-.245 1.7-.612l-.486-.734c-.364.244-.728.49-1.214.49-.607 0-1.093-.49-1.214-1.102h3.157v-.368c.122-1.101-.729-2.08-1.822-2.203 0 .122-.12.122-.242 0zm0 .857c.607 0 1.093.49 1.093 1.102h-2.186c0-.612.485-1.102 1.093-1.102zm23.316 1.469v-3.918h-.971v2.326c-.364-.367-.85-.612-1.336-.612-1.214 0-2.307.98-2.307 2.326 0 1.347.971 2.326 2.307 2.326.486 0 .972-.245 1.336-.612v.49h.971v-2.326zm-3.521 0c0-.735.607-1.224 1.335-1.224.73 0 1.215.612 1.215 1.346 0 .735-.607 1.224-1.336 1.224-.607 0-1.093-.49-1.214-1.346zm-31.454 0v-2.204h-.971v.49c-.365-.367-.85-.612-1.336-.612-1.215 0-2.308.98-2.308 2.326s.972 2.326 2.308 2.326c.486 0 .971-.245 1.336-.612v.49h.971v-2.204zm-3.4 0c0-.735.607-1.224 1.336-1.224.728 0 1.214.612 1.214 1.346 0 .735-.607 1.224-1.336 1.224-.607 0-1.214-.49-1.214-1.346z" fill="#fff"/><path d="M33.845 3.45H19.758v25.586h14.087V3.45z" fill="#FF5F00"/><path d="M20.608 16.304c0-5.019 2.307-9.67 6.193-12.853C19.758-2.06 9.678-.834 4.091 6.144c-5.464 7.1-4.25 17.26 2.672 22.892a15.956 15.956 0 0 0 19.917 0 16.432 16.432 0 0 1-6.072-12.732z" fill="#EB001B"/><path d="M52.9 16.085c0 8.936-7.165 16.281-16.151 16.281-3.644 0-7.165-1.224-9.959-3.428 7.044-5.508 8.258-15.791 2.672-22.77-.85-.978-1.7-1.958-2.671-2.692C33.834-2.033 43.913-.81 49.379 6.169c2.307 2.693 3.522 6.243 3.522 9.916z" fill="#F79E1B"/></svg>