<svg width="164" height="29" viewBox="0 0 164 29" fill="none" xmlns="http://www.w3.org/2000/svg"><path d="M160.274 2.16c-2.08-1.425-5.229-2.144-9.356-2.144h-10.809l-4.018 21.815h-14.16l.91-4.95h8.529l1.011-5.558-8.525.012.913-4.927h8.786l1.169-6.39h-17.842l-3.815 20.692h-6.548L110.36.016h-9.327L97.218 20.71h-6.379L94.684.016h-9.322l-4.024 21.815H67.077l.901-4.95h8.564l1.012-5.527-8.556-.008.908-4.937h8.885L79.952.016h-55.6l-3.165 17.287L14.885.015H5.208L0 28.228h9.241l3.153-17.764 6.115 17.764H51.63l4.027-21.822h5.18L56.81 28.228h87.147l2.527-13.775 4.087 13.775h9.246l-4.235-11.256.969-.208c2.134-.458 3.799-1.44 4.958-2.914 1.158-1.486 1.748-3.395 1.748-5.687 0-2.67-.976-4.633-2.986-6.005l.003.002zM43.588 21.831H29.442l.914-4.95h8.873l1.006-5.574h-8.788l.846-4.898H46.42l-2.833 15.422h.002zm109.067-9.503c-.929.65-2.278.967-4.121.967h-1.828l1.402-7.57h1.345c1.53 0 2.647.244 3.417.745.601.392 1.316 1.169 1.316 2.637-.002 1.776-.834 2.73-1.533 3.221h.002z" fill="#83BA3B"/></svg>