<svg width="81" height="37" viewBox="0 0 81 37" fill="none" xmlns="http://www.w3.org/2000/svg"><path d="M40.004 21.386h1.26v2.838h.91l1.635-2.838h1.377l-1.96 3.33v.023l2.077 3.634h-1.424l-1.681-3.048h-.91v3.049h-1.26v-6.989h-.024v.001zm8.123 1.853c1.516 0 2.754 1.102 2.754 2.626 0 1.548-1.214 2.627-2.73 2.627-1.518 0-2.732-1.08-2.732-2.627-.023-1.547 1.19-2.626 2.708-2.626zm3.734.116h1.19v3.94h1.564v-3.939h1.19v3.94h1.564v-3.94h1.19v5.017h-6.652v-5.018h-.046zm10.223-.116c1.424 0 2.217 1.055 2.217 2.369-.004.164-.02.329-.046.491h-3.431c.07.868.747 1.337 1.494 1.337.513 0 1.026-.235 1.423-.54l.49.892c-.513.445-1.283.727-2.007.727-1.657 0-2.684-1.196-2.684-2.627 0-1.57 1.05-2.65 2.544-2.65zm2.8 4.08c.608-.094 1.051-.61 1.051-2.392v-1.57h3.642v5.017h-1.238v-4.01h-1.214v.562c0 2.18-.583 3.448-2.24 3.494v-1.102zm8.24-4.08c1.423 0 2.217 1.055 2.217 2.369-.004.164-.02.329-.046.491h-3.432c.07.868.747 1.337 1.495 1.337.513 0 1.026-.235 1.423-.54l.49.892c-.513.445-1.284.727-2.007.727-1.657 0-2.684-1.196-2.684-2.627 0-1.57 1.05-2.65 2.544-2.65zm3.244.116h1.237v1.924h.607l1.214-1.923h1.377l-1.587 2.391v.025l1.773 2.602h-1.446l-1.308-2.04h-.652v2.04h-1.239v-5.018h.024zm-28.241 4.058c.817 0 1.494-.634 1.494-1.572 0-.914-.677-1.57-1.495-1.57-.816 0-1.47.633-1.47 1.57 0 .938.654 1.572 1.471 1.572zm14.914-2.18c0-.657-.444-1.056-1.004-1.056-.63 0-1.097.422-1.213 1.055h2.217zm11.04 0c0-.657-.443-1.056-1.003-1.056-.632 0-1.098.422-1.215 1.055h2.218z" fill="#535353"/><path d="M57.058 5.684v11.842a.323.323 0 0 1-.2.305.318.318 0 0 1-.126.023h-2.404a.318.318 0 0 1-.327-.328V5.684a.323.323 0 0 1 .2-.305.318.318 0 0 1 .127-.023h2.404a.318.318 0 0 1 .303.202c.017.04.024.083.023.126zm18.766-.328a.55.55 0 0 1 .326.141c.07.07.07.187.047.281L72.23 17.644a.333.333 0 0 1-.303.211H69.78c-.14 0-.257-.07-.303-.211l-2.312-6.918-2.31 6.917a.334.334 0 0 1-.304.211h-2.147c-.14 0-.257-.07-.304-.211L58.131 5.778a.311.311 0 0 1 .047-.28c.047-.095.164-.142.256-.142h2.685c.14 0 .256.094.303.234l2.124 7.012L65.88 5.59a.334.334 0 0 1 .303-.211h1.891c.14 0 .257.07.303.211l2.335 7.012 2.124-7.012a.323.323 0 0 1 .303-.234h2.684zm4.06 0c.164 0 .304.141.327.328v11.842a.32.32 0 0 1-.326.328H77.48a.319.319 0 0 1-.327-.328V5.684a.323.323 0 0 1 .2-.305.318.318 0 0 1 .127-.023h2.404zM52.6 17.433a.24.24 0 0 1-.187.398h-2.94a.375.375 0 0 1-.304-.14l-.49-.61c-1.027.656-2.241 1.056-3.524 1.056-3.594 0-6.512-2.932-6.512-6.543 0-3.612 2.918-6.543 6.512-6.543 3.594 0 6.512 2.931 6.512 6.543 0 1.29-.374 2.51-1.027 3.54l1.96 2.298v.001zm-24.577 5.745c.607.235.84 1.148.887 1.547.094.727-.116 1.009-.35 1.009-.233 0-.56-.282-.91-.844-.35-.564-.49-1.196-.303-1.525.116-.211.372-.304.676-.187zm-3.548 2.65c.374 0 .794.164 1.168.492.723.61.933 1.313.56 1.83-.21.257-.56.421-.957.421-.397 0-.817-.14-1.097-.399-.654-.562-.84-1.5-.42-2.016.163-.212.42-.328.746-.328zm-8.168 6.777C7.437 32.605.249 25.382.249 16.47.249 7.561 7.438.338 16.306.338c8.87 0 16.058 7.223 16.058 16.133 0 3.025-.84 5.863-2.263 8.278-.047.07-.164.047-.187-.047-.56-3.963-2.964-6.144-6.465-6.8-.304-.048-.35-.235.046-.282 1.074-.094 2.59-.07 3.384.07.047-.398.07-.82.07-1.242 0-5.886-4.76-10.67-10.62-10.67-5.857 0-10.62 4.784-10.62 10.67s4.763 10.67 10.621 10.67h.49a14.454 14.454 0 0 1-.21-2.885c.023-.657.163-.75.444-.235 1.47 2.556 3.57 4.854 7.678 5.77 3.361.75 6.722 1.617 10.34 6.236.326.4-.163.821-.537.493-3.687-3.283-7.048-4.362-10.106-4.362-3.431.024-5.765.47-8.123.47h.001zm30.458-17.799l-1.284-1.57c-.14-.165-.022-.423.187-.423h2.708c.14-.375.21-.797.21-1.22 0-1.945-1.447-3.634-3.431-3.634s-3.432 1.689-3.432 3.635c0 1.946 1.448 3.611 3.432 3.611.56.023 1.12-.14 1.61-.399z" fill="#FF8C00"/></svg>