<svg width="85" height="30" viewBox="0 0 85 30" fill="none" xmlns="http://www.w3.org/2000/svg"><path fill-rule="evenodd" clip-rule="evenodd" d="M61.067 7.813a3.483 3.483 0 1 0 .002-6.967 3.483 3.483 0 0 0-.002 6.967zM34.38 9.693c-.158.395-1.29 3.592-4.026 6.905V2.432L23.06 3.873v25.678h7.293v-7.937c2.112 3.167 3.155 7.937 3.155 7.937h8.735C41.38 25.959 37.6 19.336 37.6 19.336c3.392-4.301 4.882-8.883 5.12-9.643h-8.34zm19.171-.268c-6.532.21-9.847 3.14-9.847 8.966v11.16h7.126v-9.1c0-3.49.456-4.984 4.596-5.127V9.527c-.697-.147-1.875-.102-1.875-.102zm-42.72 3.096c-.893-.059-2.961-.193-2.961-2.054 0-2.247 2.977-2.247 4.094-2.247 1.963 0 4.506.58 6.322 1.124 0 0 1.013.357 1.875.723l.08.021V3.936l-.11-.033c-2.143-.75-4.635-1.471-9.255-1.471-7.966 0-10.79 4.64-10.79 8.617 0 2.291.983 7.685 10.107 8.307.773.048 2.826.166 2.826 2.09 0 1.588-1.68 2.525-4.507 2.525-3.098 0-6.102-.79-7.927-1.539v6.337c2.732.716 5.812 1.074 9.421 1.074 7.79 0 11.278-4.391 11.278-8.743 0-4.934-3.904-8.14-10.453-8.58zm46.703 17.03h7.068V9.716h-7.068V29.55zM77.912 3.696v25.855h7.069V2.43l-7.07 1.265zm-10.316 0l7.063-1.264V29.55h-7.063V3.696z" fill="url(#paint0_linear)"/><defs><linearGradient id="paint0_linear" x1="23.046" y1=".846" x2="29.425" y2="36.612" gradientUnits="userSpaceOnUse"><stop stop-color="#8C257D"/><stop offset="1" stop-color="#76348F"/></linearGradient></defs></svg>