<svg width="286" height="229" viewBox="0 0 286 229" xmlns="http://www.w3.org/2000/svg" xmlns:xlink="http://www.w3.org/1999/xlink"><view id="cubits" viewBox="0 38.82 166 51"/><svg width="166" height="51" fill="none" viewBox="-5 -5 166 51" y="38.82" xmlns="http://www.w3.org/2000/svg"><path d="M56.78 20.663c0 4.393 3.62 8.01 8.268 8.01 1.805 0 3.872-.776 5.173-2.327.262 0 .262-.263.262-.525l-1.805-1.813c-.262-.262-.514-.262-.514 0-.776.513-2.067 1.038-3.095 1.038-2.581 0-4.396-2.066-4.396-4.655 0-2.328 1.815-4.393 4.396-4.393 1.028 0 2.067.262 3.095 1.027 0 .262.263.262.514 0l1.553-1.803c.263-.262.263-.514 0-.514-1.29-1.551-3.095-2.065-5.172-2.065-4.659.01-8.279 3.627-8.279 8.02zm20.932 1.803c0 3.355 2.843 6.197 6.201 6.197 3.62 0 6.463-2.842 6.463-6.197v-9.299c0-.262-.262-.262-.514-.262H87.27c-.251 0-.514 0-.514.262v9.037c0 1.552-1.038 2.841-2.843 2.841-1.553 0-2.581-1.289-2.581-2.84v-9.038c0-.262-.262-.262-.514-.262h-2.581c-.263 0-.514 0-.514.262l-.01 9.3zm21.205 5.42c0 .263.262.514.514.514h5.435c2.591 0 4.91-1.813 4.91-4.392 0-2.066-1.805-3.104-3.106-3.617 1.029-.514 2.592-1.804 2.592-3.355 0-2.58-2.067-4.131-4.659-4.131h-5.172c-.263 0-.514 0-.514.262v14.72zm3.357-8.774v-3.093h1.815c.777 0 1.553.513 1.553 1.551 0 .776-.776 1.552-1.553 1.552h-1.815v-.01zm0 6.206v-3.365h1.815c1.029 0 2.067.776 2.067 1.551 0 1.038-.776 1.814-1.815 1.814h-2.067zm15.256 2.569c0 .262.262.513.262.513h2.843c.252 0 .252-.262.252-.513v-14.72c0-.262 0-.262-.252-.262h-2.843s-.262 0-.262.262v14.72zm14.206 0c0 .262.262.513.525.513h2.581c.262 0 .514-.262.514-.513V16.008h3.106c.262 0 .514-.262.514-.262v-2.579c0-.262-.263-.262-.514-.262h-9.821c-.262 0-.514 0-.514.262v2.58s.262.261.514.261h3.095v11.879zm13.451-1.028c.514.514 2.067 1.814 5.173 1.814 3.095 0 5.172-2.327 5.172-4.655 0-3.103-2.843-4.393-4.396-5.169-1.804-.775-2.591-1.29-2.591-2.065 0-.514.776-1.29 1.552-1.29 1.291 0 2.844 1.29 3.106 1.552.262 0 .514-.262.777-.262l1.038-1.803c.263-.262.263-.514 0-.776-.776-.514-2.591-1.552-4.921-1.552-3.368 0-5.162 2.066-5.162 4.393 0 2.58 2.592 4.13 4.397 4.907 1.552.513 2.329 1.29 2.329 2.327 0 .776-.514 1.29-1.553 1.29-1.553 0-3.106-1.29-3.106-1.29-.262 0-.514-.262-.776 0l-1.028 2.066c-.273.251-.273.251-.011.513z" fill="#524DA3"/><path d="M32.995 37.711L26.28 25.822h-4.66l-1.29-.765-2.33-3.88v-1.551l2.33-3.869 1.29-.775h4.659L32.995 2.84H14.644l-1.301.776-9.045 16.009v1.552l9.045 15.757 1.3.776h18.352z" fill="#F7CE39"/><path d="M35.586 0l5.949 10.075 5.949 10.338-5.95 10.075-5.948 10.337H12.062L6.376 30.488.426 20.402l5.95-10.337L12.062 0h23.524zm-9.307 14.982l6.726-12.14H14.654l6.967 12.14h4.659zm8.006-11.365l-7.24 12.654h-4.648l2.067 3.355h19.127l-4.648-8.01-4.658-7.999zm-7.23 20.664l7.24 12.654 4.659-8.01 4.648-7.747H24.464l-2.067 3.103h4.659zm5.94 13.43l-6.726-11.878H21.62L14.643 37.71h18.351zM4.297 19.626H18l1.29-2.065 1.029-1.803-6.978-12.141-4.396 8.01-4.648 8zM18 21.178H4.298l4.648 7.747 4.396 8.01 6.988-11.878-2.33-3.88zm3.106 2.327l2.067-3.103-2.067-3.355-1.805 3.355 1.805 3.103z" fill="#524DA3"/></svg><view id="mastercard" viewBox="0 177.82 61.74 51"/><svg width="61.74" height="51" fill="none" viewBox="-5.12 -5.12 63.24 52.24" y="177.82" xmlns="http://www.w3.org/2000/svg"><path d="M9.808 41.077v-2.693c.122-.857-.607-1.592-1.457-1.714h-.243c-.607 0-1.214.245-1.457.734-.243-.49-.85-.734-1.458-.734-.485 0-.971.245-1.214.612v-.49h-.971v4.285h.971v-2.448c-.121-.612.364-1.102.85-1.102h.122c.607 0 .971.367.971 1.102v2.448h.972v-2.448c-.122-.612.364-1.102.85-1.102h.121c.607 0 .972.367.972 1.102v2.448h.971zm13.966-4.285h-1.579v-1.346h-.971v1.346h-.85v.857h.85v1.959c0 .98.364 1.591 1.457 1.591.486 0 .85-.122 1.214-.367l-.242-.857c-.243.122-.486.245-.85.245-.486 0-.608-.245-.608-.735v-1.958h1.58v-.735zm7.894-.122c-.486 0-.85.245-1.093.612v-.49h-.972v4.285h.972v-2.448c0-.735.243-1.102.971-1.102.243 0 .365 0 .608.122l.242-.857c-.242-.122-.485-.122-.728-.122zm-12.023.49c-.486-.368-1.093-.49-1.7-.49-1.093 0-1.822.49-1.822 1.346 0 .857.486 1.102 1.457 1.225h.486c.486.122.729.244.729.49 0 .244-.364.489-.972.489-.485 0-.971-.123-1.457-.49l-.486.735a3.256 3.256 0 0 0 1.822.612c1.214 0 1.943-.612 1.943-1.347 0-.734-.607-1.101-1.457-1.224h-.486c-.364 0-.729-.122-.729-.49 0-.367.243-.49.85-.49.486 0 .972.123 1.336.368l.486-.734zm25.017-.49c-.486 0-.85.245-1.093.612v-.49h-.972v4.285h.972v-2.448c0-.735.243-1.102.972-1.102.242 0 .364 0 .607.122l.243-.857c-.243-.122-.486-.122-.729-.122zM32.64 38.996c0 1.224.85 2.203 2.065 2.326h.243c.607 0 1.093-.123 1.578-.49l-.485-.735c-.365.245-.729.368-1.093.368a1.353 1.353 0 0 1-1.336-1.347c0-.734.607-1.346 1.336-1.346.364 0 .85.122 1.093.367l.486-.735c-.486-.367-.972-.49-1.58-.49-1.214-.122-2.185.858-2.307 2.082 0-.123 0-.123 0 0zm8.744 0v-2.204h-.971v.49c-.365-.367-.85-.612-1.336-.612-1.215 0-2.308.98-2.308 2.326s.972 2.326 2.308 2.326c.486 0 .971-.245 1.336-.612v.49h.971v-2.204zm-3.522 0c0-.735.608-1.224 1.336-1.224.729 0 1.215.612 1.215 1.346 0 .735-.608 1.224-1.336 1.224-.608 0-1.215-.49-1.215-1.346zM26.69 36.67c-1.215 0-2.186 1.102-2.186 2.326s1.093 2.203 2.307 2.203c.607 0 1.215-.245 1.7-.612l-.486-.734c-.364.244-.728.49-1.214.49-.607 0-1.093-.49-1.214-1.102h3.157v-.368c.122-1.101-.729-2.08-1.822-2.203 0 .122-.12.122-.242 0zm0 .857c.607 0 1.093.49 1.093 1.102h-2.186c0-.612.485-1.102 1.093-1.102zm23.316 1.469v-3.918h-.971v2.326c-.364-.367-.85-.612-1.336-.612-1.214 0-2.307.98-2.307 2.326 0 1.347.971 2.326 2.307 2.326.486 0 .972-.245 1.336-.612v.49h.971v-2.326zm-3.521 0c0-.735.607-1.224 1.335-1.224.73 0 1.215.612 1.215 1.346 0 .735-.607 1.224-1.336 1.224-.607 0-1.093-.49-1.214-1.346zm-31.454 0v-2.204h-.971v.49c-.365-.367-.85-.612-1.336-.612-1.215 0-2.308.98-2.308 2.326s.972 2.326 2.308 2.326c.486 0 .971-.245 1.336-.612v.49h.971v-2.204zm-3.4 0c0-.735.607-1.224 1.336-1.224.728 0 1.214.612 1.214 1.346 0 .735-.607 1.224-1.336 1.224-.607 0-1.214-.49-1.214-1.346z" fill="#fff"/><path d="M33.845 3.45H19.758v25.586h14.087V3.45z" fill="#FF5F00"/><path d="M20.608 16.304c0-5.019 2.307-9.67 6.193-12.853C19.758-2.06 9.678-.834 4.091 6.144c-5.464 7.1-4.25 17.26 2.672 22.892a15.956 15.956 0 0 0 19.917 0 16.432 16.432 0 0 1-6.072-12.732z" fill="#EB001B"/><path d="M52.9 16.085c0 8.936-7.165 16.281-16.151 16.281-3.644 0-7.165-1.224-9.959-3.428 7.044-5.508 8.258-15.791 2.672-22.77-.85-.978-1.7-1.958-2.671-2.692C33.834-2.033 43.913-.81 49.379 6.169c2.307 2.693 3.522 6.243 3.522 9.916z" fill="#F79E1B"/></svg><view id="neteller" viewBox="0 0 173 38.82"/><svg width="173" height="38.82" fill="none" viewBox="-5.03 -5.03 174.06 39.06" xmlns="http://www.w3.org/2000/svg"><path d="M160.274 2.16c-2.08-1.425-5.229-2.144-9.356-2.144h-10.809l-4.018 21.815h-14.16l.91-4.95h8.529l1.011-5.558-8.525.012.913-4.927h8.786l1.169-6.39h-17.842l-3.815 20.692h-6.548L110.36.016h-9.327L97.218 20.71h-6.379L94.684.016h-9.322l-4.024 21.815H67.077l.901-4.95h8.564l1.012-5.527-8.556-.008.908-4.937h8.885L79.952.016h-55.6l-3.165 17.287L14.885.015H5.208L0 28.228h9.241l3.153-17.764 6.115 17.764H51.63l4.027-21.822h5.18L56.81 28.228h87.147l2.527-13.775 4.087 13.775h9.246l-4.235-11.256.969-.208c2.134-.458 3.799-1.44 4.958-2.914 1.158-1.486 1.748-3.395 1.748-5.687 0-2.67-.976-4.633-2.986-6.005l.003.002zM43.588 21.831H29.442l.914-4.95h8.873l1.006-5.574h-8.788l.846-4.898H46.42l-2.833 15.422h.002zm109.067-9.503c-.929.65-2.278.967-4.121.967h-1.828l1.402-7.57h1.345c1.53 0 2.647.244 3.417.745.601.392 1.316 1.169 1.316 2.637-.002 1.776-.834 2.73-1.533 3.221h.002z" fill="#83BA3B"/></svg><view id="qiwi" viewBox="0 130.82 91 47"/><svg width="91" height="47" fill="none" viewBox="-5 -5 91 47" y="130.82" xmlns="http://www.w3.org/2000/svg"><path d="M40.004 21.386h1.26v2.838h.91l1.635-2.838h1.377l-1.96 3.33v.023l2.077 3.634h-1.424l-1.681-3.048h-.91v3.049h-1.26v-6.989h-.024v.001zm8.123 1.853c1.516 0 2.754 1.102 2.754 2.626 0 1.548-1.214 2.627-2.73 2.627-1.518 0-2.732-1.08-2.732-2.627-.023-1.547 1.19-2.626 2.708-2.626zm3.734.116h1.19v3.94h1.564v-3.939h1.19v3.94h1.564v-3.94h1.19v5.017h-6.652v-5.018h-.046zm10.223-.116c1.424 0 2.217 1.055 2.217 2.369-.004.164-.02.329-.046.491h-3.431c.07.868.747 1.337 1.494 1.337.513 0 1.026-.235 1.423-.54l.49.892c-.513.445-1.283.727-2.007.727-1.657 0-2.684-1.196-2.684-2.627 0-1.57 1.05-2.65 2.544-2.65zm2.8 4.08c.608-.094 1.051-.61 1.051-2.392v-1.57h3.642v5.017h-1.238v-4.01h-1.214v.562c0 2.18-.583 3.448-2.24 3.494v-1.102zm8.24-4.08c1.423 0 2.217 1.055 2.217 2.369-.004.164-.02.329-.046.491h-3.432c.07.868.747 1.337 1.495 1.337.513 0 1.026-.235 1.423-.54l.49.892c-.513.445-1.284.727-2.007.727-1.657 0-2.684-1.196-2.684-2.627 0-1.57 1.05-2.65 2.544-2.65zm3.244.116h1.237v1.924h.607l1.214-1.923h1.377l-1.587 2.391v.025l1.773 2.602h-1.446l-1.308-2.04h-.652v2.04h-1.239v-5.018h.024zm-28.241 4.058c.817 0 1.494-.634 1.494-1.572 0-.914-.677-1.57-1.495-1.57-.816 0-1.47.633-1.47 1.57 0 .938.654 1.572 1.471 1.572zm14.914-2.18c0-.657-.444-1.056-1.004-1.056-.63 0-1.097.422-1.213 1.055h2.217zm11.04 0c0-.657-.443-1.056-1.003-1.056-.632 0-1.098.422-1.215 1.055h2.218z" fill="#535353"/><path d="M57.058 5.684v11.842a.323.323 0 0 1-.2.305.318.318 0 0 1-.126.023h-2.404a.318.318 0 0 1-.327-.328V5.684a.323.323 0 0 1 .2-.305.318.318 0 0 1 .127-.023h2.404a.318.318 0 0 1 .303.202c.017.04.024.083.023.126zm18.766-.328a.55.55 0 0 1 .326.141c.07.07.07.187.047.281L72.23 17.644a.333.333 0 0 1-.303.211H69.78c-.14 0-.257-.07-.303-.211l-2.312-6.918-2.31 6.917a.334.334 0 0 1-.304.211h-2.147c-.14 0-.257-.07-.304-.211L58.131 5.778a.311.311 0 0 1 .047-.28c.047-.095.164-.142.256-.142h2.685c.14 0 .256.094.303.234l2.124 7.012L65.88 5.59a.334.334 0 0 1 .303-.211h1.891c.14 0 .257.07.303.211l2.335 7.012 2.124-7.012a.323.323 0 0 1 .303-.234h2.684zm4.06 0c.164 0 .304.141.327.328v11.842a.32.32 0 0 1-.326.328H77.48a.319.319 0 0 1-.327-.328V5.684a.323.323 0 0 1 .2-.305.318.318 0 0 1 .127-.023h2.404zM52.6 17.433a.24.24 0 0 1-.187.398h-2.94a.375.375 0 0 1-.304-.14l-.49-.61c-1.027.656-2.241 1.056-3.524 1.056-3.594 0-6.512-2.932-6.512-6.543 0-3.612 2.918-6.543 6.512-6.543 3.594 0 6.512 2.931 6.512 6.543 0 1.29-.374 2.51-1.027 3.54l1.96 2.298v.001zm-24.577 5.745c.607.235.84 1.148.887 1.547.094.727-.116 1.009-.35 1.009-.233 0-.56-.282-.91-.844-.35-.564-.49-1.196-.303-1.525.116-.211.372-.304.676-.187zm-3.548 2.65c.374 0 .794.164 1.168.492.723.61.933 1.313.56 1.83-.21.257-.56.421-.957.421-.397 0-.817-.14-1.097-.399-.654-.562-.84-1.5-.42-2.016.163-.212.42-.328.746-.328zm-8.168 6.777C7.437 32.605.249 25.382.249 16.47.249 7.561 7.438.338 16.306.338c8.87 0 16.058 7.223 16.058 16.133 0 3.025-.84 5.863-2.263 8.278-.047.07-.164.047-.187-.047-.56-3.963-2.964-6.144-6.465-6.8-.304-.048-.35-.235.046-.282 1.074-.094 2.59-.07 3.384.07.047-.398.07-.82.07-1.242 0-5.886-4.76-10.67-10.62-10.67-5.857 0-10.62 4.784-10.62 10.67s4.763 10.67 10.621 10.67h.49a14.454 14.454 0 0 1-.21-2.885c.023-.657.163-.75.444-.235 1.47 2.556 3.57 4.854 7.678 5.77 3.361.75 6.722 1.617 10.34 6.236.326.4-.163.821-.537.493-3.687-3.283-7.048-4.362-10.106-4.362-3.431.024-5.765.47-8.123.47h.001zm30.458-17.799l-1.284-1.57c-.14-.165-.022-.423.187-.423h2.708c.14-.375.21-.797.21-1.22 0-1.945-1.447-3.634-3.431-3.634s-3.432 1.689-3.432 3.635c0 1.946 1.448 3.611 3.432 3.611.56.023 1.12-.14 1.61-.399z" fill="#FF8C00"/></svg><view id="skrill" viewBox="173 44 95 40"/><svg width="95" height="40" fill="none" viewBox="-5 -5 95 40" x="173" y="44" xmlns="http://www.w3.org/2000/svg"><path fill-rule="evenodd" clip-rule="evenodd" d="M61.067 7.813a3.483 3.483 0 1 0 .002-6.967 3.483 3.483 0 0 0-.002 6.967zM34.38 9.693c-.158.395-1.29 3.592-4.026 6.905V2.432L23.06 3.873v25.678h7.293v-7.937c2.112 3.167 3.155 7.937 3.155 7.937h8.735C41.38 25.959 37.6 19.336 37.6 19.336c3.392-4.301 4.882-8.883 5.12-9.643h-8.34zm19.171-.268c-6.532.21-9.847 3.14-9.847 8.966v11.16h7.126v-9.1c0-3.49.456-4.984 4.596-5.127V9.527c-.697-.147-1.875-.102-1.875-.102zm-42.72 3.096c-.893-.059-2.961-.193-2.961-2.054 0-2.247 2.977-2.247 4.094-2.247 1.963 0 4.506.58 6.322 1.124 0 0 1.013.357 1.875.723l.08.021V3.936l-.11-.033c-2.143-.75-4.635-1.471-9.255-1.471-7.966 0-10.79 4.64-10.79 8.617 0 2.291.983 7.685 10.107 8.307.773.048 2.826.166 2.826 2.09 0 1.588-1.68 2.525-4.507 2.525-3.098 0-6.102-.79-7.927-1.539v6.337c2.732.716 5.812 1.074 9.421 1.074 7.79 0 11.278-4.391 11.278-8.743 0-4.934-3.904-8.14-10.453-8.58zm46.703 17.03h7.068V9.716h-7.068V29.55zM77.912 3.696v25.855h7.069V2.43l-7.07 1.265zm-10.316 0l7.063-1.264V29.55h-7.063V3.696z" fill="url(#epaint0_linear)"/><defs><linearGradient id="epaint0_linear" x1="23.046" y1=".846" x2="29.425" y2="36.612" gradientUnits="userSpaceOnUse"><stop stop-color="#8C257D"/><stop offset="1" stop-color="#76348F"/></linearGradient></defs></svg><view id="visa" viewBox="173 0 113 44"/><svg width="113" height="44" fill="none" viewBox="-5 -5 113 44" x="173" xmlns="http://www.w3.org/2000/svg"><path d="M45.022 33.396h-8.288l5.184-32.134h8.287l-5.183 32.134zM75.067 2.048C73.432 1.398 70.84.68 67.634.68c-8.185 0-13.948 4.376-13.983 10.632-.068 4.615 4.126 7.178 7.263 8.717 3.207 1.573 4.296 2.6 4.296 4.001-.032 2.153-2.59 3.145-4.977 3.145-3.308 0-5.081-.512-7.776-1.71l-1.091-.513-1.16 7.214c1.944.888 5.525 1.676 9.243 1.71 8.696 0 14.358-4.308 14.425-10.974.033-3.658-2.182-6.461-6.957-8.752-2.898-1.47-4.674-2.461-4.674-3.966.034-1.367 1.502-2.768 4.774-2.768 2.694-.069 4.674.58 6.173 1.23l.75.341 1.127-6.939zM86.08 22.012c.683-1.846 3.31-8.991 3.31-8.991-.035.068.68-1.88 1.09-3.077l.58 2.77s1.569 7.691 1.91 9.298h-6.89zm10.231-20.75h-6.41c-1.977 0-3.48.58-4.332 2.666l-12.31 29.467h8.695l1.74-4.82h10.64c.239 1.128.99 4.82.99 4.82h7.673L96.311 1.262zm-66.498 0l-8.117 21.912-.887-4.444c-1.5-5.128-6.206-10.7-11.458-13.47l7.434 28.102h8.764l13.027-32.1h-8.763z" fill="#00579F"/><path d="M14.16 1.264H.827l-.136.65c10.401 2.666 17.29 9.094 20.12 16.82L17.912 3.965c-.478-2.052-1.944-2.634-3.751-2.701z" fill="#FAA61A"/></svg><view id="yandex-money" viewBox="0 89.82 144 41"/><svg width="144" height="41" fill="none" viewBox="-5 -5 144 41" y="89.82" xmlns="http://www.w3.org/2000/svg"><path d="M5.432 25.73v-8.08L.039 3.18H2.75l3.975 11.164L11.3.846h2.491L7.915 17.752v7.979H5.432z" fill="red"/><path d="M21.425 25.73h-2.082a7.49 7.49 0 0 1-.22-1.26h-.158a3.53 3.53 0 0 1-2.964 1.481c-2.27 0-3.817-1.704-3.817-4.826 0-3.413 1.735-5.55 6.183-5.55h.346v-.945c0-2.082-.695-2.967-2.082-2.967-1.263 0-2.334.664-3.15 1.389l-.478-2.177a6.34 6.34 0 0 1 3.786-1.26c2.807 0 4.353 1.197 4.353 5.046v7.475a22.9 22.9 0 0 0 .284 3.595zm-2.712-8.294h-.283c-3.062 0-3.723 1.355-3.723 3.414 0 1.837.598 3.027 1.861 3.027a2.718 2.718 0 0 0 2.145-1.26v-5.18zm7.948 8.294h-2.468V9.804h2.46v1.386h.157a4.177 4.177 0 0 1 3.122-1.575c2.082 0 3.185 1.166 3.185 3.595v12.52h-2.49v-12.3c0-1.197-.537-1.61-1.482-1.61-1.05 0-1.925.788-2.492 1.576l.008 12.334zm8.892-7.35c0-5.898 2.208-8.767 5.396-8.767a3.636 3.636 0 0 1 2.016.598v-7.03h2.46v22.55h-1.838l-.189-1.26h-.157c-.696.881-1.576 1.48-2.873 1.48-3.11 0-4.815-2.65-4.815-7.57v-.002zm7.412-5.982a2.392 2.392 0 0 0-1.859-.758c-1.987 0-2.935 2.998-2.935 6.245 0 3.72.696 5.992 2.494 5.992a2.553 2.553 0 0 0 2.3-1.24V12.399zm10.221 13.56c-3.282 0-5.3-2.625-5.3-7.505 0-5.11 1.42-8.83 4.793-8.83 2.65 0 4.385 1.985 4.385 7.378v1.357h-6.616c0 3.594 1.01 5.487 2.966 5.487a5.186 5.186 0 0 0 3.028-1.07l.57 1.884a5.987 5.987 0 0 1-3.826 1.292v.008zm-2.712-9.621h4.067c0-2.713-.441-4.7-1.862-4.7-1.512-.005-2.05 1.856-2.205 4.7zm17.28-6.496l-2.963 7.438 3.31 8.451H65.55l-2.462-6.563-2.397 6.563h-2.426l3.31-8.23-2.987-7.664h2.554l2.05 5.776 2.175-5.776 2.389.005zm8.792.311l-.661 15.422h-1.292l.977-22.55h1.733l3.376 13.915c.254 1.026.43 2.07.525 3.122h.063c.11-1.054.3-2.097.567-3.122l3.479-13.905h1.764l.98 22.55h-1.515l-.662-15.548c-.094-1.767-.063-3.124-.063-4.51h-.094c-.168 1.37-.42 2.73-.757 4.07l-3.15 12.457h-1.229L77.463 9.595a26.25 26.25 0 0 1-.728-4.038h-.086c0 1.229-.04 3.059-.103 4.595zm14.031 7.725c0-5.298 2.114-8.36 4.857-8.36 2.744 0 4.857 2.715 4.857 8.171 0 5.267-2.1 8.357-4.857 8.357s-4.857-2.744-4.857-8.168zm8.234-.094c0-4.989-1.515-7.034-3.377-7.034-1.861 0-3.374 2.208-3.374 7.034 0 4.951 1.513 7.065 3.374 7.065 1.862 0 3.377-2.271 3.377-7.065zm5.678-3.66V25.73h-1.484V9.835h1.358l.063 2.626h.063c.441-1.177 1.701-2.951 3.846-2.951s3.345 1.312 3.345 3.848V25.73h-1.484V13.555c0-1.893-.693-2.775-2.145-2.775-1.578 0-2.775 1.326-3.562 3.343zm14.731 10.63c2.101 0 3.217-1.704 3.217-1.704l.472 1.197a4.59 4.59 0 0 1-3.72 1.804c-3.366 0-4.92-3.064-4.92-8.268 0-5.203 1.953-8.272 4.636-8.272 2.744 0 4.508 2.888 4.007 8.525h-7.194c.063 4.353 1.2 6.718 3.502 6.718zm-3.471-7.892h5.776c.263-4.225-1.01-6.117-2.625-6.117-1.667.005-3.025 2.15-3.151 6.117zm9.497 13.852l-.158-1.389c.317.087.645.134.974.14 1.074 0 1.838-1.051 2.303-2.807l.126-.473-3.939-16.336h1.481l2.523 10.376a34.52 34.52 0 0 1 .657 3.581h.094a54.2 54.2 0 0 1 .756-3.594l2.46-10.376h1.326l-4.061 16.714c-.539 2.145-1.484 4.227-3.723 4.227a5.34 5.34 0 0 1-.819-.063z" fill="#fff"/></svg></svg>