<svg width="103" height="34" viewBox="0 0 103 34" fill="none" xmlns="http://www.w3.org/2000/svg"><path d="M45.022 33.396h-8.288l5.184-32.134h8.287l-5.183 32.134zM75.067 2.048C73.432 1.398 70.84.68 67.634.68c-8.185 0-13.948 4.376-13.983 10.632-.068 4.615 4.126 7.178 7.263 8.717 3.207 1.573 4.296 2.6 4.296 4.001-.032 2.153-2.59 3.145-4.977 3.145-3.308 0-5.081-.512-7.776-1.71l-1.091-.513-1.16 7.214c1.944.888 5.525 1.676 9.243 1.71 8.696 0 14.358-4.308 14.425-10.974.033-3.658-2.182-6.461-6.957-8.752-2.898-1.47-4.674-2.461-4.674-3.966.034-1.367 1.502-2.768 4.774-2.768 2.694-.069 4.674.58 6.173 1.23l.75.341 1.127-6.939zM86.08 22.012c.683-1.846 3.31-8.991 3.31-8.991-.035.068.68-1.88 1.09-3.077l.58 2.77s1.569 7.691 1.91 9.298h-6.89zm10.231-20.75h-6.41c-1.977 0-3.48.58-4.332 2.666l-12.31 29.467h8.695l1.74-4.82h10.64c.239 1.128.99 4.82.99 4.82h7.673L96.311 1.262zm-66.498 0l-8.117 21.912-.887-4.444c-1.5-5.128-6.206-10.7-11.458-13.47l7.434 28.102h8.764l13.027-32.1h-8.763z" fill="#00579F"/><path d="M14.16 1.264H.827l-.136.65c10.401 2.666 17.29 9.094 20.12 16.82L17.912 3.965c-.478-2.052-1.944-2.634-3.751-2.701z" fill="#FAA61A"/></svg>