<svg width="91" height="44" viewBox="0 0 91 44" fill="none" xmlns="http://www.w3.org/2000/svg"><path fill-rule="evenodd" clip-rule="evenodd" d="M90.558 13.611c-.027 7.45-6.632 13.343-14.768 13.408-8.309.065-14.995-5.877-15.149-13.06C60.487 6.64 66.983.342 75.373.277c8.444-.073 15.185 5.902 15.185 13.335zM76.06 18.094c0 1.694-.009 3.389.01 5.083.009.802.534 1.102 1.286.713 2.751-1.4 5.497-2.811 8.236-4.231.77-.398 1.16-.997 1.16-1.832-.019-2.919-.01-5.845-.01-8.764 0-1.143-.48-1.418-1.621-.916-2.628 1.16-5.246 2.327-7.874 3.478-.815.357-1.196.892-1.187 1.703.019 1.588 0 3.177 0 4.766zm-.95.073c0-1.63-.028-3.259.008-4.888.018-.81-.371-1.305-1.15-1.646-2.7-1.175-5.382-2.367-8.073-3.55-1.033-.454-1.468-.22-1.468.802-.009 2.797.018 5.585-.018 8.382-.018 1.249.553 2.116 1.785 2.724 2.519 1.248 5.001 2.562 7.502 3.843.888.454 1.404.202 1.413-.706.01-1.654 0-3.307 0-4.961zm.552-7.02c.326-.106.67-.187.987-.325 2.791-1.199 5.576-2.41 8.354-3.631.226-.097.39-.324.58-.486-.2-.13-.38-.309-.598-.398-2.537-.924-5.083-1.824-7.62-2.764-1.16-.43-2.283-.438-3.434-.008-2.491.908-4.992 1.8-7.484 2.724-.244.089-.407.34-.616.518.19.163.354.373.59.479 2.754 1.216 5.517 2.415 8.28 3.607.3.122.626.187.96.284z" fill="#32448C"/><path fill-rule="evenodd" clip-rule="evenodd" d="M41.415 18.654c1.005-.851 1.92-1.638 2.836-2.416 5.3-4.507 10.591-9.023 15.9-13.513.471-.398.988-.82 1.577-1.03.815-.3 1.775.113 2.192.778.435.681.29 1.557-.39 2.148a1128.705 1128.705 0 0 1-4.865 4.175l-9.84 8.44c-2.527 2.164-5.046 4.344-7.6 6.484-.4.333-.907.681-1.414.77-1.386.244-2.32-.47-2.31-1.742.027-5.359.081-10.717.127-16.076.008-1.224.027-2.456.063-3.68.027-.68.453-1.16 1.15-1.386.68-.22 1.36-.17 1.94.251.561.405.697.965.697 1.589-.045 4.913-.072 9.833-.109 14.746 0 .113.028.227.046.462zm-34.447.024c2.79-2.383 5.49-4.686 8.19-6.996 3.633-3.097 7.266-6.185 10.89-9.29.608-.519 1.269-.908 2.148-.746.716.13 1.25.495 1.468 1.151.226.714.027 1.338-.571 1.849a1399.789 1399.789 0 0 1-4.005 3.42c-3.09 2.651-6.188 5.302-9.277 7.953-3.072 2.635-6.152 5.261-9.224 7.904-.707.608-1.513.786-2.41.47-.915-.324-1.16-1.037-1.15-1.864.054-6.08.1-12.152.154-18.232 0-.446.027-.892.072-1.33.109-.9.797-1.45 1.794-1.467 1.078-.024 1.821.47 1.93 1.387.081.664.009 1.345.009 2.026-.01 3.705-.018 7.418-.018 11.122v2.643zm65.125 20.566v-7.23c0-.909 0-1.825.009-2.732.009-.82.498-1.306 1.296-1.297.779.008 1.259.51 1.259 1.32-.027 4.24-.072 8.472-.1 12.712 0 .6-.145 1.094-.842 1.321-.68.22-1.187-.024-1.65-.446-3.85-3.526-7.7-7.06-11.551-10.587a10.358 10.358 0 0 0-.48-.397c-.027.324-.054.535-.054.746l-.11 9.338c-.008.836-.461 1.314-1.231 1.322-.834.008-1.314-.47-1.305-1.346.036-4.296.072-8.6.154-12.897.009-.349.317-.795.634-1.022.462-.324 1.051-.21 1.504.122.363.268.68.584 1.006.892l10.854 9.954c.109.106.235.187.353.284.09-.024.172-.04.254-.057zm-29.156-5.398c2.002-1.792 3.923-3.519 5.853-5.245.163-.146.335-.3.517-.438.48-.365 1.005-.446 1.585-.219.562.219.707.657.707 1.151.009.851.009 1.694 0 2.546-.036 3.429-.082 6.866-.127 10.295-.01.9-.517 1.346-1.413 1.28-.752-.056-1.133-.486-1.133-1.272.01-3.113.027-6.234.036-9.347v-.786c-.335.283-.543.462-.752.64-1.386 1.24-2.754 2.505-4.159 3.73-.724.632-1.522.6-2.237-.05a287.163 287.163 0 0 1-4.114-3.777c-.208-.195-.335-.454-.498-.69l-.353.171v1.808l-.027 8.074c0 .56-.136 1.07-.78 1.313-.915.34-1.785-.186-1.794-1.119-.009-1.442.028-2.877.037-4.32.018-2.756.018-5.513.027-8.269 0-.13 0-.251.009-.381.045-.551.28-.98.897-1.183.589-.187 1.078-.025 1.486.356 1.477 1.346 2.935 2.7 4.403 4.053.589.56 1.187 1.095 1.83 1.678zm-12.974 4.58c-2.238 0-4.412.048-6.587-.025-.96-.032-1.63.211-2.283.827-1.214 1.127-2.51 2.189-3.787 3.259-.236.195-.526.381-.834.454-.616.146-1.196.04-1.531-.519-.317-.535-.181-1.03.29-1.443a434.31 434.31 0 0 1 3.017-2.594c3.896-3.34 7.792-6.671 11.688-10.011a6.49 6.49 0 0 1 .543-.414c.453-.316.943-.349 1.468-.138.526.211.698.625.698 1.087-.036 4.296-.073 8.6-.127 12.897-.01.86-.453 1.281-1.287 1.273-.842 0-1.277-.43-1.286-1.281.018-1.07.018-2.148.018-3.372zm.009-2.213v-4.548c-1.794 1.54-3.47 2.991-5.273 4.548h5.273zm60.495 2.026c0 .738.063 1.484-.027 2.222-.045.389-.263.842-.58 1.094-2.69 2.132-5.799 2.642-9.115 1.524-3.288-1.11-5.137-3.356-5.535-6.494-.535-4.215 2.763-8.033 7.556-8.584 2.69-.308 5.11.34 7.14 2.01.77.632.878 1.29.307 1.816-.616.576-1.34.543-2.12-.09-1.757-1.426-3.796-1.888-6.043-1.24-2.265.657-3.697 2.076-4.204 4.175-.534 2.205.516 4.386 2.7 5.732 1.939 1.191 4.675 1.208 6.705.056.462-.259.697-.543.68-1.062-.037-.826.017-1.653.054-2.472.027-.754.47-1.135 1.286-1.135.734 0 1.232.422 1.269 1.11.027.447.008.892.008 1.338h-.081zm-75.091-.048c0 .34-.045.68.009 1.013.181 1.062-.399 1.735-1.296 2.343-5.21 3.55-13.01.713-13.934-5.083-.698-4.37 2.328-8.196 7.194-8.942 2.835-.437 5.4.244 7.538 2.027.625.519.715 1.273.235 1.76-.516.518-1.422.502-2.083-.041-1.876-1.557-4.05-1.986-6.433-1.168-2.456.843-3.86 2.546-3.996 4.88-.208 3.721 3.516 6.3 7.122 5.756.298-.049.606-.09.896-.178 2.02-.592 2.184-.803 2.193-2.66 0-.51-.01-1.02.018-1.523.045-.69.544-1.127 1.26-1.127.724-.008 1.268.47 1.304 1.167.018.292-.027.592-.027.892 0 .284.009.584 0 .883 0 0 .009 0 0 0zm19.969-25.504c0 2.456.01 4.912 0 7.369 0 .997-.045 1.986-.063 2.983-.018.956-.752 1.654-1.794 1.702-1.015.049-1.993-.673-2.002-1.605-.027-2.27.027-4.531.045-6.801.018-1.549.045-3.089.054-4.637.027-2.708.091-5.423.064-8.131-.018-1.338.978-1.913 1.93-1.93 1.141-.024 1.902.755 1.902 1.954-.009 2.586-.045 5.172-.063 7.75v1.338c-.027.008-.045.008-.073.008zm20.539 22.934c0 2.14.01 4.272 0 6.412 0 .795-.48 1.257-1.25 1.265-.788.008-1.305-.486-1.296-1.297.037-4.32.082-8.633.127-12.954.01-.722.507-1.184 1.25-1.184.798 0 1.287.446 1.296 1.224.01 2.18 0 4.362 0 6.542-.036-.008-.082-.008-.127-.008zm29.6-24.06c-.163.438-.299.98-.58 1.451-.136.227-.562.454-.843.43-.262-.017-.607-.316-.715-.568-.363-.835-.245-1.678.28-2.424.173-.25.59-.527.87-.502.272.024.571.373.743.64.163.252.154.576.245.973zm-5.21 7.952c-.163.406-.299.973-.607 1.451-.407.633-1.214.527-1.513-.153-.38-.884-.226-1.76.326-2.538.163-.227.58-.462.843-.438.263.025.562.34.707.6.154.26.154.6.244 1.078zm2.927-4.004c-.2.535-.335 1.094-.616 1.589-.127.227-.562.462-.834.446-.254-.017-.589-.333-.707-.576-.344-.762-.262-1.556.182-2.254.19-.308.652-.689.96-.664.299.024.589.494.806.81.118.163.073.414.1.616.036.008.073.025.109.033zm-9.803 4.62c-.064.268-.064.568-.2.795-.154.251-.425.608-.67.624-.3.016-.752-.194-.915-.438-.544-.786-.68-1.661-.308-2.553.28-.665 1.069-.778 1.477-.162.335.51.489 1.118.715 1.678a.379.379 0 0 1-.1.057zm-2.465-6.071c.163-.957.48-1.492 1.024-1.516.517-.033 1.105.494 1.223 1.297.082.567.064 1.192-.109 1.735-.226.705-1.014.786-1.431.162-.335-.51-.48-1.119-.707-1.678zm-2.564-1.654c-.118.835-.444 1.386-.924 1.435-.543.057-1.033-.373-1.178-1.208a3.696 3.696 0 0 1 .073-1.605c.181-.632.951-.738 1.332-.178.335.47.48 1.037.697 1.556zm0 5.407c-.118.438-.154.803-.317 1.119-.254.494-.852.527-1.26.113-.561-.559-.751-1.97-.362-2.634.326-.56 1.024-.592 1.386-.008.281.437.39.964.553 1.41zm7.412-9.695c-.68-.203-1.323-.3-1.867-.56-.834-.413-.852-1.24-.109-1.783.933-.689 3.008-.673 3.932.024.671.503.68 1.313-.072 1.703-.562.3-1.241.421-1.885.616z" fill="#32448C"/></svg>