<svg width="134" height="31" viewBox="0 0 134 31" fill="none" xmlns="http://www.w3.org/2000/svg"><path d="M5.432 25.73v-8.08L.039 3.18H2.75l3.975 11.164L11.3.846h2.491L7.915 17.752v7.979H5.432z" fill="red"/><path d="M21.425 25.73h-2.082a7.49 7.49 0 0 1-.22-1.26h-.158a3.53 3.53 0 0 1-2.964 1.481c-2.27 0-3.817-1.704-3.817-4.826 0-3.413 1.735-5.55 6.183-5.55h.346v-.945c0-2.082-.695-2.967-2.082-2.967-1.263 0-2.334.664-3.15 1.389l-.478-2.177a6.34 6.34 0 0 1 3.786-1.26c2.807 0 4.353 1.197 4.353 5.046v7.475a22.9 22.9 0 0 0 .284 3.595zm-2.712-8.294h-.283c-3.062 0-3.723 1.355-3.723 3.414 0 1.837.598 3.027 1.861 3.027a2.718 2.718 0 0 0 2.145-1.26v-5.18zm7.948 8.294h-2.468V9.804h2.46v1.386h.157a4.177 4.177 0 0 1 3.122-1.575c2.082 0 3.185 1.166 3.185 3.595v12.52h-2.49v-12.3c0-1.197-.537-1.61-1.482-1.61-1.05 0-1.925.788-2.492 1.576l.008 12.334zm8.892-7.35c0-5.898 2.208-8.767 5.396-8.767a3.636 3.636 0 0 1 2.016.598v-7.03h2.46v22.55h-1.838l-.189-1.26h-.157c-.696.881-1.576 1.48-2.873 1.48-3.11 0-4.815-2.65-4.815-7.57v-.002zm7.412-5.982a2.392 2.392 0 0 0-1.859-.758c-1.987 0-2.935 2.998-2.935 6.245 0 3.72.696 5.992 2.494 5.992a2.553 2.553 0 0 0 2.3-1.24V12.399zm10.221 13.56c-3.282 0-5.3-2.625-5.3-7.505 0-5.11 1.42-8.83 4.793-8.83 2.65 0 4.385 1.985 4.385 7.378v1.357h-6.616c0 3.594 1.01 5.487 2.966 5.487a5.186 5.186 0 0 0 3.028-1.07l.57 1.884a5.987 5.987 0 0 1-3.826 1.292v.008zm-2.712-9.621h4.067c0-2.713-.441-4.7-1.862-4.7-1.512-.005-2.05 1.856-2.205 4.7zm17.28-6.496l-2.963 7.438 3.31 8.451H65.55l-2.462-6.563-2.397 6.563h-2.426l3.31-8.23-2.987-7.664h2.554l2.05 5.776 2.175-5.776 2.389.005zm8.792.311l-.661 15.422h-1.292l.977-22.55h1.733l3.376 13.915c.254 1.026.43 2.07.525 3.122h.063c.11-1.054.3-2.097.567-3.122l3.479-13.905h1.764l.98 22.55h-1.515l-.662-15.548c-.094-1.767-.063-3.124-.063-4.51h-.094c-.168 1.37-.42 2.73-.757 4.07l-3.15 12.457h-1.229L77.463 9.595a26.25 26.25 0 0 1-.728-4.038h-.086c0 1.229-.04 3.059-.103 4.595zm14.031 7.725c0-5.298 2.114-8.36 4.857-8.36 2.744 0 4.857 2.715 4.857 8.171 0 5.267-2.1 8.357-4.857 8.357s-4.857-2.744-4.857-8.168zm8.234-.094c0-4.989-1.515-7.034-3.377-7.034-1.861 0-3.374 2.208-3.374 7.034 0 4.951 1.513 7.065 3.374 7.065 1.862 0 3.377-2.271 3.377-7.065zm5.678-3.66V25.73h-1.484V9.835h1.358l.063 2.626h.063c.441-1.177 1.701-2.951 3.846-2.951s3.345 1.312 3.345 3.848V25.73h-1.484V13.555c0-1.893-.693-2.775-2.145-2.775-1.578 0-2.775 1.326-3.562 3.343zm14.731 10.63c2.101 0 3.217-1.704 3.217-1.704l.472 1.197a4.59 4.59 0 0 1-3.72 1.804c-3.366 0-4.92-3.064-4.92-8.268 0-5.203 1.953-8.272 4.636-8.272 2.744 0 4.508 2.888 4.007 8.525h-7.194c.063 4.353 1.2 6.718 3.502 6.718zm-3.471-7.892h5.776c.263-4.225-1.01-6.117-2.625-6.117-1.667.005-3.025 2.15-3.151 6.117zm9.497 13.852l-.158-1.389c.317.087.645.134.974.14 1.074 0 1.838-1.051 2.303-2.807l.126-.473-3.939-16.336h1.481l2.523 10.376a34.52 34.52 0 0 1 .657 3.581h.094a54.2 54.2 0 0 1 .756-3.594l2.46-10.376h1.326l-4.061 16.714c-.539 2.145-1.484 4.227-3.723 4.227a5.34 5.34 0 0 1-.819-.063z" fill="#fff"/></svg>