<svg width="228" height="35" viewBox="0 0 228 35" fill="none" xmlns="http://www.w3.org/2000/svg">
<g clip-path="url(#clip0)">
  <path d="M113.5 33.0898C122.613 33.0898 130 25.7025 130 16.5898C130 7.47715 122.613 0.0898438 113.5 0.0898438C104.387 0.0898438 97 7.47715 97 16.5898C97 25.7025 104.387 33.0898 113.5 33.0898Z" fill="#3B5998"/>
  <path d="M117.648 17.2358H114.704V28.022H110.243V17.2358H108.122V13.445H110.243V10.992C110.243 9.23783 111.077 6.49097 114.744 6.49097L118.048 6.50479V10.1843H115.651C115.257 10.1843 114.705 10.3808 114.705 11.2176V13.4486H118.038L117.648 17.2358Z" fill="white"/>
</g>
<g clip-path="url(#clip1)">
  <circle cx="65" cy="17.0898" r="13" fill="white"/>
  <path d="M65.0163 13.7648C66.6396 13.7591 67.9324 12.4934 67.9265 10.9145C67.9206 9.33488 66.625 8.07801 65.001 8.07666C63.3634 8.07497 62.0556 9.35514 62.0681 10.9489C62.0803 12.5221 63.3877 13.7706 65.0163 13.7648Z" fill="#F98D2E"/>
  <path d="M65 0.0898438C55.6111 0.0898438 48 7.47745 48 16.5898C48 25.7022 55.6111 33.0898 65 33.0898C74.3889 33.0898 82 25.7022 82 16.5898C82 7.47745 74.3889 0.0898438 65 0.0898438ZM65.0243 5.10753C68.3357 5.11631 70.9934 7.74517 70.9763 10.9945C70.9597 14.1689 68.2584 16.7418 64.9527 16.731C61.6807 16.7202 58.9972 14.0872 59.0167 10.9064C59.0351 7.69082 61.72 5.09875 65.0243 5.10753ZM71.7311 19.0145C70.999 19.744 70.1176 20.272 69.1388 20.6403C68.2136 20.9884 67.1997 21.1636 66.1958 21.2804C66.3478 21.4404 66.4191 21.5191 66.5137 21.6109C67.8758 22.94 69.2445 24.2624 70.6021 25.5952C71.0647 26.0496 71.161 26.6127 70.9064 27.1404C70.6285 27.7177 70.0049 28.0971 69.393 28.0563C69.0056 28.0303 68.7033 27.8436 68.4351 27.5813C67.407 26.5773 66.3593 25.5912 65.3527 24.5682C65.0588 24.2705 64.9183 24.3272 64.6591 24.5858C63.625 25.6195 62.5739 26.6367 61.5169 27.6485C61.0421 28.1029 60.4772 28.1853 59.9263 27.9253C59.3409 27.6505 58.9687 27.0702 58.9972 26.4865C59.0174 26.0928 59.217 25.791 59.496 25.5216C60.8445 24.2155 62.1889 22.9053 63.5336 21.5961C63.623 21.5093 63.7057 21.4171 63.8355 21.2821C62.0014 21.0961 60.3475 20.6579 58.9315 19.5833C58.7555 19.4496 58.5743 19.3207 58.4143 19.1708C57.7941 18.5931 57.7318 17.9311 58.2219 17.2498C58.6417 16.6665 59.3457 16.5105 60.0779 16.8457C60.2198 16.9102 60.3548 16.9919 60.4842 17.0783C63.1228 18.8382 66.7478 18.8865 69.3969 17.157C69.6591 16.9625 69.9398 16.8025 70.265 16.7218C70.8967 16.5638 71.4866 16.7897 71.8254 17.3265C72.2132 17.9399 72.2087 18.5381 71.7311 19.0145Z" fill="#F98D2E"/>
</g>
<g clip-path="url(#clip2)">
  <path d="M211.5 33.0889C220.613 33.0889 228 25.7016 228 16.5889C228 7.47617 220.613 0.0888672 211.5 0.0888672C202.387 0.0888672 195 7.47617 195 16.5889C195 25.7016 202.387 33.0889 211.5 33.0889Z" fill="#DC4E41"/>
  <path d="M200.745 17.3289C200.686 20.1678 202.642 22.877 205.331 23.7606C207.865 24.6118 210.98 23.975 212.666 21.8052C213.897 20.2849 214.177 18.258 214.043 16.3644C211.874 16.345 209.704 16.3515 207.537 16.3547C207.534 17.1277 207.537 17.8977 207.541 18.6707C208.84 18.7066 210.139 18.6901 211.438 18.7163C211.11 19.8401 210.363 20.8861 209.229 21.292C207.04 22.2567 204.247 20.9964 203.558 18.6998C202.727 16.5006 204.088 13.8467 206.335 13.207C207.729 12.7167 209.164 13.2687 210.357 13.9932C210.961 13.4279 211.526 12.8237 212.082 12.2131C210.727 11.0795 208.986 10.3845 207.196 10.5372C203.685 10.5789 200.611 13.8208 200.745 17.3289Z" fill="#DC4E41"/>
  <path d="M218.266 14.4045C218.26 15.051 218.253 15.7008 218.25 16.347C217.6 16.3534 216.954 16.3567 216.308 16.3599C216.308 17.0064 216.308 17.6494 216.308 18.2959C216.954 18.2991 217.604 18.3023 218.25 18.3091C218.256 18.9556 218.256 19.6018 218.263 20.2515C218.906 20.2515 219.553 20.2483 220.199 20.2515C220.202 19.6018 220.205 18.9556 220.212 18.3059C220.858 18.3026 221.508 18.2994 222.155 18.2962C222.155 17.6497 222.155 17.0067 222.155 16.3602C221.508 16.357 220.859 16.3537 220.212 16.3473C220.209 15.7008 220.202 15.051 220.199 14.4048C219.553 14.4045 218.909 14.4045 218.266 14.4045Z" fill="#DC4E41"/>
  <path d="M200.745 17.3282C200.611 13.8201 203.684 10.5782 207.196 10.5362C208.986 10.3835 210.727 11.0786 212.081 12.2121C211.526 12.823 210.96 13.4269 210.357 13.9922C209.164 13.2678 207.728 12.7157 206.335 13.206C204.087 13.846 202.726 16.4999 203.558 18.6988C204.247 20.9954 207.04 22.2557 209.229 21.291C210.363 20.8851 211.11 19.8392 211.438 18.7153C210.139 18.6894 208.839 18.7056 207.54 18.6697C207.537 17.8967 207.534 17.1267 207.537 16.3537C209.704 16.3505 211.873 16.344 214.043 16.3635C214.176 18.2573 213.897 20.2842 212.666 21.8042C210.98 23.974 207.865 24.6108 205.331 23.7596C202.642 22.8763 200.686 20.1671 200.745 17.3282Z" fill="white"/>
  <path d="M218.266 14.4045C218.91 14.4045 219.553 14.4045 220.199 14.4045C220.202 15.051 220.209 15.7008 220.212 16.347C220.858 16.3534 221.508 16.3567 222.155 16.3599C222.155 17.0064 222.155 17.6494 222.155 18.2959C221.508 18.2991 220.859 18.3023 220.212 18.3056C220.206 18.9553 220.202 19.6015 220.199 20.2512C219.553 20.248 218.906 20.2512 218.263 20.2512C218.257 19.6015 218.257 18.9553 218.25 18.3088C217.604 18.302 216.954 18.2991 216.308 18.2956C216.308 17.6491 216.308 17.0061 216.308 16.3596C216.954 16.3564 217.601 16.3531 218.25 16.3467C218.253 15.7008 218.26 15.051 218.266 14.4045Z" fill="white"/>
</g>
<g clip-path="url(#clip3)">
  <circle cx="17" cy="17.0898" r="13" fill="white"/>
  <path d="M16.5645 13.625C14.9651 13.625 13.6641 14.9261 13.6641 16.5254C13.6641 18.1247 14.9651 19.4258 16.5645 19.4258C18.1638 19.4258 19.4648 18.1247 19.4648 16.5254C19.4648 14.9261 18.1638 13.625 16.5645 13.625Z" fill="#277EBC"/>
  <path d="M16.4355 0.0898438C7.37279 0.0898438 0 7.46264 0 16.5254C0 25.5881 7.37279 33.0898 16.4355 33.0898C25.4983 33.0898 33 25.5881 33 16.5254C33 7.46264 25.4983 0.0898438 16.4355 0.0898438ZM23.332 21.3594C22.0254 21.3594 20.873 20.7045 20.1727 19.7096C19.2863 20.713 18.0052 21.3594 16.5645 21.3594C13.8991 21.3594 11.7305 19.1907 11.7305 16.5254C11.7305 13.8601 13.8991 11.6914 16.5645 11.6914C17.6568 11.6914 18.6544 12.0694 19.4648 12.6829V12.6582C19.4648 12.1238 19.8973 11.6914 20.4316 11.6914C20.966 11.6914 21.3984 12.1238 21.3984 12.6582C21.3984 14.8084 21.3984 15.3411 21.3984 17.4922C21.3984 18.5581 22.2661 19.4258 23.332 19.4258C24.398 19.4258 25.2656 18.5581 25.2656 17.4922C25.2656 11.0217 20.9839 7.82422 16.5645 7.82422C11.7664 7.82422 7.86328 11.7273 7.86328 16.5254C7.86328 21.3235 11.7664 25.2266 16.5645 25.2266C18.498 25.2266 20.3268 24.6072 21.8535 23.4346C22.8733 22.6561 24.0411 24.1929 23.0318 24.9678C21.1634 26.402 18.9276 27.1602 16.5645 27.1602C10.7004 27.1602 5.92969 22.3894 5.92969 16.5254C5.92969 10.6614 10.7004 5.89062 16.5645 5.89062C21.9074 5.89062 27.1992 9.83097 27.1992 17.4922C27.1992 19.625 25.4648 21.3594 23.332 21.3594Z" fill="#277EBC"/>
</g>
<g clip-path="url(#clip4)">
  <path d="M162.5 34.0898C172.165 34.0898 180 26.4787 180 17.0898C180 7.701 172.165 0.0898438 162.5 0.0898438C152.835 0.0898438 145 7.701 145 17.0898C145 26.4787 152.835 34.0898 162.5 34.0898Z" fill="#4D76A1"/>
  <path fill-rule="evenodd" clip-rule="evenodd" d="M161.839 24.5458H163.212C163.212 24.5458 163.627 24.5016 163.839 24.2798C164.034 24.0761 164.028 23.6937 164.028 23.6937C164.028 23.6937 164.001 21.9033 164.856 21.6397C165.7 21.38 166.782 23.37 167.93 24.1352C168.798 24.7143 169.457 24.5874 169.457 24.5874L172.526 24.5458C172.526 24.5458 174.131 24.4498 173.37 23.2237C173.308 23.1234 172.927 22.3167 171.089 20.659C169.164 18.9241 169.422 19.2047 171.74 16.2037C173.152 14.3761 173.716 13.2603 173.54 12.7824C173.372 12.3272 172.333 12.4475 172.333 12.4475L168.878 12.4684C168.878 12.4684 168.622 12.4345 168.432 12.5448C168.246 12.653 168.127 12.9051 168.127 12.9051C168.127 12.9051 167.58 14.3194 166.851 15.5222C165.312 18.0602 164.697 18.1941 164.446 18.0365C163.861 17.6692 164.007 16.561 164.007 15.7737C164.007 13.3142 164.391 12.2887 163.259 12.0233C162.883 11.9351 162.607 11.8769 161.646 11.8675C160.414 11.8551 159.37 11.8712 158.779 12.1524C158.386 12.3394 158.083 12.756 158.268 12.78C158.496 12.8097 159.013 12.9154 159.287 13.2782C159.641 13.7461 159.629 14.797 159.629 14.797C159.629 14.797 159.832 17.6923 159.154 18.052C158.688 18.2987 158.049 17.795 156.678 15.4925C155.975 14.3131 155.444 13.0094 155.444 13.0094C155.444 13.0094 155.342 12.7657 155.159 12.6354C154.938 12.4775 154.628 12.4272 154.628 12.4272L151.345 12.4481C151.345 12.4481 150.852 12.4615 150.671 12.6697C150.51 12.8548 150.658 13.2379 150.658 13.2379C150.658 13.2379 153.229 19.0799 156.139 22.0239C158.808 24.7231 161.839 24.5458 161.839 24.5458Z" fill="white"/>
</g>
<defs>
<clipPath id="clip0">
<rect width="33" height="33" fill="white" transform="translate(97 0.0898438)"/>
</clipPath>
<clipPath id="clip1">
<rect width="34" height="33" fill="white" transform="translate(48 0.0898438)"/>
</clipPath>
<clipPath id="clip2">
<rect width="33" height="33" fill="white" transform="translate(195 0.0898438)"/>
</clipPath>
<clipPath id="clip3">
<rect width="33" height="33" fill="white" transform="translate(0 0.0898438)"/>
</clipPath>
<clipPath id="clip4">
<rect width="35" height="34" fill="white" transform="translate(145 0.0898438)"/>
</clipPath>
</defs>
</svg>
