<svg width="54" height="55" viewBox="0 0 54 55" fill="none" xmlns="http://www.w3.org/2000/svg"><g clip-path="url(#clip0)" fill="#32448C" fill-opacity=".2"><path d="M16.378 15.19h-3.657c-1.431 0-2.12.266-2.12 1.435v1.327c0 1.169.742 1.434 2.12 1.434h.848c.53 0 .742.266.742 1.116v17.42c0 1.433.265 2.124 1.431 2.124h1.378c1.166 0 1.431-.744 1.431-2.125V16.625c-.053-1.169-.795-1.434-2.173-1.434z"/><path d="M41.502 3.082C39.912 1.542 37.95.745 35.565.745H17.703c-2.385 0-4.4.797-5.936 2.337l-9.488 9.453C.795 14.022 0 15.987 0 18.165V36.38c0 2.496.848 4.461 2.544 6.108l9.01 9.028c1.75 1.753 3.764 2.603 6.308 2.55h17.65c2.438 0 4.453-.744 6.308-2.55l9.01-9.028c1.643-1.647 2.544-3.612 2.544-6.108V18.165c0-2.178-.795-4.143-2.279-5.63l-9.593-9.453zm8.268 21.297c0 .584-.265.902-.848.902h-2.703V23.37c0-1.433-.212-2.124-1.431-2.124h-1.22c-1.218 0-1.43.744-1.43 2.124v1.913h-1.855c-1.432 0-2.12.212-2.12 1.433v1.275c0 1.222.741 1.434 2.12 1.434h1.908v1.912c0 1.434.212 2.124 1.43 2.124h1.22c1.219 0 1.43-.743 1.43-2.124v-1.912h2.704c.53 0 .795.265.848.797v6.16c0 1.487-.424 2.603-1.484 3.612l-9.01 9.028c-1.06 1.062-2.227 1.54-3.658 1.54h-18.02c-1.432 0-2.598-.478-3.658-1.54l-9.01-9.028c-1.06-1.063-1.538-2.125-1.485-3.612V18.59c0-1.487.477-2.762 1.59-3.877l9.117-9.294c.9-.903 2.12-1.222 3.445-1.222h17.968c1.325 0 2.491.266 3.445 1.222l9.17 9.294c1.06 1.115 1.59 2.39 1.59 3.877v5.789h-.053z"/><path d="M33.87 27.14c2.278-1.646 2.278-3.346 2.278-4.726v-1.381c-.265-4.568-1.749-6.32-7.05-6.32-5.3 0-6.784 1.752-7.049 6.32v1.38c0 1.381.053 3.08 2.28 4.727-2.704 1.063-2.916 3.346-2.916 6.373 0 4.462 1.59 6.692 7.633 6.798 6.095-.106 7.632-2.337 7.632-6.798.106-3.027-.106-5.31-2.809-6.373zm-4.718-8.656c2.226 0 3.127.796 3.127 3.505 0 2.602-.901 3.505-3.127 3.505s-3.127-.903-3.127-3.505c0-2.709.9-3.505 3.127-3.505zm0 18.057c-2.597 0-3.498-1.01-3.498-3.559 0-2.549.9-3.717 3.498-3.717 2.597 0 3.498 1.168 3.498 3.717 0 2.55-.954 3.559-3.498 3.559z"/></g><defs><clipPath id="clip0"><path fill="#fff" transform="translate(0 .745)" d="M0 0h53.268v53.268H0z"/></clipPath></defs></svg>