<svg width="40" height="40" viewBox="0 0 40 40" fill="none" xmlns="http://www.w3.org/2000/svg"><g clip-path="url(#clip0)" fill="#fff"><path d="M38.652 10.402a2.476 2.476 0 0 0-1.265-1.426L19.447.25a2.493 2.493 0 0 0-3.33 1.15l-.837 1.721-4.9-.959a2.5 2.5 0 0 0-2.932 1.971l-.622 3.18H3.74a2.493 2.493 0 0 0-2.491 2.49V37.51A2.493 2.493 0 0 0 3.74 40h19.951a2.494 2.494 0 0 0 2.491-2.49v-.006a.78.78 0 0 0 .235-.285l12.12-24.914a2.474 2.474 0 0 0 .115-1.903zm-21.13-8.318a.929.929 0 0 1 1.241-.428l7.39 3.594-9.286-1.817.656-1.349zm-8.54 2.35a.936.936 0 0 1 1.097-.737l5.477 1.072.03.005 14.059 2.751a.928.928 0 0 1 .596.396c.14.207.19.456.142.701l-4.201 21.461V9.805a2.494 2.494 0 0 0-2.49-2.491H8.417l.564-2.88zM24.619 37.51a.93.93 0 0 1-.928.928H3.741a.93.93 0 0 1-.929-.927V9.805a.93.93 0 0 1 .929-.928h19.95a.93.93 0 0 1 .928.928V37.51zm12.514-25.887L27.52 31.38l4.396-22.457c.056-.289.062-.58.018-.861l4.77 2.32c.223.107.39.296.471.53a.92.92 0 0 1-.042.71z"/><path d="M13.607 28.848a.78.78 0 0 1-.44-.135 27.968 27.968 0 0 1-3.065-2.486c-2.134-2.009-3.215-3.79-3.215-5.294a3.936 3.936 0 0 1 6.77-2.724 3.918 3.918 0 0 1 2.784-1.155 3.936 3.936 0 0 1 3.932 3.931c0 1.485-1.09 3.251-3.242 5.251a28.54 28.54 0 0 1-3.086 2.478.778.778 0 0 1-.438.134zm-2.79-10.284a2.371 2.371 0 0 0-2.368 2.369c0 1.82 3 4.619 5.16 6.18 2.176-1.561 5.201-4.346 5.201-6.128a2.372 2.372 0 0 0-2.369-2.368 2.36 2.36 0 0 0-2.104 1.281.78.78 0 0 1-1.394-.013 2.357 2.357 0 0 0-2.125-1.32zM5.09 13.352a.781.781 0 0 1-.78-.782v-1.176a.781.781 0 1 1 1.562 0v1.176c0 .432-.35.782-.781.782zm17.251 23.162a.781.781 0 0 1-.781-.782v-1.176a.781.781 0 1 1 1.562 0v1.177a.78.78 0 0 1-.781.78zm-2.568-4.527a.779.779 0 0 1-.552-.229.74.74 0 0 1-.169-.254.789.789 0 0 1 0-.597.804.804 0 0 1 .288-.351.788.788 0 0 1 1.083.216.798.798 0 0 1 .131.434.776.776 0 0 1-.628.765.782.782 0 0 1-.153.016zm-2.98 0H7.486a.781.781 0 1 1 0-1.562h9.307a.781.781 0 1 1 0 1.562z"/></g><defs><clipPath id="clip0"><path fill="#fff" d="M0 0h40v40H0z"/></clipPath></defs></svg>