<svg width="19" height="17" viewBox="0 0 19 17" fill="none" xmlns="http://www.w3.org/2000/svg"><path d="M18.75 10.36a.816.816 0 0 1-.815.812h-3.832c-.346 0-.652-.183-.774-.528l-.612-1.707-1.997 6.724a.825.825 0 0 1-.774.589h-.02c-.368-.02-.694-.264-.775-.63L6.52 4.266l-1.589 6.317c-.081.365-.408.589-.795.589H.815A.816.816 0 0 1 0 10.359c0-.447.367-.812.815-.812h2.69L5.768.589C5.849.223 6.196 0 6.563 0c.366 0 .692.264.794.63l2.69 11.618 1.835-6.175a.801.801 0 0 1 .754-.589.815.815 0 0 1 .795.529l1.263 3.534h3.261c.428 0 .795.365.795.812z" fill="#B00E0E"/></svg>