<svg width="18" height="19" viewBox="0 0 18 19" fill="none" xmlns="http://www.w3.org/2000/svg"><g clip-path="url(#clip0)" fill="#8C91BA"><path d="M17.708 8.242a11.14 11.14 0 0 0-3.784-3.098A10.917 10.917 0 0 0 8.86 3.99c-1.68.02-3.289.408-4.784 1.155A11.141 11.141 0 0 0 .29 8.242a1.376 1.376 0 0 0 0 1.695 11.141 11.141 0 0 0 3.785 3.099 10.917 10.917 0 0 0 5.063 1.154c1.68-.02 3.289-.408 4.785-1.154a11.14 11.14 0 0 0 3.784-3.099 1.377 1.377 0 0 0 0-1.695zM4.403 12.38A10.405 10.405 0 0 1 .869 9.487a.645.645 0 0 1 0-.794 10.328 10.328 0 0 1 4.723-3.397A5.09 5.09 0 0 0 3.897 9.09a5.09 5.09 0 0 0 1.695 3.794c-.404-.142-.8-.31-1.19-.504zM9 13.46c-2.41 0-4.37-1.96-4.37-4.37S6.59 4.72 9 4.72s4.37 1.96 4.37 4.37-1.96 4.37-4.37 4.37zm8.13-3.973a10.405 10.405 0 0 1-3.533 2.893 10.35 10.35 0 0 1-1.189.503 5.09 5.09 0 0 0-.002-7.588 10.323 10.323 0 0 1 4.724 3.398.645.645 0 0 1 0 .794z"/><path d="M9 7.22c-1.031 0-1.87.839-1.87 1.87 0 1.031.839 1.87 1.87 1.87 1.031 0 1.87-.839 1.87-1.87 0-1.031-.839-1.87-1.87-1.87zm0 3.008a1.14 1.14 0 0 1 0-2.276 1.14 1.14 0 0 1 0 2.276z"/></g><defs><clipPath id="clip0"><path fill="#fff" transform="matrix(-1 0 0 1 18 .09)" d="M0 0h18v18H0z"/></clipPath></defs></svg>