<svg width="33" height="34" viewBox="0 0 33 34" fill="none" xmlns="http://www.w3.org/2000/svg"><g clip-path="url(#clip0)"><path d="M16.5 33.089c9.113 0 16.5-7.387 16.5-16.5S25.613.089 16.5.089 0 7.476 0 16.589s7.387 16.5 16.5 16.5z" fill="#DC4E41"/><path d="M5.745 17.329c-.059 2.839 1.897 5.548 4.586 6.432 2.534.85 5.65.214 7.335-1.956 1.231-1.52 1.51-3.547 1.377-5.44-2.17-.02-4.34-.013-6.506-.01-.003.773 0 1.543.004 2.316 1.299.036 2.598.02 3.897.045-.328 1.124-1.075 2.17-2.209 2.576-2.189.965-4.982-.296-5.67-2.592-.832-2.2.529-4.853 2.776-5.493 1.394-.49 2.83.062 4.022.786.604-.565 1.17-1.17 1.725-1.78-1.355-1.133-3.096-1.829-4.886-1.676-3.511.042-6.585 3.284-6.451 6.792zm17.521-2.924c-.006.646-.013 1.296-.016 1.942-.65.006-1.296.01-1.942.013v1.936c.646.003 1.296.006 1.942.013.006.647.006 1.293.013 1.942.643 0 1.29-.003 1.936 0 .003-.65.006-1.295.013-1.945l1.942-.01V16.36c-.646-.003-1.295-.006-1.942-.013-.003-.646-.01-1.296-.013-1.942h-1.933z" fill="#DC4E41"/><path d="M5.745 17.328c-.134-3.508 2.94-6.75 6.45-6.792 1.79-.152 3.532.543 4.886 1.676a30.472 30.472 0 0 1-1.724 1.78c-1.193-.724-2.628-1.276-4.022-.786-2.248.64-3.609 3.294-2.777 5.493.689 2.296 3.482 3.557 5.671 2.592 1.134-.406 1.881-1.452 2.209-2.576-1.3-.026-2.599-.01-3.898-.045-.003-.773-.006-1.543-.003-2.316 2.167-.003 4.336-.01 6.506.01.133 1.893-.146 3.92-1.377 5.44-1.686 2.17-4.801 2.807-7.335 1.956-2.69-.884-4.645-3.593-4.586-6.432zm17.521-2.923H25.2c.003.646.01 1.296.013 1.942.646.006 1.296.01 1.942.013v1.936l-1.942.01c-.006.65-.01 1.296-.013 1.945-.646-.003-1.293 0-1.936 0-.006-.65-.006-1.296-.013-1.942-.646-.007-1.296-.01-1.942-.013V16.36c.646-.004 1.293-.007 1.942-.013.003-.646.01-1.296.016-1.943z" fill="#fff"/></g><defs><clipPath id="clip0"><path fill="#fff" transform="translate(0 .09)" d="M0 0h33v33H0z"/></clipPath></defs></svg>