<svg width="33" height="34" viewBox="0 0 33 34" fill="none" xmlns="http://www.w3.org/2000/svg"><g clip-path="url(#clip0)"><path d="M16.5 33.09c9.113 0 16.5-7.388 16.5-16.5C33 7.477 25.613.09 16.5.09S0 7.477 0 16.59s7.387 16.5 16.5 16.5z" fill="#3B5998"/><path d="M20.648 17.236h-2.944v10.786h-4.46V17.236h-2.122v-3.791h2.121v-2.453c0-1.754.834-4.501 4.5-4.501l3.305.014v3.68h-2.397c-.393 0-.947.196-.947 1.033v2.23h3.334l-.39 3.788z" fill="#fff"/></g><defs><clipPath id="clip0"><path fill="#fff" transform="translate(0 .09)" d="M0 0h33v33H0z"/></clipPath></defs></svg>