<svg width="33" height="34" viewBox="0 0 33 34" fill="none" xmlns="http://www.w3.org/2000/svg"><g clip-path="url(#clip0)"><circle cx="17" cy="17.09" r="13" fill="#fff"/><path d="M16.564 13.625a2.903 2.903 0 0 0-2.9 2.9c0 1.6 1.301 2.9 2.9 2.9 1.6 0 2.9-1.3 2.9-2.9 0-1.599-1.3-2.9-2.9-2.9z" fill="#277EBC"/><path d="M16.436.09C7.373.09 0 7.463 0 16.525 0 25.588 7.373 33.09 16.436 33.09 25.498 33.09 33 25.588 33 16.525 33 7.463 25.498.09 16.436.09zm6.896 21.27a3.86 3.86 0 0 1-3.16-1.65c-.886 1.003-2.167 1.65-3.608 1.65a4.84 4.84 0 0 1-4.834-4.835 4.84 4.84 0 0 1 4.834-4.834 4.78 4.78 0 0 1 2.9.992v-.025a.966.966 0 1 1 1.934 0v4.834c0 1.066.868 1.934 1.934 1.934a1.936 1.936 0 0 0 1.934-1.934c0-6.47-4.282-9.668-8.701-9.668-4.799 0-8.702 3.903-8.702 8.701 0 4.799 3.903 8.702 8.701 8.702 1.934 0 3.763-.62 5.29-1.792 1.02-.779 2.187.758 1.178 1.533a10.53 10.53 0 0 1-6.468 2.192C10.7 27.16 5.93 22.39 5.93 16.525c0-5.864 4.77-10.634 10.634-10.634 5.343 0 10.635 3.94 10.635 11.601a3.871 3.871 0 0 1-3.867 3.867z" fill="#277EBC"/></g><defs><clipPath id="clip0"><path fill="#fff" transform="translate(0 .09)" d="M0 0h33v33H0z"/></clipPath></defs></svg>