<svg width="20" height="20" viewBox="0 0 20 20" fill="none" xmlns="http://www.w3.org/2000/svg"><path d="M10.125.75a9.376 9.376 0 1 0 .002 18.752A9.376 9.376 0 0 0 10.125.75zm0 17.12a7.741 7.741 0 0 1-7.745-7.745 7.741 7.741 0 0 1 7.745-7.745 7.741 7.741 0 0 1 7.745 7.745 7.741 7.741 0 0 1-7.745 7.745zm3.118-5.789a.812.812 0 0 1 0 1.162.804.804 0 0 1-.57.245.805.805 0 0 1-.571-.245l-2.527-2.527a.805.805 0 0 1-.245-.57V5.294c0-.449.367-.815.815-.815.449 0 .816.366.816.815v4.524l2.282 2.262z" fill="#5D830C"/></svg>