<svg width="27" height="27" viewBox="0 0 27 27" fill="none" xmlns="http://www.w3.org/2000/svg"><path d="M22.165 18.078l-.426-2.77a.85.85 0 0 1 .15-.624l1.636-2.276a.849.849 0 0 0-.13-1.133L21.29 9.426a.849.849 0 0 1-.287-.574l-.21-2.794a.849.849 0 0 0-.827-.785l-2.802-.063a.85.85 0 0 1-.588-.255l-1.957-2.006a.849.849 0 0 0-1.139-.07l-2.186 1.753a.849.849 0 0 1-.615.183l-2.789-.28a.848.848 0 0 0-.917.68l-.548 2.748a.849.849 0 0 1-.354.535l-2.315 1.58a.849.849 0 0 0-.266 1.109l1.347 2.457a.849.849 0 0 1 .073.638l-.76 2.698A.848.848 0 0 0 4.66 18l2.61 1.017a.85.85 0 0 1 .467.442l1.152 2.554a.85.85 0 0 0 1.046.455l2.655-.9a.847.847 0 0 1 .64.04l2.525 1.215a.849.849 0 0 0 1.094-.324l1.455-2.396a.85.85 0 0 1 .515-.382l2.716-.691a.849.849 0 0 0 .63-.952zm-12.35-2.662l-1.58-2.57-.007 2.566-.738-.002.01-3.935.773.002 1.604 2.632.006-2.628.738.002-.01 3.935-.797-.002zm1.636.004l.01-3.934 2.918.007-.002.665-2.123-.005-.002.872 1.975.005-.002.663-1.975-.005-.003 1.07 2.198.006-.001.663-2.993-.007zm6.651.017l-.776-2.944-.789 2.94-.861-.002-.93-3.937.814.002.586 2.704.726-2.7.945.002.683 2.75.61-2.747.8.002-.965 3.932-.843-.002z" fill="#C25202"/></svg>