<svg width="34" height="34" viewBox="0 0 34 34" fill="none" xmlns="http://www.w3.org/2000/svg"><g clip-path="url(#clip0)"><circle cx="17" cy="17.09" r="13" fill="#fff"/><path d="M17.016 13.765c1.624-.006 2.916-1.272 2.91-2.85-.005-1.58-1.301-2.837-2.925-2.838-1.638-.002-2.945 1.278-2.933 2.872.012 1.573 1.32 2.822 2.948 2.816z" fill="#F98D2E"/><path d="M17 .09C7.611.09 0 7.477 0 16.59c0 9.112 7.611 16.5 17 16.5s17-7.388 17-16.5C34 7.477 26.389.09 17 .09zm.024 5.018c3.312.008 5.97 2.637 5.952 5.887-.016 3.174-2.718 5.747-6.023 5.736-3.272-.01-5.956-2.644-5.936-5.825.018-3.215 2.703-5.807 6.007-5.798zm6.707 13.907c-.732.729-1.613 1.257-2.592 1.625-.925.348-1.94.524-2.943.64.152.16.223.24.318.33 1.362 1.33 2.73 2.652 4.088 3.985.463.455.559 1.018.304 1.545-.277.578-.901.957-1.513.916-.387-.026-.69-.212-.958-.475-1.028-1.004-2.076-1.99-3.082-3.013-.294-.298-.435-.24-.694.018a202.675 202.675 0 0 1-3.142 3.063c-.475.454-1.04.536-1.59.276-.586-.274-.958-.855-.93-1.439.02-.393.22-.695.499-.964 1.348-1.306 2.693-2.617 4.038-3.926.089-.087.172-.179.301-.314-1.834-.186-3.488-.624-4.904-1.699-.175-.133-.357-.262-.517-.412-.62-.578-.682-1.24-.192-1.921.42-.584 1.124-.74 1.856-.404.142.064.277.146.406.232 2.639 1.76 6.264 1.809 8.913.079.262-.195.543-.355.868-.435.632-.158 1.222.068 1.56.604.388.614.384 1.212-.094 1.689z" fill="#F98D2E"/></g><defs><clipPath id="clip0"><path fill="#fff" transform="translate(0 .09)" d="M0 0h34v33H0z"/></clipPath></defs></svg>