<svg width="28" height="20" viewBox="0 0 28 20" fill="none" xmlns="http://www.w3.org/2000/svg"><path d="M19.903 2.455c0-.536-.456-.974-1.014-.974H1.014C.456 1.48 0 1.919 0 2.455v12.662c0 .536.456.974 1.014.974h17.875c.558 0 1.014-.438 1.014-.974V2.455zm-2.028 11.688H2.028V3.429h15.847v10.714zM14.2 18.526c0 .536-.456.974-1.014.974H6.742c-.558 0-1.014-.438-1.014-.974s.456-.974 1.014-.974h6.444c.558 0 1.014.438 1.014.974zm11.652-4.299v-8.51c.964-.39 1.648-1.314 1.648-2.386C27.5 1.92 26.309.75 24.839.75s-2.662 1.169-2.662 2.581c0 1.072.685 1.997 1.648 2.386v.025l-.04 6.727h-3.882v1.674s.045.084 5.95.084zM24.84 2.21c.633 0 1.14.511 1.14 1.12 0 .609-.507 1.12-1.14 1.12-.634 0-1.14-.511-1.14-1.12 0-.609.506-1.12 1.14-1.12z" fill="#0B8B5D"/></svg>