<svg width="19" height="19" viewBox="0 0 19 19" fill="none" xmlns="http://www.w3.org/2000/svg"><path d="M18.75 1.773c0-.568-.487-1.023-1.096-1.023H1.096C.487.75 0 1.205 0 1.773v15.454c0 .569.487 1.023 1.096 1.023h16.558c.609 0 1.096-.454 1.096-1.023V1.773zm-2.192 14.431H2.192V2.795h14.366v13.41z" fill="#1440B3"/><path d="M5.826 8.443c-.31-.29-.5-.723-.5-1.141 0-.418.19-.82.5-1.109.31-.29.757-.45 1.205-.482.448 0 .878.177 1.205.482.31.29.482.707.5 1.11 0 .417-.173.835-.5 1.14-.31.29-.757.45-1.205.45-.448.032-.895-.16-1.205-.45zm5.355 4.323c.447 0 .895-.16 1.205-.45.31-.29.482-.707.5-1.14 0-.419-.19-.82-.5-1.11-.31-.29-.775-.466-1.205-.482-.448 0-.878.177-1.206.482-.31.29-.482.707-.499 1.109 0 .418.172.836.5 1.141.292.273.74.466 1.205.45z" fill="#1440B3"/></svg>