<svg width="35" height="35" viewBox="0 0 35 35" fill="none" xmlns="http://www.w3.org/2000/svg"><g clip-path="url(#clip0)"><path d="M17.5 34.09c9.665 0 17.5-7.611 17.5-17s-7.835-17-17.5-17S0 7.7 0 17.09s7.835 17 17.5 17z" fill="#4D76A1"/><path fill-rule="evenodd" clip-rule="evenodd" d="M16.839 24.546h1.373s.415-.044.627-.266c.195-.204.189-.586.189-.586s-.027-1.79.828-2.054c.844-.26 1.926 1.73 3.074 2.495.868.58 1.527.452 1.527.452l3.07-.041s1.604-.096.843-1.322c-.062-.1-.443-.907-2.281-2.565-1.924-1.735-1.667-1.454.651-4.455 1.412-1.828 1.976-2.944 1.8-3.422-.168-.455-1.207-.335-1.207-.335l-3.455.021s-.256-.034-.446.077c-.186.108-.305.36-.305.36s-.547 1.414-1.276 2.617c-1.539 2.538-2.154 2.672-2.405 2.514-.585-.367-.44-1.475-.44-2.262 0-2.46.385-3.485-.747-3.75-.376-.089-.652-.147-1.613-.156-1.232-.013-2.276.003-2.867.284-.393.187-.696.604-.511.628.228.03.745.135 1.02.498.354.468.341 1.519.341 1.519s.203 2.895-.475 3.255c-.466.247-1.105-.257-2.476-2.56-.703-1.179-1.234-2.483-1.234-2.483s-.102-.243-.285-.374c-.221-.158-.53-.208-.53-.208l-3.284.021s-.493.013-.674.222c-.16.185-.013.568-.013.568s2.57 5.842 5.481 8.786c2.67 2.7 5.7 2.522 5.7 2.522z" fill="#fff"/></g><defs><clipPath id="clip0"><path fill="#fff" transform="translate(0 .09)" d="M0 0h35v34H0z"/></clipPath></defs></svg>