<svg width="82" height="18" viewBox="0 0 82 18" fill="none" xmlns="http://www.w3.org/2000/svg"><g clip-path="url(#clip0)" fill="#32448C"><path d="M31.083 3.132c1.855-.589 3.71-1.177 5.565-1.649v4.358h2.517V9.14h-2.517v3.416c0 .47.265 1.06.795 1.295.53.118 1.192 0 1.722-.117v3.297c-1.59.471-3.18.707-4.902.59-1.06-.119-1.987-.59-2.517-1.414-.663-.824-.795-1.885-.795-2.827V9.14h-1.988V5.841h1.988c.132-.942 0-1.884.132-2.709zm9.54-.942c1.855-.589 3.843-.589 5.698-.589 1.722.118 3.577.472 4.902 1.532 1.722 1.413 1.855 4.122 0 5.535-.53.354-1.06.59-1.59.825.795.235 1.59.589 2.252 1.178.928.942 1.06 2.355.795 3.533-.265 1.06-1.192 2.002-2.385 2.473-1.987.943-4.372.943-6.624.825-1.06-.118-2.12-.236-3.048-.471V13.38c1.723.47 3.71.824 5.433.47 1.192-.235 1.324-2.002.132-2.473-1.192-.47-2.517-.353-3.71-.118V7.844c.928 0 1.855.118 2.915 0 .53-.118 1.193-.354 1.325-.942a1.49 1.49 0 0 0-.265-1.296c-.398-.353-1.06-.589-1.59-.589-1.457-.118-2.782.118-4.107.589-.133-1.06-.133-2.238-.133-3.416zm28.751-.353h10.997V5.37h-5.962v2.356c1.06 0 2.252-.118 3.312.118 1.59.47 2.782 1.649 3.047 3.062a5.087 5.087 0 0 1-.53 4.122c-.794 1.178-2.12 1.885-3.577 2.12-2.517.59-5.167.236-7.684-.353v-3.533c1.59.353 3.312.706 4.902.235 1.325-.353 1.59-2.12.53-2.944-.663-.472-1.458-.59-2.253-.59-.927 0-1.722.119-2.65.236-.132 0-.397.118-.53.236 0-.118.133-.236.133-.354.265-2.59.265-5.417.265-8.244zM21.28 14.086c-.398-.235-.398-.706-.53-1.177h7.816c0-.825 0-1.65-.132-2.474-.133-1.295-.663-2.709-1.855-3.65-1.06-.943-2.65-1.297-4.24-1.179-1.987 0-4.107.354-5.564 1.65-1.325 1.295-1.723 3.062-1.59 4.828.132 1.531.662 3.18 2.12 4.24 1.457 1.178 3.577 1.414 5.432 1.414 1.722 0 3.445-.118 5.034-.707v-2.944c-1.325.588-2.782.706-4.24.706-.662-.118-1.59-.235-2.252-.707zm0-5.417c.397-.59 1.59-.59 1.987 0 .397.588.397 1.177.397 1.884H20.75c.133-.707.133-1.413.53-1.884zm-8.613-1.885c-1.192-1.178-3.18-1.531-4.77-1.06-.927.235-1.59.824-2.252 1.53V.66H.08v16.725h5.3v-2.12c.397.707.795 1.413 1.457 1.767 1.06.588 2.385.706 3.578.47 1.192-.235 2.252-.942 2.782-2.002.795-1.413 1.06-2.944 1.06-4.475 0-1.531-.398-3.062-1.59-4.24zm-4.77 6.713c-.397.59-1.457.59-1.855 0-.397-.589-.397-1.178-.397-1.884 0-.59 0-1.178.265-1.767 0-.353.265-.707.795-.824.53-.118 1.06.117 1.325.47.397.59.397 1.296.397 2.003 0 .707-.132 1.413-.53 2.002zM67.52 9.728c-.796-1.413-2.518-2.356-4.24-2.473-1.458-.118-2.916.117-4.108.942 0-.589.133-1.178.53-1.649.53-.824 1.457-1.178 2.385-1.296 1.59-.117 3.18.118 4.637.472V2.19c-1.855-.471-3.842-.471-5.697-.353-2.12.118-4.107.942-5.432 2.355-1.59 1.767-2.12 4.005-2.12 6.243 0 1.766.662 3.65 1.987 5.064 1.06 1.296 2.782 2.12 4.637 2.356 2.12.235 4.24-.118 5.963-1.296 1.192-.706 1.855-1.884 2.12-3.18 0-1.413 0-2.59-.663-3.65zm-5.036 3.887c-.53.824-2.12.942-2.782.235-.663-.588-.663-1.53-.53-2.237.133-.59.53-1.06 1.06-1.296.795-.236 1.855 0 2.252.589.663.824.663 1.884 0 2.709z"/></g><defs><clipPath id="clip0"><path fill="#fff" transform="translate(.08 .66)" d="M0 0h81.086v16.96H0z"/></clipPath></defs></svg>