<svg width="129" height="14" viewBox="0 0 129 14" fill="none" xmlns="http://www.w3.org/2000/svg"><g clip-path="url(#clip0)" fill="#32448C"><path d="M11.928 1.08h8.995l.234 2.717h-.534c-.2-1.135-.233-1.344-.7-1.792-.466-.448-1.365-.388-2.098-.388h-2.3a.585.585 0 0 0-.432.15c-.1.119-.167.268-.134.417V5.65h1c.5 0 1-.18 1.3-.508a2.335 2.335 0 0 0 .532-1.613h.534v4.869h-.534c-.033-.807-.2-1.374-.533-1.732-.366-.359-.866-.538-1.399-.538h-.933v3.913c0 .119.067.268.167.358a.92.92 0 0 0 .566.12h1.833c1.965 0 3.098-.568 3.398-2.838h.566l-.2 3.375h-9.329v-.538h.5c.234.03.467-.03.667-.149.133-.12.2-.269.2-.418V2.155a.525.525 0 0 0-.167-.419.997.997 0 0 0-.533-.149h-.666V1.08z"/><path d="M20.757 4.395h4.065v.478c-.3-.03-.633.03-.933.12a.324.324 0 0 0-.2.298c0 .09.033.209.067.299l1.965 3.942 1.833-3.823c.033-.06.033-.12.033-.209 0-.358-.366-.568-1.133-.657v-.478h3.099v.478c-.267 0-.533.09-.733.239-.2.12-.333.298-.433.508l-2.732 5.674h-.434L22.29 5.44a.887.887 0 0 0-.4-.448c-.367-.09-.733-.15-1.1-.12l-.033-.477zm11.662-.209a3.426 3.426 0 0 1 2.532.985 3.42 3.42 0 0 1 1.033 2.569c.033.657-.134 1.284-.467 1.881-.3.508-.733.926-1.3 1.225a3.928 3.928 0 0 1-1.832.448c-.933 0-1.832-.359-2.465-.986-1.333-1.493-1.333-3.614 0-5.107.633-.657 1.532-1.015 2.498-1.015zm0 .507c-.6 0-1.133.27-1.466.717-.367.478-.567 1.254-.567 2.27 0 1.045.2 1.822.567 2.33.3.448.866.746 1.466.746s1.166-.268 1.499-.746c.4-.478.566-1.285.566-2.39 0-1.045-.2-1.762-.566-2.24-.333-.418-.9-.687-1.5-.687z"/><path d="M38.416.96v9.14c0 .119.033.208.133.298.134.09.3.15.5.15h.467v.537h-3.599v-.538h.433c.2 0 .4-.03.533-.149.134-.12.2-.269.167-.448V2.334c.033-.18-.067-.388-.2-.508-.2-.15-.466-.239-.733-.239h-.666V1.05l2.965-.09zm3.798 3.315v4.42c-.033.449.134.897.467 1.255.3.299.733.448 1.166.448.6 0 1.133-.239 1.5-.657a2.272 2.272 0 0 0 .632-1.613V5.619a.67.67 0 0 0-.266-.537c-.333-.15-.7-.24-1.066-.21v-.507l2.632-.12v5.496c0 .209.066.418.233.597.2.15.433.21.666.21h.467v.477l-2.5.06-.166-1.314c-.366.418-.833.776-1.332 1.075-.4.239-.9.358-1.366.358-.633.03-1.233-.209-1.7-.597-.466-.388-.7-1.075-.7-2.03V5.678a.59.59 0 0 0-.333-.597c-.3-.12-.633-.18-.966-.15v-.508l2.632-.149zm7.929-2.598h.533v2.718h4.532v.657h-4.532v4.271c-.033.299.067.597.3.866.2.21.467.299.733.299.367 0 .7-.18.933-.448.3-.448.467-.956.433-1.494h.533c-.033.897-.266 1.554-.666 1.972-.4.418-1 .657-1.633.657a2.19 2.19 0 0 1-1.432-.448 1.56 1.56 0 0 1-.533-1.195v-4.48h-1.3v-.508c.533-.06 1-.298 1.333-.657.533-.657.8-1.433.766-2.21z"/><path d="M53.61 4.395l2.964-.09v5.735c0 .12.034.239.134.329.133.09.3.149.466.149h.533v.537h-3.632v-.537h.467c.2.03.366-.03.5-.15.133-.119.166-.268.166-.447V5.859a.644.644 0 0 0-.266-.598c-.2-.15-.5-.209-.767-.209h-.6v-.657h.034zm2.065-3.166c.233 0 .466.09.633.24a.773.773 0 0 1 .266.567c0 .209-.1.418-.266.567-.367.299-.9.299-1.266 0a.77.77 0 0 1 0-1.135c.2-.15.4-.239.633-.239zm5.764 2.957a3.427 3.427 0 0 1 2.532.985 3.42 3.42 0 0 1 1.033 2.569c.033.657-.133 1.284-.466 1.881-.3.508-.733.926-1.3 1.225a3.93 3.93 0 0 1-1.832.448c-.933 0-1.833-.359-2.466-.986-1.333-1.493-1.333-3.614 0-5.107.633-.657 1.566-1.015 2.499-1.015zm0 .507c-.6 0-1.133.27-1.466.717-.367.478-.566 1.254-.566 2.27 0 1.045.2 1.822.566 2.33.3.448.866.746 1.466.746s1.166-.268 1.5-.746c.4-.478.566-1.285.566-2.39 0-1.045-.2-1.762-.567-2.24-.3-.418-.9-.687-1.499-.687z"/><path d="M64.837 4.395l2.466-.15c.1.478.2.986.233 1.464.3-.448.7-.807 1.166-1.075.467-.24 1-.359 1.533-.359.433 0 .866.09 1.233.269.366.209.633.478.8.836.2.389.3.837.3 1.255V9.89a.571.571 0 0 0 .166.508c.166.12.4.18.6.15h.2v.537H70.3v-.538h.067c.267.03.5-.03.733-.149.133-.12.233-.269.2-.448V7.083c.033-.478-.1-.956-.333-1.374-.3-.418-.8-.657-1.366-.627-.6 0-1.133.239-1.5.657a2.31 2.31 0 0 0-.6 1.702v2.48a.516.516 0 0 0 .2.507c.167.12.4.179.634.15h.2v.537h-3.332v-.538h.2c.2 0 .433-.03.6-.15a.412.412 0 0 0 .2-.358V5.71c.033-.24-.067-.478-.267-.657a1.05 1.05 0 0 0-.733-.21h-.367v-.447zm18.392-2.479L83.895.87h.533l.3 4.212h-.5c-.4-1.195-.866-2.091-1.4-2.629-.566-.627-1.432-1.015-2.365-1.045-.666 0-1.333.18-1.866.538a3.27 3.27 0 0 0-1.232 1.553c-.334.836-.467 1.762-.434 2.658-.033.866.1 1.762.434 2.598a3.276 3.276 0 0 0 1.199 1.524 3.105 3.105 0 0 0 1.8.478c.799.06 1.565-.21 2.165-.687.5-.478.8-1.135.766-1.792v-.986a.413.413 0 0 0-.2-.359 1.26 1.26 0 0 0-.666-.119h-1v-.508h4.532v.508h-.334a.95.95 0 0 0-.632.15c-.134.089-.2.238-.2.417v4.003h-.534c-.2-.627-.4-1.225-.6-1.792-.332.537-.832.985-1.432 1.314a3.97 3.97 0 0 1-1.866.448 5.884 5.884 0 0 1-2.765-.687c-2.632-1.493-3.499-4.57-2-7.019a5.292 5.292 0 0 1 2.033-1.971c.766-.478 1.666-.717 2.599-.747.5 0 .966.06 1.433.24a3.91 3.91 0 0 1 1.566.746zm10.661 8.631l.134.21c0 .388-.5.328-.966.328-.367 0-1.067-.03-1.333-.18-.267-.149-.333-.358-.533-.806a4.543 4.543 0 0 1-1.333.956c-.433.18-.9.239-1.366.239-.633.03-1.233-.12-1.732-.448-.4-.269-.6-.687-.6-1.135 0-.687.466-1.284 1.366-1.732a10.769 10.769 0 0 1 3.632-.926V6.037c0-.358-.167-.687-.5-.925-.333-.27-.767-.389-1.233-.389-.4 0-.833.09-1.2.269-.233.12-.366.269-.366.388.033.12.1.24.2.329.133.15.2.328.233.508a.678.678 0 0 1-.233.537.855.855 0 0 1-.6.21c-.266 0-.5-.09-.666-.24a.91.91 0 0 1-.267-.627c0-.478.3-.896.9-1.284.7-.418 1.5-.627 2.332-.598.733-.03 1.433.15 2.033.508.433.299.7.777.7 1.255v3.614c0 .209.033.448.166.627.1.12.233.239.433.269.233.03.533.06.8.06zm-2.765-3.016c-1.332.179-2.299.448-2.865.806-.433.299-.666.747-.633 1.225-.033.328.1.627.333.866.233.209.533.299.833.299.633 0 1.2-.24 1.633-.628.466-.418.7-1.015.7-1.612V7.53z"/><path d="M93.624 4.394l2.132-.119c.1.478.2.956.234 1.404.3-.448.733-.807 1.199-1.105.4-.21.866-.329 1.333-.329.466-.03.9.12 1.266.359.4.328.666.716.766 1.194.3-.448.7-.866 1.166-1.165a3.008 3.008 0 0 1 1.433-.388c.566-.03 1.133.15 1.533.538.466.537.699 1.165.666 1.851V9.95c-.033.15.033.298.167.418.2.12.433.18.666.15h.333v.537h-3.731v-.538h.366c.233.03.466-.03.666-.15a.56.56 0 0 0 .2-.417V6.635a1.53 1.53 0 0 0-.4-1.165c-.266-.27-.666-.418-1.066-.418-.333 0-.633.09-.899.238-.267.18-.5.419-.633.687-.2.329-.3.687-.334 1.076V9.92c0 .15.034.328.167.448.167.09.333.15.533.15h.5v.537h-3.798v-.538h.433c.2 0 .433-.03.6-.15a.412.412 0 0 0 .2-.358V6.963c.033-.508-.1-.986-.4-1.434-.234-.298-.633-.448-1.033-.448-.5-.03-.966.18-1.3.508-.433.478-.666 1.075-.633 1.703V9.95c-.033.15.034.298.167.418.2.12.433.18.666.15h.4v.537h-3.765v-.538h.566c.167 0 .367-.03.5-.15a.52.52 0 0 0 .167-.358V5.65c.033-.21-.067-.388-.2-.538a1.576 1.576 0 0 0-.833-.239v-.478z"/><path d="M106.718 4.395l2.666-.09v5.735c0 .12.033.239.133.329.133.09.3.149.466.149h.833v.537h-4.564v-.537h1.099c.2.03.367-.03.5-.15.133-.119.166-.268.166-.447V5.739a.641.641 0 0 0-.266-.597c-.2-.15-.5-.21-.766-.21h-.3l.033-.537zm1.766-3.166c.233 0 .466.09.633.24a.77.77 0 0 1 .267.567c0 .209-.1.418-.267.567-.367.299-.9.299-1.266 0a.77.77 0 0 1 0-1.135c.2-.15.4-.239.633-.239z"/><path d="M110.583 4.395l2.466-.15c.1.478.2.986.233 1.464.3-.448.7-.807 1.166-1.075.466-.24 1-.359 1.533-.359.433 0 .866.09 1.232.269.367.209.633.478.8.836.2.389.3.837.3 1.255V9.89a.573.573 0 0 0 .166.508c.167.12.4.18.6.15h.233v.537h-3.298v-.538h.067c.266.03.499-.03.733-.149.133-.12.233-.269.199-.448V7.083c.034-.478-.099-.956-.333-1.374-.3-.418-.799-.657-1.366-.627-.599 0-1.133.239-1.499.657a2.312 2.312 0 0 0-.6 1.702v2.48a.518.518 0 0 0 .2.507c.167.12.4.179.6.15h.2v.537h-3.632v-.538h.5c.2 0 .433-.03.6-.15a.413.413 0 0 0 .199-.358V5.71c.034-.24-.066-.478-.266-.657a1.05 1.05 0 0 0-.733-.21h-.4l.1-.447zm14.427.358c.533-.478 1.999-1.195 2.499-1.195.266-.03.533.03.766.18.167.149-.133.507-.133.717a.753.753 0 0 1-.167.448.545.545 0 0 1-.399.179c-.3 0-.5-.18-.6-.508-.034-.15-.1-.21-.2-.21-.467.15-.933.39-1.3.688.2.209.367.478.467.747.1.209.133.448.133.657 0 .388-.1.776-.333 1.105a2.657 2.657 0 0 1-1.1.836 3.24 3.24 0 0 1-1.499.358h-.866c-.433-.03-.833.03-1.233.18-.2.12-.3.298-.3.507 0 .18.1.329.233.418.3.12.6.18.933.15l1.966-.03c1 0 1.699.15 2.133.448.433.269.699.747.666 1.224 0 .568-.267 1.076-.733 1.434-.7.538-1.733.836-3.099.836-1.133 0-1.999-.179-2.532-.567a1.24 1.24 0 0 1-.666-.986c0-.298.166-.567.4-.776a3.239 3.239 0 0 1 1.399-.508c-.433-.09-.833-.239-1.2-.508a1.036 1.036 0 0 1-.399-.836c0-.299.133-.567.333-.806.3-.27.7-.478 1.099-.598a2.532 2.532 0 0 1-.999-.806 1.867 1.867 0 0 1-.333-1.075c0-.628.299-1.225.833-1.613a3.567 3.567 0 0 1 2.199-.657c.366 0 .733.06 1.066.149.333.09.666.239.966.418zm-1.633 6.332c-.966 0-1.666.12-2.099.358-.366.18-.599.508-.633.867 0 .298.167.597.467.746.533.27 1.166.418 1.766.359.699.03 1.432-.09 2.065-.418.467-.27.7-.568.7-.896a.781.781 0 0 0-.2-.538c-.166-.18-.4-.329-.666-.388-.467-.06-.933-.12-1.4-.09zm-.466-6.451c-.433 0-.866.149-1.166.478-.333.358-.5.836-.467 1.314-.033.508.134.985.467 1.404.533.567 1.532.657 2.165.149.067-.06.134-.09.167-.15.333-.388.5-.895.467-1.373a1.757 1.757 0 0 0-.467-1.315c-.266-.328-.7-.507-1.166-.507z"/><path d="M127.775 3.618c.233 0 .467.09.633.24a.774.774 0 0 1 .267.567c0 .209-.1.418-.267.567a1.006 1.006 0 0 1-1.266 0 .77.77 0 0 1 0-1.135c.2-.179.4-.239.633-.239zM8.763 11.145h-.167v-.24h.234c.033.03.066.06.066.09.034.09-.033.12-.133.15 0-.03 0-.03 0 0zm.3-.12c0-.06-.034-.15-.1-.179-.067-.06-.167-.06-.267-.06H8.43v.777h.166v-.299h.134l.166.299h.167l-.2-.299c.166-.06.233-.15.2-.239zm-.3.747c-.367 0-.666-.269-.666-.598 0-.328.3-.597.666-.597.366 0 .666.269.666.598 0 .328-.3.597-.666.597zm0-1.344c-.467 0-.833.328-.833.746 0 .419.366.747.833.747.466 0 .833-.328.833-.746 0-.419-.4-.747-.833-.747zM0 .75c3.965-1.91 9.096.09 9.462 4.93C2.132 6.187 1.232 3.229 0 .75z"/><path d="M0 11.085c3.965 1.912 9.063-.12 9.462-4.928-7.33-.538-8.23 2.45-9.462 4.928z"/><path d="M8.096 2.245C6.197.035 2.732-.623 0 .75c1.1 2.211 1.932 4.84 7.363 4.99a4.97 4.97 0 0 0 .733-3.494zM1.333 8.636c.166 0 .3.03.466.03 2.133 0 4.098-.956 5.298-2.539-3.265.15-4.798 1.195-5.764 2.51z"/></g><defs><clipPath id="clip0"><path fill="#fff" transform="translate(0 .034)" d="M0 0h128.675v13.888H0z"/></clipPath></defs></svg>