<svg width="77" height="17" viewBox="0 0 77 17" fill="none" xmlns="http://www.w3.org/2000/svg"><g clip-path="url(#clip0)" fill="#32448C"><path d="M9.44.045C4.226.045 0 3.833 0 8.522c0 .839.139 1.662.416 2.454.173-.218.346-.435.502-.653.658-.87 1.299-1.739 1.94-2.624l.468-.667c.155-.218.311-.45.45-.668.312-.45.606-.9.883-1.35a14.9 14.9 0 0 1 .433-.684c.156-.233.277-.45.416-.683.138-.233.277-.466.398-.683l.381-.699.035-.046c.208-.373.71-.528 1.143-.357.312.155.502.45.485.776 0 .404-.087.823-.121 1.226-.035.404-.052.823-.087 1.243A59.432 59.432 0 0 0 7.69 7.59c0 .823.052 1.646.139 2.437.052.389.121.777.208 1.165.069.341.19.683.363.994.052.093.122.186.208.264.052.03.018.015.052.015h.035l.034-.015h.018l.052-.016c.017-.016.052-.031.069-.047a2.41 2.41 0 0 0 .381-.326c.277-.295.537-.59.762-.916.243-.326.468-.683.693-1.04a35.23 35.23 0 0 0 1.264-2.19c.19-.372.399-.744.59-1.117.19-.373.38-.76.553-1.134.174-.388.676-.574 1.109-.419.277.093.468.31.52.575 0 .093.017.217.034.341l.035.357c.035.233.07.466.121.7.087.465.19.93.33 1.381.138.45.311.9.519 1.335.208.435.468.839.797 1.211.069.093.052.218-.035.28-.087.062-.208.062-.277 0a6.844 6.844 0 0 1-1.143-1.15c-.33-.418-.607-.869-.866-1.319-.174-.31-.312-.621-.468-.932-.104.187-.19.373-.294.544-.416.76-.832 1.521-1.317 2.282-.225.373-.467.746-.745 1.118a9.896 9.896 0 0 1-.917 1.103c-.191.201-.416.372-.641.543-.07.047-.139.093-.226.124l-.155.078-.087.03h-.017l-.052.016H9.3l-.07.016c-.051.016-.086.031-.138.031l-.312.047a1.964 1.964 0 0 1-.675-.078 1.954 1.954 0 0 1-.572-.295 2.456 2.456 0 0 1-.64-.73 5 5 0 0 1-.52-1.382 11.673 11.673 0 0 1-.225-1.32 26.034 26.034 0 0 1-.156-2.592V6.333c-.173.295-.347.59-.52.87a15.23 15.23 0 0 1-.433.698l-.433.699a70.788 70.788 0 0 1-1.836 2.764 63.95 63.95 0 0 1-1.23 1.754c2.858 3.913 8.713 5 13.077 2.438 4.365-2.562 5.577-7.81 2.72-11.723C15.588 1.49 12.626.045 9.44.045zm17.615 11.521V5.945h-.156l-2.01 5.62h-.502l-2.009-5.62h-.156v5.62h-.831v-6.21h1.472l1.784 4.937 1.75-4.937h1.489v6.226h-.831v-.015zm2.043-5.404v-.807H30v.807h-.9zm.018 5.404V6.768h.883v4.798h-.883zm6.235-1.569c0 .932-.398 1.646-2.13 1.646-2.183 0-2.304-1.118-2.304-2.484 0-1.366.121-2.484 2.303-2.484 1.733 0 2.131.714 2.131 1.645h-.831c0-.76-.295-1.133-1.3-1.133-1.35 0-1.42.652-1.42 1.956 0 1.304.07 1.957 1.42 1.957 1.005 0 1.3-.373 1.3-1.134l.831.031zm1.714-2.717c.416-.233.953-.543 1.455-.559.104-.015.208-.015.312-.015.139 0 .26 0 .416.015l-.07.575c-.138-.016-.26-.016-.38-.016a2.4 2.4 0 0 0-.33.016c-.467.015-.97.326-1.333.512v3.773h-.884V6.768h.693l.121.512zm7.136 1.894c0 1.367-.121 2.485-2.338 2.485s-2.338-1.118-2.338-2.485c0-1.366.12-2.484 2.338-2.484 2.217 0 2.338 1.118 2.338 2.484zm-3.793 0c0 1.305.07 1.957 1.455 1.957 1.386 0 1.455-.637 1.455-1.957s-.07-1.956-1.455-1.956c-1.386 0-1.455.637-1.455 1.956zm5.404 3.509c.33.031.762.047 1.247.047 1.351 0 1.525-.326 1.542-1.6-.398.202-.953.435-1.524.45-1.957.032-2.079-.915-2.079-2.406 0-1.49.104-2.484 1.992-2.484.641 0 1.23.264 1.697.528l.087-.435h.693v4.254c0 1.724-.433 2.252-2.2 2.252-.52 0-1.039-.047-1.541-.109l.086-.497zm2.789-5.03c-.381-.218-.866-.435-1.334-.435-1.299 0-1.385.652-1.385 1.956 0 1.274.086 1.879 1.385 1.879.468 0 .97-.233 1.334-.404V7.653zm5.664 3.912l-.086-.434c-.434.248-1.005.528-1.629.528-1.957.03-2.078-.963-2.078-2.485 0-1.521.104-2.484 2.044-2.484.64 0 1.212.264 1.645.497l.087-.42h.693v4.798h-.676zm-.173-3.943c-.364-.187-.866-.404-1.334-.404-1.299 0-1.385.652-1.385 1.956 0 1.305.086 1.957 1.385 1.957.468 0 .953-.233 1.334-.435V7.622zm2.718-.435c.4-.217.936-.481 1.508-.497.9-.03 1.368.187 1.593.528.416-.233.97-.512 1.576-.528 1.836-.046 1.94.792 1.94 1.957v2.919h-.883V8.693c0-.994-.07-1.475-1.265-1.475-.433 0-.883.233-1.247.435.087.341.122.699.104 1.056v2.872h-.762V8.693c0-.994-.07-1.475-1.264-1.475-.416 0-.866.233-1.213.404v3.944h-.883V6.768h.693l.104.42zm7.725-1.025v-.807h.901v.807h-.9zm.018 5.404V6.768h.883v4.798h-.883zm2.754-4.379c.433-.217 1.005-.481 1.628-.497 1.957-.046 2.079.792 2.079 1.957v2.919h-.884V8.693c0-.994-.086-1.475-1.385-1.475-.468 0-.97.233-1.334.42v3.943h-.883V6.768h.692l.087.42zm5.421 5.496c.33.031.762.047 1.247.047 1.351 0 1.524-.326 1.542-1.6-.399.202-.953.435-1.524.45-1.958.032-2.079-.915-2.079-2.406 0-1.49.104-2.484 1.992-2.484.64 0 1.23.264 1.697.528l.087-.435h.693v4.254c0 1.724-.433 2.252-2.2 2.252-.52 0-1.04-.047-1.542-.109l.087-.497zm2.771-5.03c-.38-.218-.866-.435-1.333-.435-1.3 0-1.386.652-1.386 1.956 0 1.274.087 1.879 1.386 1.879.467 0 .97-.233 1.333-.404V7.653z"/></g><defs><clipPath id="clip0"><path fill="#fff" transform="translate(0 .045)" d="M0 0h76.365v16.924H0z"/></clipPath></defs></svg>