<svg width="91" height="22" viewBox="0 0 91 22" fill="none" xmlns="http://www.w3.org/2000/svg"><path d="M32.839 6.066c-1.053 0-2.08.271-2.896.766-1.118.66-1.803 1.707-1.776 2.743-.013 1.837-.013 5.205-.013 6.276h2.553v-3.58l.5.154a6.869 6.869 0 0 0 2.026.318 5.07 5.07 0 0 0 1.777-.306c1.04-.377 1.842-1.166 2.184-2.108.316-1.036.066-2.131-.644-2.85-.895-.894-2.238-1.413-3.711-1.413zm2.342 3.721v.024c-.21.836-1.08 1.4-2.185 1.4-1.052 0-1.92-.505-2.21-1.283a1.112 1.112 0 0 1 .092-1.012c.237-.424.71-.765 1.237-.918.237-.083.513-.118.79-.118.723 0 1.434.27 1.855.694.342.354.487.766.42 1.213zm4.435 2.12c.895.683 2.092 1.048 3.342 1.048.316 0 .619-.024.922-.071h.078c.895 0 1.817.012 2.698.012h.777c-.014-.53 0-1.06 0-1.578 0-.624 0-1.272-.014-1.896 0-.73-.407-1.495-1.105-2.107-.895-.79-2.198-1.249-3.553-1.249-1.105 0-2.158.307-2.987.848-.961.624-1.514 1.578-1.474 2.496v.024c-.053.895.447 1.813 1.316 2.473zm.881-2.897c.237-.47.764-.871 1.33-1.012a2.61 2.61 0 0 1 .816-.13c1.092 0 2.237.636 2.263 1.707v.047c-.118.766-.908 1.602-2.33 1.602-.92 0-1.71-.412-2.065-1.06-.198-.341-.198-.765-.014-1.154zm18.898 6.853h1.684v-3.591l.5.176c.619.212 1.303.33 1.961.33 1.25 0 2.356-.389 3.119-1.083 1.158-1.025 1.382-2.708.513-3.85-.816-1.107-2.303-1.755-3.974-1.755-.842 0-1.671.177-2.382.506-1.171.518-2.33 1.66-2.277 3.026.014.942.014 1.896 0 2.815a75.727 75.727 0 0 0 .014 3.461c.25-.035.513-.035.842-.035zm1.882-6.959c.263-.447.763-.8 1.329-.918.226-.063.46-.095.697-.094.698 0 1.408.259 1.843.682.342.342.513.754.46 1.201v.048c-.224.847-1.105 1.413-2.21 1.413-1 0-1.856-.471-2.185-1.202-.184-.365-.145-.765.066-1.13zm12.567 3.132c.632.4 1.645.872 2.83.872h.184a57.088 57.088 0 0 1 2.171-.036h2.435a37.09 37.09 0 0 1 0-1.707c0-.577.013-1.166 0-1.743-.013-.789-.474-1.601-1.264-2.237-.895-.706-2.132-1.107-3.408-1.107-1.092 0-2.145.295-2.974.848-.96.624-1.527 1.578-1.487 2.508v.024c-.04.941.54 1.93 1.513 2.578zm.698-3.014c.236-.483.763-.883 1.355-1.024.237-.083.5-.118.79-.118.724 0 1.434.27 1.855.718.33.353.46.777.382 1.225v.023c-.303.966-1.356 1.39-2.277 1.39-.92 0-1.71-.4-2.066-1.049-.237-.364-.237-.777-.04-1.165zm-5.751 3.85c.013-1.66.013-3.344 0-4.969V4.041c.513-.011 1.013-.011 1.395-.011h1.158v3.555c-.013 1.731-.013 3.521.013 5.287h-2.566zM53.197 7.903c-.606 0-1.145.165-1.553.483-.303.2-.645.6-.619 1.401v3.12h-2.58c0-.73 0-2.496.014-3.485.013-.765.46-1.578 1.224-2.202.895-.73 2.158-1.154 3.461-1.154.224 0 .434.012.645.036l.026 1.86a2.753 2.753 0 0 0-.618-.059zm1.75-1.813H57.5v1.813h-2.553V6.09zm33.07.506h2.145v7.242c-.197 1.06-.868 1.943-1.79 2.378-.907.448-2 .695-3.184.695a8.73 8.73 0 0 1-.96-.047c.026-.636.013-1.26 0-1.837.24.023.481.035.723.035 1 0 1.83-.223 2.461-.67.658-.437.645-1.214.645-1.46v-.378l-.421.047-.132.012c-.368.035-.737.083-1.092.083-.316 0-.58-.036-.83-.095h-.026c-1.395-.306-2.526-1.377-2.829-2.673-.118-.423-.092-2.119-.053-3.32h2.224c-.013.695-.026 2.284.04 3.191.053.66.75 1.225 1.513 1.225.158 0 .303-.024.435-.071.657-.188 1.131-.765 1.118-1.39.026-.835.026-2.307.013-2.967zm-33.07 2.332H57.5v3.956h-2.553V8.928z" fill="#32448C"/><path d="M70.211 4.109h1.158v3.556c-.013 1.73-.013 3.52.013 5.287H68.83a314.1 314.1 0 0 0 0-4.97v-3.86c.487-.012.988-.012 1.382-.012zm-7 2.025c1.67 0 3.145.66 3.974 1.755.868 1.142.644 2.825-.514 3.85-.763.706-1.868 1.083-3.119 1.083a6.153 6.153 0 0 1-1.96-.33l-.5-.176v3.591h-2.527a75.79 75.79 0 0 1-.013-3.462c.013-.918.013-1.872 0-2.814-.053-1.366 1.105-2.496 2.276-3.026a6.31 6.31 0 0 1 2.382-.47zm.17 5.181c1.106 0 1.987-.565 2.211-1.413v-.047c.04-.447-.118-.86-.46-1.201-.435-.424-1.132-.683-1.843-.683-.25 0-.473.035-.697.094-.553.118-1.066.471-1.33.919-.21.365-.236.765-.078 1.13.342.718 1.197 1.201 2.197 1.201zm-10.225-5.18c.224 0 .434.011.645.035l.026 1.86a3.75 3.75 0 0 0-.618-.047c-.606 0-1.145.165-1.553.483-.303.2-.645.6-.618 1.4v3.121h-2.58c0-.73 0-2.496.014-3.485.013-.766.46-1.578 1.223-2.202.895-.742 2.158-1.166 3.461-1.166zm-20.305.011c1.474 0 2.816.518 3.685 1.425.71.718.96 1.813.644 2.85-.342.941-1.158 1.73-2.184 2.107-.54.2-1.132.306-1.777.306a6.866 6.866 0 0 1-2.026-.318l-.5-.153v3.58H28.14c0-1.072 0-4.451.013-6.276-.026-1.037.658-2.085 1.776-2.744.843-.506 1.869-.777 2.922-.777zm.158 5.157c1.105 0 1.974-.565 2.184-1.401v-.023c.053-.448-.092-.86-.42-1.201-.422-.424-1.133-.695-1.856-.695-.29 0-.553.035-.79.118-.526.14-1 .494-1.237.918-.184.33-.224.683-.092 1.013.29.765 1.158 1.271 2.21 1.271zm43.795-5.157c1.277 0 2.514.4 3.409 1.107.79.636 1.25 1.448 1.263 2.237a38.06 38.06 0 0 1 0 1.743v1.707H79.04c-.868 0-1.54.012-2.171.035h-.184c-1.185 0-2.198-.47-2.83-.871-.986-.648-1.566-1.637-1.513-2.59V9.49c-.053-.93.526-1.884 1.487-2.508.816-.542 1.869-.836 2.974-.836zm-.17 5.18c.92 0 1.973-.435 2.276-1.389v-.023c.079-.448-.053-.871-.382-1.225-.42-.447-1.132-.718-1.855-.718-.277 0-.54.047-.79.118-.579.141-1.105.541-1.355 1.024a1.22 1.22 0 0 0 .013 1.166c.382.636 1.171 1.048 2.092 1.048zm-33.86-5.18c1.355 0 2.657.447 3.552 1.248.698.612 1.106 1.378 1.106 2.108.013.636.013 1.271.013 1.895v1.578h-.776c-.882 0-1.79 0-2.698-.011h-.08c-.302.047-.618.07-.92.07-1.264 0-2.448-.377-3.343-1.048-.868-.66-1.369-1.578-1.33-2.46v-.024c-.039-.919.514-1.872 1.475-2.496.829-.554 1.895-.86 3-.86zm-.185 5.18c1.421 0 2.198-.823 2.33-1.6v-.048c-.027-1.071-1.172-1.707-2.264-1.707-.29 0-.566.047-.816.13-.566.14-1.092.541-1.33 1.012-.197.389-.197.8.014 1.166.355.636 1.145 1.048 2.066 1.048zM57.512 6.17v1.813H54.96V6.17h2.553zm32.662.506v7.241c-.197 1.06-.868 1.943-1.79 2.379-.907.447-2 .694-3.184.694a8.56 8.56 0 0 1-.96-.047c.026-.636.013-1.26 0-1.837.24.024.482.035.723.036 1 0 1.83-.224 2.461-.671.658-.436.645-1.213.645-1.46v-.377l-.421.047-.132.012c-.368.035-.737.082-1.092.082-.316 0-.579-.035-.829-.094h-.026c-1.395-.306-2.527-1.378-2.83-2.673-.118-.424-.092-2.12-.052-3.32h2.224c-.013.694-.027 2.284.04 3.19.052.66.75 1.225 1.513 1.225.157 0 .302-.024.434-.07.658-.189 1.132-.766 1.118-1.39.013-.836.013-2.308.013-2.967h2.145zM57.512 9.007v3.957H54.96V9.006h2.553zm12.7-5.228c-.382 0-.882 0-1.409.012h-.368v9.502h3.303v-.341c-.026-1.767-.013-3.556-.013-5.275 0-1.166.013-2.367 0-3.556v-.33h-.75c-.264-.012-.514-.012-.764-.012zM63.21 5.805c-.908 0-1.79.188-2.553.541-1.276.565-2.54 1.814-2.487 3.332.013.93 0 1.884 0 2.803a77.267 77.267 0 0 0 .013 3.485l.013.33h3.264v-3.45a6.575 6.575 0 0 0 2.092.341c1.356 0 2.554-.424 3.383-1.189 1.29-1.13 1.54-3.014.565-4.274-.894-1.213-2.5-1.92-4.29-1.92zm.171 5.169c-.842 0-1.566-.389-1.829-.99a.889.889 0 0 1 .066-.847c.21-.365.618-.648 1.08-.754h.025a2.36 2.36 0 0 1 .58-.082c.605 0 1.197.224 1.565.577.277.27.395.588.369.942-.184.694-.921 1.154-1.856 1.154zm-10.225-5.17c-1.395 0-2.75.448-3.71 1.249-.843.694-1.33 1.577-1.343 2.437-.013.989-.013 2.767-.013 3.485v.33h3.316v-3.45c-.013-.518.145-.907.474-1.119l.013-.011.013-.012c.342-.26.79-.4 1.316-.4.184 0 .368.011.553.047l.447.07v-.412l-.026-1.86v-.295l-.33-.035c-.25-.012-.486-.023-.71-.023zm-20.305 0c-1.132 0-2.224.295-3.106.825-1.224.718-1.96 1.884-1.948 3.026-.013 1.837-.013 5.263-.013 6.276v.33h3.29v-3.439a7.294 7.294 0 0 0 2.145.342c.685 0 1.33-.118 1.922-.33 1.131-.412 2.026-1.272 2.395-2.308v-.023c.342-1.143.066-2.355-.724-3.156-.934-.977-2.382-1.542-3.961-1.542zm.158 5.17c-.895 0-1.619-.412-1.856-1.048-.105-.248-.079-.507.066-.766.197-.341.579-.624 1.013-.741h.027a1.96 1.96 0 0 1 .658-.095c.618 0 1.224.224 1.579.577.263.271.381.589.329.942-.158.671-.895 1.13-1.816 1.13zm43.795-5.158c-1.17 0-2.303.318-3.198.907-1.052.683-1.684 1.754-1.631 2.79-.053 1.06.579 2.167 1.658 2.873.684.436 1.763.943 3.053.943h.197c.619-.024 1.29-.036 2.158-.036h2.817l-.014-.341a37.09 37.09 0 0 1 0-1.708c0-.577.014-1.165 0-1.754-.013-.883-.526-1.79-1.394-2.484-.948-.754-2.29-1.19-3.646-1.19zm-.17 5.17c-.777 0-1.435-.33-1.725-.872a.915.915 0 0 1-.013-.883c.198-.389.632-.718 1.105-.836h.027a1.96 1.96 0 0 1 .658-.106c.618 0 1.21.224 1.566.6.263.271.355.6.29.954-.237.789-1.132 1.142-1.909 1.142zm-33.86-5.17c-1.185 0-2.33.33-3.212.919-1.052.683-1.671 1.754-1.618 2.779-.053.977.5 2.001 1.46 2.731.974.73 2.237 1.13 3.593 1.13.329 0 .658-.023.987-.07.895 0 1.816.012 2.698.012h1.158v-.342c-.014-.53 0-1.06 0-1.566 0-.624 0-1.271-.014-1.907 0-.813-.447-1.672-1.223-2.343-.987-.86-2.382-1.343-3.83-1.343zm-.185 5.17c-.776 0-1.434-.33-1.724-.872a.882.882 0 0 1 0-.883c.197-.389.618-.706 1.092-.824h.027c.21-.07.434-.106.684-.106.908 0 1.869.518 1.895 1.39-.118.611-.777 1.294-1.974 1.294zm15.292-5.158h-3.29v2.473h3.29V5.828zm32.675.518h-2.882v.33c0 .612 0 2.12-.013 2.955.013.471-.355.919-.855 1.06a.98.98 0 0 1-.316.047c-.566 0-1.106-.424-1.145-.918-.066-.907-.053-2.508-.04-3.156v-.341h-2.974l-.013.33c-.013.47-.092 2.825.066 3.414.329 1.413 1.58 2.59 3.106 2.932.276.07.579.106.934.106.382 0 .763-.047 1.145-.083l.132-.011c0 .365-.04.894-.5 1.189-.58.4-1.33.6-2.238.6a6.87 6.87 0 0 1-.684-.035l-.421-.047.013.388a41.61 41.61 0 0 1 0 1.814l-.013.306.342.035c.329.036.671.059 1 .059 1.237 0 2.409-.259 3.37-.73 1.026-.483 1.763-1.46 1.986-2.614v-7.63zm-32.675 2.32h-3.29v4.615h3.29V8.666zm-32.74-.433c-1.316-5.77-9.08-9.75-15.686-7.359C2.02 3.57-.81 8.739.519 14.05c1.343 5.345 7.738 8.783 14.726 7.512 7.001-1.284 11.212-7.56 9.896-13.33zM14.93 20.149a13.721 13.721 0 0 1-4.698.047c-.04-1.708.013-3.415-.026-5.122.105.035 1.184.341 1.684.412 2.961.377 6.29-.436 8.041-2.696.368-.565.684-1.154.855-1.79.553-2.178-1.092-4.25-2.013-5.016-3.435-2.767-9.594-2.508-12.291.99-.461.611-.71 1.33-.908 2.036 0 0-.014 8.501.065 9.36 0 0-.013 0-.013.013-1.724-1.178-2.96-2.814-3.448-4.734C1.02 9.057 3.467 4.571 9.915 2.24 15.64.168 22.365 3.607 23.51 8.61c1.145 5.005-2.526 10.433-8.58 11.54zm-4.658-10.42c.026-.095.092-.283.131-.366.921-1.766 3.79-2.013 5.383-.847.29.247.552.53.736.847.04.095.119.271.158.365a1.953 1.953 0 0 1-.605 1.873c-1.382 1.248-3.882 1.177-5.198-.118-.263-.248-.434-.565-.566-.883a2.153 2.153 0 0 1-.04-.872z" fill="#32448C"/><path d="M12.336 21.985c-5.804 0-10.791-3.143-11.989-7.9-.684-2.732-.276-5.393 1.198-7.69C3.098 3.983 5.809 2.016 9.388.722c3.145-1.142 6.777-.919 9.962.612 3.106 1.495 5.343 4.062 5.988 6.876.645 2.85-.027 5.934-1.856 8.478-1.895 2.637-4.803 4.439-8.185 5.051-1.014.165-2 .247-2.961.247zM13.56.332c-1.384 0-2.755.236-4.04.695C2.585 3.535-.72 8.397.703 14.014c1.158 4.604 6 7.642 11.633 7.642.947 0 1.908-.083 2.882-.26 3.277-.6 6.093-2.343 7.935-4.898 1.777-2.472 2.435-5.463 1.803-8.23-.619-2.72-2.79-5.193-5.79-6.64A12.975 12.975 0 0 0 13.56.331zm-1.145 20.217c-.75 0-1.5-.059-2.224-.189l-.145-.023v-.141c-.013-.86-.013-1.731-.013-2.58 0-.835.013-1.694-.013-2.542v-.236l.25.07c.184.06 1.184.342 1.658.401 3.224.412 6.303-.624 7.856-2.625.29-.448.658-1.06.816-1.731.5-1.967-.895-3.98-1.96-4.851-1.712-1.366-4.199-2.037-6.646-1.778-2.277.235-4.185 1.212-5.356 2.743-.448.6-.685 1.307-.869 1.966 0 .471-.013 8.502.066 9.326l.013.2-.132-.012-.065.07-.145-.093c-1.816-1.248-3.027-2.92-3.514-4.84-.592-2.378-.237-4.686 1.04-6.676C4.374 4.912 6.73 3.205 9.835 2.075c2.738-.99 5.883-.8 8.646.53 2.698 1.295 4.646 3.52 5.199 5.97 1.197 5.286-2.79 10.655-8.712 11.738-.856.154-1.711.236-2.553.236zm-2.014-.495c1.461.224 2.975.2 4.488-.07 5.724-1.048 9.58-6.24 8.422-11.34-.54-2.342-2.408-4.485-5-5.733-2.659-1.284-5.699-1.46-8.33-.518-6.002 2.166-8.844 6.37-7.62 11.22.434 1.732 1.5 3.25 3.08 4.428-.067-1.802-.054-8.701-.054-9.02v-.035c.198-.694.448-1.436.935-2.096 1.25-1.613 3.237-2.637 5.632-2.884 2.566-.271 5.159.424 6.949 1.86.973.8 2.645 2.908 2.066 5.18-.185.707-.566 1.355-.869 1.838-1.645 2.12-4.87 3.202-8.225 2.778-.395-.047-1.092-.235-1.474-.341a69.01 69.01 0 0 1 0 2.32 74.653 74.653 0 0 0 0 2.413zm3.146-7.394h-.08c-1.065-.024-2.066-.412-2.737-1.06-.25-.235-.434-.53-.605-.93l-.013-.024a2.624 2.624 0 0 1-.053-.941V9.68l.132-.389c.42-.8 1.237-1.354 2.29-1.566 1.197-.235 2.487.012 3.382.672.355.306.605.588.79.894l.012.012c.04.094.119.271.158.365l.014.024a2.079 2.079 0 0 1-.659 2.025c-.644.6-1.605.942-2.632.942zm-3.054-2.096c.145.353.316.612.514.813.605.588 1.5.941 2.474.953.947.024 1.842-.294 2.46-.847a1.812 1.812 0 0 0 .553-1.708c-.04-.094-.118-.259-.145-.341a2.939 2.939 0 0 0-.697-.79c-.79-.576-1.96-.812-3.04-.588-.934.189-1.658.671-2.027 1.378l-.118.341c-.066.212-.04.471.026.79z" fill="#32448C"/></svg>