<svg width="91" height="18" viewBox="0 0 91 18" fill="none" xmlns="http://www.w3.org/2000/svg"><path d="M9.906 4.918l1.35.015v6.518h7.552l-.017 1.178H9.923l-.017-7.71zm18.704.03h1.6l3.184 3.475 3.168-3.475h1.617L34.06 9.75v2.878h-1.333V9.751L28.61 4.948zm9.652 1.104c0-.642.767-1.104 1.517-1.119 1.784 0 5.935-.03 6.218.045.55.134 1.017.552 1.134 1.059.066.238.033.73.033.73H45.78v-.551c0-.105-.183-.12-.3-.12h-5.584c-.167-.014-.317.12-.3.269v1.551c-.017.15.133.284.3.284h5.818c.783.044 1.45.656 1.45 1.357v1.7c-.017.537-.433 1.044-.984 1.238-.316.12-4.55.12-6.35.12-.618-.015-1.218-.344-1.468-.866-.15-.313-.133-.999-.133-.999h1.35s-.083.522.167.686h5.784c.134 0 .284-.104.267-.224V9.87c0-.164.033-.343-.083-.477a1.442 1.442 0 0 0-.367-.045h-5.535c-.733 0-1.55-.388-1.55-1.119.017-.313 0-2.177 0-2.177zm19.454-1.119h1.634l5.918 6.115V4.933l1.367.015-.034 7.681h-1.55L59.066 6.5l-.016 6.13h-1.334V4.933zM9.273 6.275c-.017-.73-.784-1.327-1.567-1.327H.37v7.666h1.317L1.72 9.84l5.918.015c.85 0 1.634-.582 1.634-1.342V6.275zm-1.35 2.208c0 .134-.134.224-.284.224H1.904c-.1-.03-.2-.105-.183-.224V6.305c0-.149.183-.208.333-.208h5.602c.166 0 .266.119.266.253v2.133zM28.46 6.32c0-.746-.584-1.387-1.15-1.387h-6.235c-.8.015-1.517.627-1.517 1.342v6.34h1.334V9.93h6.218v2.103l.033.582h1.3l.017-1.507s-.017-3.192 0-4.788zm-1.35 2.446h-6.218V6.365c-.034-.15.117-.283.283-.268h5.651a.247.247 0 0 1 .267.268c.017.805.017 2.401.017 2.401zm29.756 2.193c0-.985-.017-4.251-.017-4.907 0-.612-.8-1.104-1.517-1.119h-5.818c-.683 0-1.567.746-1.567 1.268v5.056c.017.731.767 1.343 1.567 1.357h5.752c.65 0 1.283-.387 1.5-.94.117-.223.1-.476.1-.715zm-1.5.492H49.48c-.1 0-.183-.12-.167-.224V6.246c.034-.09 0-.21.35-.21h5.552c.166 0 .3.06.3.21v4.981c.016.105-.034.224-.15.224zM70.753.741l6.768 2.76-6.768 2.774V.74z" fill="#32448C"/><path d="M77.52 3.502l6.75 2.758-6.75 2.76V3.5zm-6.767 2.773L77.52 9.02l-6.768 2.744V6.275zM90.89 8.99l-6.618 2.789V6.26l6.618 2.73z" fill="#32448C"/><path d="M84.271 11.78l-6.751 2.759v-5.52l6.751 2.76z" fill="#32448C"/><path d="M77.52 14.538l-6.767 2.744v-5.518l6.768 2.774z" fill="#32448C"/></svg>