<svg width="92" height="36" viewBox="0 0 92 36" fill="none" xmlns="http://www.w3.org/2000/svg"><path d="M72.483 35.587c-7.617 0-13.813-5.544-13.813-12.359 0-6.814 6.196-12.358 13.813-12.358 7.616 0 13.813 5.544 13.813 12.358 0 6.815-6.197 12.36-13.813 12.36zm0-23.197c-6.678 0-12.122 4.863-12.122 10.846s5.435 10.846 12.122 10.846c6.686 0 12.122-4.863 12.122-10.846S79.161 12.39 72.483 12.39z" fill="#32448C"/><path d="M68.96 8.14c0 .03-.043.037-.052.007-.38-1.483-3.82-7.677-4.176-7.556-.405.128.338 6.49.88 8.365.008.03-.034.038-.051.015-2.401-3.426-5.165-3.358-5.698-3.29-.034.007-.034.045-.008.053 3.313 1.528 4.911 5.892 5.063 6.323.009.015.026.023.051.015 1.843-.998 3.956-1.634 6.222-1.815.017 0 .034-.015.025-.03-.101-.386-1.057-4.395.778-7.178.017-.023-.009-.053-.034-.046-.473.144-2.9 1.438-3 5.136zm2.854 6.967c.577-1.372 2.833-1.882 5.033-1.14 2.2.741 3.518 2.457 2.94 3.828-.577 1.371-2.832 1.882-5.032 1.14s-3.519-2.457-2.941-3.828zM6.099 26.504v-6.248h1.885c.668 0 1.285.144 1.623.37.567.386.719 1.052.719 1.438 0 .582-.22.938-.44 1.195-.186.211-.66.408-.98.522.43.56 1.732 2.806 1.732 2.806H9.1S7.654 23.97 7.51 23.97h-.228v2.534H6.1zm1.784-5.159h-.6v1.43h.6c.38 0 .591-.06.803-.19.211-.128.321-.302.321-.521 0-.22-.102-.394-.313-.522-.211-.129-.422-.197-.811-.197zM.646 26.504v-6.248h1.886c.667 0 1.284.144 1.623.37.566.386.718 1.052.718 1.438 0 .93-.676 1.58-1.319 1.732-.71.166-1.724.174-1.724.174v2.534H.646zm1.793-5.159h-.6v1.43h.6c.38 0 .591-.06.803-.19.211-.128.32-.302.32-.521 0-.22-.1-.394-.312-.522-.211-.129-.423-.197-.811-.197zm59.977 5.242v-6.248h1.97c.667 0 1.284.144 1.622.37.567.387.719 1.052.719 1.438 0 .582-.22.938-.44 1.195-.186.212-.66.408-.98.522-.423.144-1.53.113-1.53.113l-.009 2.617h-1.352v-.007zm1.876-5.159h-.516v1.43h.516c.38 0 .592-.06.803-.19.212-.128.322-.302.322-.521 0-.22-.102-.393-.313-.522-.212-.136-.423-.197-.812-.197zm-38.632-.31l-.921.81c-.558-.462-1.429-.863-2.164-.863-.33 0-.643.053-.93.16-.288.105-.55.249-.77.445-.22.19-.388.431-.515.726-.127.296-.195.62-.195.969 0 .696.22 1.255.66 1.679.44.43 1.023.643 1.741.643a2.4 2.4 0 0 0 1.454-.462c.237-.174.524-.325.651-.824l-2.088-.008-.017-1.074h3.61c0 1.165-.237 1.732-.905 2.413-.66.68-1.564 1.021-2.713 1.021-.55 0-1.057-.083-1.53-.257a3.71 3.71 0 0 1-1.218-.703 3.165 3.165 0 0 1-1.082-2.42c0-.651.17-1.226.5-1.733a3.347 3.347 0 0 1 1.377-1.195 4.41 4.41 0 0 1 1.936-.424c.583 0 1.099.084 1.547.242.448.16 1.26.62 1.572.855zm8.547-.862l1.09 6.248h-1.335l-.635-3.964-1.547 3.964h-1.225l-1.581-4.017-.617 4.017h-1.319l1.107-6.248h1.226l1.81 4.636 1.8-4.636h1.226zm56.629.234l.33 1.891h-.406l-.195-1.202-.465 1.202h-.371l-.474-1.217-.186 1.217h-.397l.33-1.89h.372l.54 1.406.541-1.407h.381zm-51.684-.31h1.209l2.908 6.407h-1.514l-.591-1.301h-2.79l-.592 1.3h-1.454l2.824-6.406zm1.597 3.91l-.481-1.02c-.153-.348-.33-.802-.525-1.362h-.033a30.864 30.864 0 0 1-.49 1.362l-.474 1.013h2.003v.008zm33.704-3.91h1.218l2.907 6.407h-1.513l-.591-1.301h-2.79l-.592 1.3h-1.454l2.815-6.406zm1.598 3.91l-.482-1.02a19.27 19.27 0 0 1-.524-1.362h-.034a30.595 30.595 0 0 1-.49 1.362l-.474 1.013h2.004v.008zM14.4 20.18h1.208l2.908 6.407h-1.513l-.592-1.301h-2.79l-.591 1.3h-1.454L14.4 20.18zm1.588 3.91l-.481-1.02c-.153-.348-.33-.802-.524-1.362h-.034a30.864 30.864 0 0 1-.49 1.362l-.474 1.013h2.003v.008zm27.11-2.692v-1.203h4.177v1.203H45.88v5.174h-1.395v-5.174H43.1zm44.187-.56v-.363h1.26v.363h-.424v1.566H87.7v-1.566h-.415zM48.23 26.632v-6.369h1.386v6.37H48.23zm19.282 0V20.34h1.395v5.128h1.936v1.165h-3.331zm12.181-.053v-2.753l-2.13-3.525h1.285l1.462 2.459h.026l1.462-2.459h1.285l-2.164 3.525v2.753h-1.226zm-25.073-.87c-.71.023-1.293-.219-1.732-.65-.449-.431-.668-.991-.668-1.68 0-.68.22-1.24.668-1.67.448-.432 1.022-.651 1.732-.651 1.573 0 2.207.93 2.207.93l.862-.68a3.515 3.515 0 0 0-1.107-.87c-.575-.296-1.234-.44-1.953-.44-.719 0-1.378.144-1.961.44a3.412 3.412 0 0 0-1.37 1.21 3.158 3.158 0 0 0-.498 1.732l-.017.007c0 .636.169 1.218.498 1.74.33.514.787.923 1.37 1.218.583.295 1.234.438 1.961.438.719 0 1.37-.15 1.953-.446.44-.221.823-.523 1.124-.885l-.87-.771s-.83.99-2.199 1.028z" fill="#32448C"/></svg>