<svg width="91" height="22" viewBox="0 0 91 22" fill="none" xmlns="http://www.w3.org/2000/svg"><path fill-rule="evenodd" clip-rule="evenodd" d="M31.147 9.698c.064 1.467-.326 2.813-1.477 3.916-.915.875-2.057 1.354-3.407 1.394-.644.017-1.314.049-1.94-.064-2.238-.382-3.787-1.85-4.159-3.9-.208-1.144-.2-2.287.181-3.414.77-2.294 3.081-3.592 5.89-3.324 2.919.275 4.794 2.084 4.921 4.719 0 .227-.009.454-.009.673zm-8.79-.195c.073.576.09.981.172 1.37.281 1.33 1.269 2.23 2.565 2.352 1.577.154 2.782-.381 3.326-1.557.607-1.305.598-2.651.009-3.965-.49-1.086-1.532-1.622-2.91-1.589-1.331.024-2.337.616-2.754 1.719-.227.584-.3 1.216-.408 1.67zM9.19 7.493c-.671 0-1.306.008-1.93-.008-.11 0-.282-.114-.3-.203-.208-.835-.86-1.208-1.722-1.265a6.053 6.053 0 0 0-1.667.146c-.507.114-.78.495-.806.973-.028.454.262.746.688.9.58.211 1.196.365 1.795.527.76.203 1.558.349 2.301.592 2.31.77 2.8 3.454.979 4.962-1.441 1.2-5.582 1.249-7.023-.049-.752-.672-1.106-1.459-1.17-2.44.708 0 1.387-.008 2.067.008.09 0 .236.114.263.203.254.965 1.024 1.37 2.039 1.419a6.845 6.845 0 0 0 1.676-.122c.553-.105.88-.462.952-.98.072-.495-.254-.828-.689-.99-.879-.316-1.785-.56-2.682-.819-.472-.138-.97-.227-1.441-.365C1.315 9.633.644 8.88.535 7.752.4 6.488.762 5.393 2.13 4.793c.544-.243 1.16-.373 1.758-.462 1.015-.138 2.03-.097 3.009.21 1.459.463 2.347 1.582 2.292 2.952zm1.585-2.943c1.83 0 3.634-.049 5.437.016 1.894.065 2.954.965 3.163 2.643a5.1 5.1 0 0 1-.109 1.776c-.335 1.37-1.45 2.1-3.19 2.148-.997.025-1.993.009-3.035.009V14.7h-2.266V4.55zm2.275 4.67c1.014 0 2.02.065 3-.024.715-.065 1.023-.552 1.06-1.314.036-.738-.3-1.37-.952-1.451-1.024-.13-2.066-.114-3.108-.154V9.22zm27.257-2.862h-3.28v8.36H34.68V6.375h-3.362v-1.8h8.99v1.783zm42.773 8.189h-.952V4.785c.943-.179 1.042-.146 1.54.543 1.804 2.457 3.607 4.913 5.402 7.362.1.138.208.268.39.51V4.745h.969v9.738c-.816.227-1.07.154-1.495-.438-1.82-2.48-3.641-4.958-5.465-7.435-.1-.13-.199-.26-.398-.349.009 2.75.009 5.498.009 8.287zm-12.406-4.93c.118-.673.154-1.37.362-2.02.69-2.148 2.538-3.234 5.202-3.145 2.157.073 3.915 1.451 4.422 3.486.335 1.346.308 2.7-.19 4.014-.68 1.784-2.257 2.821-4.35 2.886-3.144.097-5.247-1.67-5.346-4.5-.01-.235 0-.478 0-.713-.037 0-.064 0-.1-.008zm9.306.089c-.045-.008-.1-.024-.145-.033-.009-.892-.126-1.76-.589-2.562-.715-1.232-1.848-1.873-3.416-1.88-1.577-.009-2.755.6-3.434 1.848-.906 1.67-.906 3.413-.064 5.1.662 1.305 1.885 1.938 3.48 1.93 1.595-.009 2.827-.65 3.453-1.963.362-.77.489-1.621.716-2.44zm-39.137-.081c.154-.746.217-1.508.471-2.221.662-1.857 2.374-2.944 4.513-2.952 2.438-.008 4.114.981 4.839 2.92.598 1.62.607 3.275-.127 4.856-.743 1.613-2.102 2.53-4.105 2.61-3.298.13-5.455-1.726-5.473-4.702v-.495a.592.592 0 0 1-.118-.016zm1.015-.024c.136.681.19 1.321.39 1.938.516 1.613 1.902 2.554 3.697 2.578 1.812.016 3.244-.916 3.797-2.522.444-1.289.444-2.594-.018-3.875-.562-1.573-1.903-2.465-3.67-2.481-1.795-.016-3.145.819-3.734 2.392-.236.64-.317 1.33-.462 1.97zm11.436.714v3.568c0 .77 0 .77-.906.648v-9.77c.109-.008.236-.032.363-.032 1.295 0 2.6-.033 3.896.016.553.024 1.106.186 1.64.332.218.057.417.195.59.325 1.603 1.224 1.087 3.997-.907 4.58-.834.244-1.767.26-2.655.333-.634.04-1.287 0-2.02 0zm.046-.851c.126.016.19.024.253.024.834 0 1.668.016 2.501-.008.426-.016.87-.065 1.278-.17 1.024-.26 1.45-.892 1.396-2.003-.037-.908-.544-1.565-1.532-1.67-1.277-.138-2.573-.122-3.896-.17v3.997zm9.885-3.957h-3.417v-.754h7.83v.754h-3.39v9.024h-1.023V5.507zM11.03.398c.978.584 2.047.811 3.216.779.797-.016 1.595.008 2.392.08 1.16.106 2.112.609 2.9 1.363.127.114.245.235.48.47.082-.13.118-.251.209-.34 1.042-1.087 2.383-1.557 3.969-1.581.933-.017 1.867-.008 2.791-.106.517-.048 1.006-.275 1.531-.43-.643.86-1.567 1.225-2.682 1.265-.58.017-1.169 0-1.749 0-1.948 0-3.452.998-4.014 2.66a5.086 5.086 0 0 0-.118.373c-.082-.235-.136-.381-.19-.535-.562-1.517-2.066-2.49-3.843-2.506-.86-.008-1.74.008-2.591-.097-1.015-.105-1.75-.649-2.302-1.395zm57.388 4.338h.916v9.803h-.916V4.736zM51.554 18.82c.59-.332.87-.324 1.423.073.136-.081.254-.178.408-.235.534-.219 1.05.008 1.105.527.054.47.036.949.027 1.427 0 .081-.127.17-.19.251-.063-.089-.181-.17-.181-.26-.027-.405-.018-.802-.018-1.207 0-.284-.11-.52-.48-.511-.336.008-.571.17-.599.495-.027.389-.009.778-.036 1.159-.009.113-.136.219-.208.324-.064-.105-.172-.202-.172-.316-.028-.373-.01-.746-.01-1.119 0-.276-.054-.535-.434-.543-.363-.008-.608.17-.635.503-.036.389-.027.77-.063 1.16-.01.105-.11.21-.172.315-.073-.105-.2-.219-.2-.324a23.739 23.739 0 0 1 0-1.605c0-.098.09-.195.136-.292.073.048.172.105.3.178zm23.86-1.005c.68 0 1.314-.033 1.93.008.444.032.716.421.716.843 0 .462-.308.81-.806.884-.245.032-.499.032-.744.032-.66.008-.66 0-.66.616 0 .146.026.3-.01.446-.018.09-.136.154-.218.227-.072-.064-.199-.13-.208-.194-.009-.949 0-1.89 0-2.862zm.471.308v1.11c.426 0 .816.025 1.206-.008.371-.032.534-.267.516-.591-.018-.317-.217-.495-.562-.503-.38-.016-.76-.008-1.16-.008zm-49.17.657c.154-.057.272-.106.39-.146.036.089.109.178.109.267 0 .673.036 1.346-.027 2.01-.064.763-1.033 1.16-1.758.739-.163-.098-.254-.284-.372-.422.037-.04.064-.073.1-.113.118.04.272.056.335.138.272.348.662.34.97.17.208-.122.29-.43.371-.681-.87.227-1.295.154-1.613-.284-.317-.454-.253-1.24.127-1.597.354-.333.843-.349 1.368-.081zm-1.295.948c0 .625.435.997.951.811.38-.138.58-.649.435-1.127-.109-.349-.344-.584-.78-.543-.389.048-.606.38-.606.86zm-24.313-.162c0 .43.009.754-.01 1.078 0 .073-.108.146-.163.22-.072-.074-.217-.147-.217-.22-.018-.932-.018-1.864-.018-2.83.67 0 1.305-.04 1.921.017.462.04.716.422.689.892-.018.47-.327.794-.852.835-.417.032-.843.008-1.35.008zm.027-.332c.444 0 .843.024 1.232-.009.354-.024.526-.259.517-.559-.01-.3-.172-.519-.535-.535-.39-.016-.788 0-1.214 0v1.102zm29.904-1.436c.643 0 1.187-.016 1.73.009.544.024.853.324.88.794.027.527-.263.892-.807.957-.326.04-.661.04-.996.024-.3-.008-.435.081-.408.357a3.27 3.27 0 0 1-.01.665c-.008.089-.117.17-.171.26-.073-.082-.209-.155-.209-.236-.018-.924-.009-1.857-.009-2.83zm.426 1.444c.417 0 .797.016 1.178-.009.371-.024.58-.235.57-.559-.008-.316-.19-.535-.58-.543-.38-.008-.751 0-1.168 0v1.11zm-13.765-.487c0-.251-.018-.478.01-.697.008-.09.117-.178.171-.268.073.081.2.163.2.244a62.31 62.31 0 0 1 0 2.594c0 .081-.1.154-.154.235-.327-.292-.599.09-.907.049-.127-.016-.271-.016-.39-.057-.634-.21-.897-1.005-.598-1.703.218-.502.943-.754 1.496-.413.018.024.054.016.172.016zm.154 1.095c-.118-.535-.299-.9-.652-.933a1.043 1.043 0 0 0-.69.211c-.298.26-.29.997.01 1.249.172.146.58.276.716.194.263-.154.417-.47.616-.721zm21.187 1.038a11.721 11.721 0 0 0-.39-.154c-.371.056-.734.154-1.096.17-.381.008-.68-.22-.644-.543.027-.236.245-.52.471-.641.272-.146.644-.122.96-.194.11-.025.3-.122.29-.17-.017-.13-.08-.317-.19-.374-.344-.178-.688-.17-.996.114-.1.089-.227.154-.453.308.154-.673.534-.852 1.323-.787.516.041.716.235.716.73.018.478.009.965.009 1.54zm-.453-1.12c-.336.057-.653.09-.943.187-.136.049-.317.243-.299.34.027.138.2.309.354.35.48.121 1.141-.3.888-.876zm28.735-.6c.28-.55 1.241-.802 1.767-.437.154.105.254.348.272.535.036.519.009 1.03.009 1.605-.116-.043-.23-.09-.345-.137-.425.064-.797.154-1.16.162-.353.008-.588-.211-.634-.527-.045-.317.127-.568.453-.665.308-.097.653-.114.97-.187.118-.032.326-.154.317-.194-.045-.138-.127-.325-.263-.381-.335-.154-.67-.13-.942.154-.09.089-.236.137-.354.203-.036-.033-.063-.082-.09-.13zm1.604.593c-.344.064-.662.089-.952.186-.136.04-.317.243-.299.34.027.138.2.309.354.35.553.145.978-.26.897-.876zm-4.767-.925c.181-.08.3-.146.417-.186.662-.22 1.178.073 1.214.697.027.405.027.803.01 1.208-.01.106-.118.203-.182.308-.072-.113-.19-.219-.2-.332-.026-.357-.008-.714-.008-1.07 0-.308-.118-.544-.49-.568-.407-.024-.688.17-.734.535-.045.373-.009.746-.036 1.12-.009.113-.127.218-.2.323-.054-.105-.162-.202-.162-.308a55.952 55.952 0 0 1 0-2.465c0-.105.108-.202.172-.3.063.098.181.187.19.284.027.227.01.462.01.754zm-19.293.908c.01-.73.454-1.151 1.206-1.143.707.008 1.15.446 1.15 1.152 0 .737-.443 1.167-1.178 1.167-.733 0-1.177-.446-1.177-1.176zm1.94 0c0-.527-.308-.875-.761-.875-.454 0-.762.356-.77.884 0 .543.325.916.797.9.453-.025.743-.373.734-.909zm37.353.017c-.01.73-.453 1.159-1.196 1.15-.725-.007-1.17-.461-1.16-1.191.018-.721.47-1.143 1.223-1.127.707.016 1.142.47 1.133 1.168zm-1.949-.017c-.008.52.29.884.744.909.47.016.797-.357.797-.9 0-.52-.317-.876-.761-.884-.453-.008-.77.348-.78.875zm-60.216-.956c.281-.065.544-.17.807-.187.498-.024.779.22.806.665.027.446.018.892 0 1.338 0 .089-.117.17-.181.251-.063-.08-.181-.162-.19-.251-.018-.39-.01-.779-.018-1.16-.01-.324-.154-.567-.544-.567-.372 0-.643.17-.67.535-.028.373 0 .746-.037 1.119-.009.113-.136.219-.208.332-.064-.105-.181-.202-.181-.308a23.739 23.739 0 0 1 0-1.605c0-.106.08-.211.117-.316.118.064.227.121.3.154zM9.416 19.793c-.009.738-.453 1.143-1.214 1.127-.707-.016-1.115-.454-1.105-1.176.009-.737.434-1.151 1.196-1.143.725 0 1.132.438 1.123 1.192zm-1.92-.032c0 .648.443 1.021.987.843.417-.138.643-.633.507-1.135-.1-.373-.353-.617-.806-.592-.435.016-.689.357-.689.884zm48.39.364c.217.122.335.203.47.268.2.097.409.251.6.235.198-.016.38-.21.57-.324-.145-.122-.263-.276-.435-.349-.236-.105-.517-.121-.752-.219-.408-.162-.508-.6-.227-.892.435-.454 1.468-.267 1.758.438-.235-.105-.362-.17-.498-.219-.19-.073-.39-.186-.58-.178-.154.008-.3.178-.444.276.118.105.217.251.362.308.254.105.544.138.807.227.471.17.58.608.254.94-.327.333-.77.325-1.206.252-.38-.057-.616-.276-.68-.763zm-45.319-1.5c.662.025.544.487.698.738.172.3.263.633.435 1.07.172-.421.28-.762.453-1.078.145-.26.064-.697.698-.754-.326.762-.598 1.46-.915 2.133-.118.243-.372.202-.48-.033-.3-.649-.563-1.321-.889-2.075zm75.513-.056l.607.17c-.29.113-.444.17-.625.243 0 .511.009 1.03-.01 1.557-.008.113-.126.219-.199.332-.063-.105-.163-.202-.172-.308-.027-.34-.009-.689-.009-1.03 0-.3.127-.648-.29-.697.118-.26.245-.47.317-.689.1-.316.526-.543.861-.413.055.024.136.121.127.154a.325.325 0 0 1-.181.154c-.426.113-.426.105-.426.527zm-42.736 0l.462.13c.01.032.01.072.018.105-.154.049-.299.105-.498.17 0 .52.01 1.046-.01 1.581 0 .106-.108.211-.162.308-.073-.105-.19-.21-.2-.324a8.871 8.871 0 0 1-.009-.981c.019-.325.055-.64-.299-.738.118-.243.236-.454.309-.673.099-.316.516-.543.851-.413.064.024.145.113.127.145-.027.065-.109.155-.172.155-.417 0-.462.219-.417.535zm-2.256-.017c.154.057.299.106.48.17-.2.147-.462.244-.471.366-.046.43-.01.86.009 1.289 0 .065.118.122.181.186.082.081.154.163.236.244-.118.032-.236.089-.354.089-.326-.017-.462-.211-.471-.479-.01-.34.018-.689-.018-1.03-.018-.218-.127-.43-.209-.697l.445-.794c.045.016.081.032.126.048.01.203.027.406.046.608zm29.705.155c.135-.244.29-.527.444-.803.045.016.081.032.126.049l.055.608c.154.056.299.105.471.17-.2.146-.462.251-.471.365-.037.446 0 .892.027 1.337 0 .05.109.098.172.146.082.065.163.138.245.203-.127.04-.254.122-.372.122-.326-.008-.462-.211-.471-.479-.009-.34.018-.689-.018-1.03-.027-.218-.127-.429-.208-.688zm-9.352-.017c.127-.227.28-.518.489-.908.2.422-.118.908.535 1.006-.136.064-.263.121-.426.202 0 .406-.018.82.009 1.233.009.122.163.243.254.357.054.073.108.146.154.227-.082.032-.164.097-.245.097-.326.008-.544-.106-.553-.438 0-.34.01-.69-.018-1.03-.018-.227-.118-.454-.2-.746zm28.155 0c.118-.219.263-.51.417-.802.045.016.09.024.136.04.009.203.027.398.036.624.127.05.263.106.49.195-.717.21-.463.681-.508 1.062-.045.414-.045.803.689.933-.798.26-1.052.121-1.07-.398-.009-.267.018-.535-.009-.802-.018-.268-.109-.544-.181-.852zm-39.637.09c-.109.056-.217.17-.326.17-.417-.016-.57.194-.598.519-.027.373-.01.746-.036 1.11-.01.106-.127.195-.2.292-.063-.097-.19-.202-.19-.3a24.951 24.951 0 0 1 0-1.646c0-.097.1-.194.154-.283.09.065.181.121.19.13.306-.058.611-.117.916-.179.036.057.063.122.09.187zM5.13 18.763c.254-.056.48-.121.707-.146.054-.008.127.122.19.187-.081.049-.163.154-.235.146-.454-.04-.599.203-.635.527-.036.373-.018.746-.045 1.11-.009.098-.109.179-.163.268-.073-.089-.2-.186-.209-.276a25.198 25.198 0 0 1 0-1.654c0-.105.082-.202.127-.3.118.065.227.122.263.138zm74.362-.251c.125.085.249.172.371.26.254-.057.472-.122.698-.146.055-.009.136.121.2.194-.064.049-.136.154-.19.146-.626-.065-.671.324-.698.705-.019.325 0 .657-.019.982 0 .073-.108.145-.163.227-.072-.065-.2-.122-.2-.187-.008-.69 0-1.362 0-2.181zm-44.032.843c0 .414.01.835-.009 1.249 0 .089-.118.17-.181.26-.064-.082-.19-.163-.19-.244a59.69 59.69 0 0 1 0-2.546c0-.097.136-.186.199-.276.054.09.163.179.163.268.027.43.018.86.018 1.29zm-15.432.39c0 .3.018.591-.01.891-.008.081-.135.154-.208.227-.054-.073-.154-.146-.163-.227a38.999 38.999 0 0 1 0-1.784c0-.08.127-.154.2-.226.054.072.154.145.163.226.027.3.018.6.018.892zm-5.51-.017c0 .308.01.625-.009.933-.009.073-.118.137-.181.202-.063-.065-.181-.137-.181-.202a30.652 30.652 0 0 1 0-1.825c0-.073.118-.137.18-.202.064.064.173.13.182.202.018.3.01.592.01.892zm73.646.073c0 .268.018.535-.009.803-.009.089-.109.178-.163.26-.073-.082-.2-.155-.2-.236a29.041 29.041 0 0 1 0-1.776c0-.072.11-.145.173-.218.072.08.19.154.2.235.017.308 0 .624 0 .932z" fill="#32448C"/></svg>