<svg width="91" height="44" viewBox="0 0 91 44" fill="none" xmlns="http://www.w3.org/2000/svg"><path fill-rule="evenodd" clip-rule="evenodd" d="M90.638 13.611c-.028 7.45-6.633 13.344-14.769 13.408-8.308.065-14.994-5.877-15.148-13.06C60.567 6.64 67.063.342 75.453.277c8.444-.073 15.184 5.902 15.184 13.335zM76.14 18.094c0 1.694-.009 3.389.01 5.083.008.803.534 1.102 1.286.713 2.751-1.4 5.496-2.811 8.235-4.231.77-.397 1.16-.997 1.16-1.832-.018-2.919-.009-5.845-.009-8.763 0-1.144-.48-1.42-1.622-.917-2.627 1.16-5.245 2.327-7.873 3.478-.815.357-1.196.892-1.187 1.703.018 1.588 0 3.177 0 4.766zm-.951.073c0-1.63-.027-3.259.009-4.888.018-.81-.372-1.305-1.15-1.646-2.7-1.175-5.383-2.367-8.073-3.55-1.033-.454-1.468-.22-1.468.802-.01 2.797.018 5.585-.018 8.382-.018 1.249.552 2.116 1.785 2.724 2.518 1.248 5 2.562 7.501 3.843.888.454 1.405.202 1.414-.706.009-1.653 0-3.307 0-4.96zm.552-7.02c.327-.106.67-.187.988-.325 2.79-1.199 5.575-2.41 8.354-3.631.226-.097.39-.324.58-.486-.2-.13-.381-.309-.599-.398-2.537-.924-5.082-1.824-7.62-2.764-1.159-.43-2.282-.438-3.433-.008-2.492.908-4.992 1.8-7.484 2.724-.244.089-.407.34-.616.518.19.163.353.373.589.479a1047.47 1047.47 0 0 0 8.281 3.607c.299.122.625.187.96.284z" fill="#32448C"/><path fill-rule="evenodd" clip-rule="evenodd" d="M41.494 18.654c1.006-.851 1.921-1.638 2.836-2.416 5.3-4.507 10.592-9.022 15.9-13.513.472-.398.988-.82 1.577-1.03.816-.3 1.776.113 2.193.778.435.681.29 1.557-.39 2.148a1122.653 1122.653 0 0 1-4.865 4.175l-9.84 8.44c-2.527 2.164-5.046 4.344-7.6 6.484-.4.333-.907.681-1.414.77-1.386.244-2.32-.47-2.31-1.742.026-5.359.08-10.717.126-16.076a166.7 166.7 0 0 1 .063-3.68c.028-.68.454-1.16 1.151-1.386.68-.22 1.36-.17 1.94.251.56.405.697.965.697 1.589-.046 4.913-.073 9.833-.109 14.746 0 .113.027.227.045.462zm-34.447.024c2.79-2.383 5.49-4.685 8.19-6.996 3.634-3.097 7.267-6.185 10.891-9.29.607-.519 1.269-.908 2.148-.746.715.13 1.25.495 1.467 1.151.227.714.027 1.338-.57 1.849a1399.789 1399.789 0 0 1-4.005 3.42c-3.09 2.652-6.188 5.302-9.278 7.953-3.071 2.635-6.152 5.261-9.223 7.904-.707.608-1.513.786-2.41.47-.915-.324-1.16-1.037-1.15-1.864.054-6.08.099-12.152.153-18.232 0-.446.027-.892.073-1.33.108-.9.797-1.45 1.794-1.467 1.078-.024 1.82.47 1.93 1.387.08.664.008 1.345.008 2.026-.009 3.705-.018 7.418-.018 11.122v2.643zm65.125 20.566v-7.23c0-.909 0-1.825.01-2.732.009-.82.498-1.305 1.295-1.297.78.008 1.26.51 1.26 1.32-.027 4.24-.073 8.472-.1 12.712 0 .6-.145 1.094-.843 1.321-.68.22-1.186-.024-1.649-.446-3.85-3.526-7.7-7.06-11.551-10.587a10.303 10.303 0 0 0-.48-.397c-.028.324-.055.535-.055.746l-.109 9.339c-.009.835-.462 1.313-1.232 1.321-.833.008-1.314-.47-1.305-1.346.037-4.296.073-8.6.155-12.897.009-.349.317-.795.634-1.022.462-.324 1.05-.21 1.504.122.362.268.68.584 1.005.892l10.855 9.954c.108.106.235.187.353.284.09-.024.172-.04.254-.057zm-29.155-5.398c2.002-1.792 3.923-3.519 5.853-5.245.163-.146.335-.3.516-.438.48-.365 1.006-.446 1.586-.219.561.219.706.657.706 1.151.01.851.01 1.694 0 2.546a3533.71 3533.71 0 0 1-.127 10.295c-.009.9-.516 1.346-1.413 1.28-.752-.056-1.132-.486-1.132-1.272.009-3.113.027-6.234.036-9.347v-.786l-.752.64c-1.386 1.24-2.754 2.505-4.159 3.73-.725.632-1.522.6-2.238-.05a287.715 287.715 0 0 1-4.113-3.777c-.208-.195-.335-.454-.498-.69l-.354.171v1.808l-.027 8.074c0 .56-.136 1.07-.78 1.313-.914.34-1.784-.186-1.793-1.118-.01-1.443.027-2.878.036-4.321.018-2.756.018-5.513.028-8.269 0-.13 0-.251.008-.38.046-.552.281-.982.897-1.184.59-.187 1.079-.025 1.486.356 1.477 1.346 2.936 2.7 4.404 4.053.589.56 1.187 1.095 1.83 1.679zm-12.975 4.58c-2.237 0-4.412.048-6.586-.025-.96-.032-1.631.211-2.283.827-1.214 1.127-2.51 2.189-3.787 3.259-.236.195-.526.381-.834.454-.616.146-1.196.04-1.531-.519-.317-.535-.182-1.03.29-1.443.996-.867 2.011-1.735 3.017-2.594 3.896-3.34 7.791-6.671 11.687-10.011a6.53 6.53 0 0 1 .544-.414c.453-.316.942-.348 1.468-.138.525.211.697.625.697 1.087-.036 4.296-.072 8.6-.127 12.897-.008.86-.453 1.281-1.286 1.273-.843 0-1.278-.43-1.287-1.28.018-1.07.018-2.15.018-3.373zm.01-2.213v-4.548c-1.794 1.54-3.47 2.991-5.273 4.548h5.273zm60.495 2.026c0 .738.063 1.484-.028 2.222-.045.389-.262.843-.58 1.094-2.69 2.132-5.798 2.643-9.114 1.524-3.289-1.11-5.137-3.356-5.536-6.493-.534-4.216 2.764-8.034 7.556-8.585 2.692-.308 5.11.34 7.14 2.01.77.633.879 1.29.308 1.816-.616.576-1.34.543-2.12-.09-1.758-1.426-3.796-1.888-6.043-1.24-2.265.657-3.697 2.076-4.204 4.175-.535 2.205.516 4.386 2.7 5.732 1.939 1.191 4.675 1.208 6.704.056.462-.259.698-.543.68-1.062-.037-.826.018-1.653.054-2.472.027-.754.471-1.135 1.287-1.135.734 0 1.232.422 1.268 1.11.027.447.01.892.01 1.338h-.082zm-75.091-.048c0 .34-.046.68.009 1.013.18 1.062-.4 1.735-1.296 2.343-5.21 3.55-13.01.713-13.935-5.083-.697-4.37 2.329-8.196 7.194-8.941 2.836-.438 5.4.243 7.538 2.026.626.519.716 1.273.236 1.76-.517.518-1.422.502-2.084-.041-1.875-1.557-4.05-1.986-6.433-1.168-2.455.843-3.86 2.546-3.995 4.88-.209 3.721 3.515 6.3 7.121 5.756.299-.049.607-.09.897-.178 2.02-.592 2.184-.803 2.193-2.66 0-.51-.01-1.02.018-1.523.045-.69.543-1.127 1.26-1.127.724-.008 1.268.47 1.304 1.167.018.292-.027.592-.027.892 0 .284.009.584 0 .884 0 0 .009 0 0 0zm19.969-25.504c0 2.456.01 4.912 0 7.369 0 .997-.045 1.986-.063 2.983-.018.956-.752 1.654-1.794 1.702-1.015.049-1.993-.673-2.003-1.605-.027-2.27.028-4.531.046-6.801.018-1.549.045-3.089.054-4.637.027-2.708.09-5.423.064-8.131-.019-1.338.978-1.913 1.93-1.93 1.14-.024 1.902.755 1.902 1.954-.01 2.586-.045 5.172-.063 7.75v1.338c-.028.008-.046.008-.073.008zm20.539 22.934c0 2.14.009 4.272 0 6.412 0 .795-.48 1.257-1.25 1.265-.789.008-1.305-.486-1.296-1.297.036-4.32.081-8.633.127-12.954.009-.722.507-1.184 1.25-1.184.797 0 1.287.446 1.296 1.224.009 2.18 0 4.362 0 6.542-.037-.008-.082-.008-.127-.008zm29.6-24.06c-.163.438-.3.98-.58 1.451-.136.227-.562.454-.843.43-.263-.017-.607-.316-.716-.568-.362-.835-.244-1.678.281-2.424.172-.25.59-.527.87-.502.272.024.57.373.743.64.163.252.154.576.245.973zm-5.21 7.953c-.163.405-.299.972-.607 1.45-.408.633-1.214.527-1.513-.153-.38-.884-.227-1.76.326-2.538.163-.227.58-.462.843-.438.262.025.561.34.706.6.154.26.154.6.245 1.079zm2.927-4.005c-.2.535-.336 1.094-.617 1.589-.127.227-.561.462-.833.446-.254-.017-.59-.333-.707-.576-.344-.762-.263-1.556.181-2.254.19-.308.653-.689.96-.664.3.024.59.494.807.81.118.163.072.414.1.617.036.008.072.024.109.032zm-9.804 4.62c-.063.268-.063.568-.199.795-.154.251-.426.608-.67.624-.3.016-.753-.194-.916-.438-.543-.786-.68-1.661-.308-2.553.281-.665 1.07-.778 1.477-.162.335.51.49 1.119.716 1.678a.381.381 0 0 1-.1.057zm-2.464-6.071c.163-.957.48-1.492 1.024-1.516.516-.033 1.105.495 1.223 1.297.081.567.063 1.192-.109 1.735-.226.705-1.015.786-1.431.162-.336-.51-.48-1.119-.707-1.678zm-2.564-1.654c-.118.835-.444 1.386-.924 1.435-.544.057-1.033-.373-1.178-1.208a3.696 3.696 0 0 1 .072-1.605c.182-.632.952-.738 1.332-.178.335.47.48 1.037.698 1.556zm0 5.407c-.118.438-.154.803-.317 1.119-.254.494-.852.527-1.26.113-.561-.559-.751-1.97-.362-2.634.326-.56 1.024-.592 1.386-.008.281.437.39.964.553 1.41zm7.411-9.695c-.68-.203-1.323-.3-1.866-.56-.834-.413-.852-1.24-.109-1.783.933-.689 3.008-.673 3.932.024.67.503.68 1.314-.072 1.703-.562.3-1.242.421-1.885.616z" fill="#32448C"/></svg>