<svg width="91" height="18" viewBox="0 0 91 18" fill="none" xmlns="http://www.w3.org/2000/svg"><path d="M13.69 5.272a.765.765 0 0 1 .197-.14 1.07 1.07 0 0 1 .38-.13c-.012.023-.026.053-.058.07-.152.094-.316.17-.447.283a.666.666 0 0 1-.112.064c.006-.053 0-.106.04-.147zm-.204-.258c.02-.106.006-.212.026-.318.006-.006.026-.018.033-.024.059.124.046.253.052.383.007.159-.033.311-.066.47-.02 0-.039-.006-.065-.006a1.627 1.627 0 0 1 .02-.505zm-.112-1.647c.105-.024.21-.018.315-.024.105-.006.204-.07.316-.053-.08.1-.224.135-.355.147a.907.907 0 0 1-.283.006c.007-.023.007-.053.007-.076zm-.29-.189c0-.105.007-.217.027-.323.02-.006.046-.006.066-.012-.007.2.02.406.006.606-.006.07-.026.165-.112.182-.006-.147.014-.3.014-.453zM8.075 1.914c.013-.03.046-.053.073-.07-.086.464-.066.976.21 1.393.013.024.02.053.026.083-.23-.136-.328-.389-.388-.624-.039-.259-.052-.54.08-.782zm-.486.123c-.079-.076-.19-.14-.23-.247a.81.81 0 0 1 .217.165c.085.082.19.153.243.253-.099-.024-.158-.106-.23-.17zm.197.67c-.013-.04 0-.087.013-.128.06.1.092.211.151.317.073.13.125.27.244.37.19.165.328.371.44.583-.44-.253-.77-.676-.848-1.141zm-5.035 1.39a.803.803 0 0 1 .164.13c.072.07.177.111.256.182a.57.57 0 0 1-.42-.312zm.48.512c-.145-.006-.296 0-.448-.012.086-.077.21-.047.323-.065a2.14 2.14 0 0 1 .512.006c.027.006.053.018.08.024a1.14 1.14 0 0 1-.468.047zm-.835 1.57c-.119-.023-.171-.135-.21-.223a.46.46 0 0 1 .21.223zm.02.359c-.152-.165-.356-.324-.605-.335-.112-.012-.21.035-.31.07.06-.117.218-.147.349-.13.178.024.335.113.48.2a.81.81 0 0 1 .29.389c-.086-.053-.146-.13-.205-.194zm11.594 10.08c.184.03.283.188.336.335-.099-.017-.204-.04-.263-.117-.04-.07-.086-.141-.073-.218zm.178-10.193c.072-.153.118-.317.158-.482.006-.041.033-.077.052-.112.027.106-.006.218-.013.33-.013.146-.052.3-.164.411-.105.118-.243.188-.388.259-.164.088-.322.2-.513.247a1.045 1.045 0 0 1-.486.006c.052-.059.144-.07.217-.094.197-.065.4-.124.598-.188.217-.071.434-.183.539-.377zm-.914.218c.19-.07.408-.036.611-.065-.072.082-.19.106-.295.141-.158.041-.316.083-.48.094a.33.33 0 0 1 .164-.17zm.027-1.37c.006-.042.046-.071.078-.1 0 .164-.006.329.007.493 0 .112.006.23-.02.342-.013 0-.033.005-.046.005-.052-.24-.092-.494-.02-.74zm-.171.182c.02-.042.052-.077.078-.106-.006.106-.032.211-.032.317 0 .212.013.43 0 .641a.673.673 0 0 1-.33.524.875.875 0 0 1-.46.1c.191-.13.395-.259.52-.453.184-.318.085-.694.223-1.023zm-.342.635c.046-.088.065-.182.138-.253.026.106-.013.206-.033.312-.06.294-.303.529-.592.664a.835.835 0 0 1-.296.077l-.026-.024a1.66 1.66 0 0 0 .809-.776zm-1.5.753c.06-.083.093-.183.165-.26a.905.905 0 0 1-.066.371c-.039.089-.164.095-.256.1.046-.07.105-.14.158-.211zm-1.051-.153c-.118.017-.237.053-.361.04.105-.058.25-.11.361-.04zm-.743-.077c-.118.053-.21.153-.335.194.053-.223.237-.411.46-.517.204-.106.434-.153.664-.182a3.94 3.94 0 0 1-.789.505zm-.131.76c-.099.029-.19.052-.29.07a.836.836 0 0 1 .448-.63c-.073.106-.158.212-.171.336 0 .076.013.152.013.223zm2.156-1.789a3.019 3.019 0 0 1-1.02.306c-.23.035-.466.053-.683.135a1.51 1.51 0 0 0-.545.335.946.946 0 0 0-.257.377c-.046.117-.079.241-.118.359-.04.13-.033.27-.085.394-.053.117-.178.188-.29.253-.02-.106.027-.206.06-.306.065-.212.157-.418.243-.624.079-.188.085-.4.223-.564.21-.247.533-.394.855-.488.23-.048.466-.053.697-.065.23-.03.453-.07.677-.136.144-.035.282-.105.44-.123-.052.059-.125.1-.197.147zm-1.657 8.723c.086.053.184.147.29.223.046.035.368.394.394.453.092.182.21.359.329.53.072.105.197.223.276.323a.438.438 0 0 1-.118-.03.862.862 0 0 1-.336-.182c-.098-.082-.158-.206-.243-.306-.145-.176-.309-.34-.46-.511a2.018 2.018 0 0 1-.44-.624c-.007-.024-.007-.053-.007-.082.112.064.204.14.315.206zm-3.326 1.117c-.276.13-.52.306-.763.47a1.482 1.482 0 0 1-.775.254c-.079 0-.165 0-.23-.047a.06.06 0 0 0 .013-.036c.125-.023.25-.012.368-.053.276-.088.506-.253.73-.423.295-.218.565-.477.907-.641.079-.036.46-.142.585-.136.151.006.296 0 .447 0-.013.042-.046.071-.092.095a2.93 2.93 0 0 1-.585.24c-.217.077-.408.183-.605.277zm.105.17a.88.88 0 0 1-.355.583.622.622 0 0 1-.315.153c-.237.07-.506.018-.723-.088.131-.065.282-.053.42-.112.145-.059.276-.141.401-.23.132-.088.276-.17.421-.252.04-.03.099-.042.151-.053zM5.94 14.06a.205.205 0 0 1-.007.123c-.065.141-.243.353-.302.43.033-.142.085-.318.079-.524a5.8 5.8 0 0 0-.02-.335.594.594 0 0 1 .131-.418c.014.13.04.559.119.724zm.447-1.306c-.013-.118-.007-.177-.02-.294.02.1.046.135.08.23.084.27.282.505.295.793.006.106-.066.23-.138.306-.053-.065-.073-.17-.092-.247-.04-.135-.046-.288-.073-.424a2.295 2.295 0 0 1-.052-.364zm1.354 1.135c.033.13.007.182-.085.218-.132.053-.296.011-.434-.024.006-.018.217-.135.27-.212.039-.058.072-.194.085-.235.144.17.164.253.164.253zm-.473-.635c.079.123.131.317.098.459-.02.1-.15.147-.15.147a.849.849 0 0 1-.323.04c-.026 0 .099-.152.105-.358a1.16 1.16 0 0 0-.052-.365c-.073-.205-.165-.405-.244-.605-.052-.142-.125-.271-.17-.418-.047-.135-.1-.27-.119-.418-.013-.194.04-.382.105-.564.02-.06.04-.124.099-.16-.02.148-.079.283-.086.43a1.72 1.72 0 0 0 .033.518c.073.241.184.464.322.682.06.088.382.612.382.612zm.92 1.005c-.02.171-.138.224-.217.295-.144.123-.375.076-.572.064H7.24a2.04 2.04 0 0 0-.256.053 3.645 3.645 0 0 0-.348.153c-.106.053-.21.112-.303.183-.125.1-.256.2-.374.311-.125.118-.27.23-.401.347-.106.094-.23.165-.362.224-.085.035-.177.088-.283.065a.743.743 0 0 1 .112-.083c.31-.159.546-.406.743-.665.072-.082.315-.429.394-.494.138-.123.263-.276.454-.335a1.78 1.78 0 0 1 .27-.053c.091 0 .328.006.44-.006.177-.011.388-.023.526-.14.177-.13 0-.436 0-.436s-.257-.47-.487-.706c-.065-.064-.664-.864-.716-1.235a1.7 1.7 0 0 1 .006-.447c0-.03.02-.118.033-.153.013.059.046.188.046.247.02.377.303.941.546 1.241.21.253.407.518.598.782.099.142.322.671.31.788zm.276-.576c.053.141.118.353.118.541 0 .13-.006.26-.013.383-.006.07-.02.511 0 .605.04.2.125.418.329.524.19.094.42.082.625.041a1.99 1.99 0 0 1 .558-.035c.138.017.296.094.31.23-.106-.03-.198-.09-.31-.095-.243-.024-.5.018-.703.141-.112.065-.224.141-.362.141a.445.445 0 0 1-.282-.117.878.878 0 0 1-.316-.406c-.085-.259.02-.694.04-.924.006-.1.026-.188.013-.294-.027-.37-.388-1.011-.474-1.123-.203-.282-.427-.559-.644-.835-.059-.083-.21-.37-.23-.406a2.568 2.568 0 0 1-.184-.488c.053.064.145.182.19.247.066.088 1.006 1.164 1.237 1.629.032.065.085.206.098.241zm.71 1.765c.072.059.178.088.237.158-.21.024-.44-.053-.546-.217-.112-.17-.098-.535-.052-.806.006.241.065.459.118.57a1 1 0 0 0 .243.295zm-.052-.877c.085.16.144.33.276.465.19.176.48.235.664.43-.007.005-.02.023-.027.029a1.78 1.78 0 0 1-.677-.224.55.55 0 0 1-.243-.33c-.026-.129-.046-.252.007-.37zm-.33-1.682c.224.365.244.753.172 1.076-.033.124-.099.441-.125.577-.013-.224-.046-.676-.138-.906a4.484 4.484 0 0 0-.19-.4 6.869 6.869 0 0 0-.303-.447c-.158-.212-.572-.665-.69-.8a6.785 6.785 0 0 1-.375-.464 5.36 5.36 0 0 1-.566-.983c-.046-.105-.098-.211-.105-.323.086.053.105.159.158.235.27.43.605.824 1 1.165.144.129.275.276.433.394.112.088.585.647.73.876zM6.15 8.243c.053-.1.119-.194.145-.3.06-.194.026-.394.04-.594.02-.271.032-.547.164-.795.065-.111.144-.223.25-.305.026.182 0 .37-.027.553-.045.295-.1.59-.164.882a3.65 3.65 0 0 0-.079.853 2.975 2.975 0 0 0-.329-.294zm.23.776c-.21-.106-.434-.212-.677-.23a2.26 2.26 0 0 0-.348.007c-.165.017-.31.1-.474.129.046-.1.152-.147.25-.2.243-.135.546-.218.829-.147a.76.76 0 0 1 .4.247c.047.053.093.135.02.194zm.263-1.076c.046-.324.132-.641.178-.965.006-.1.006-.2.02-.294.02-.182-.007-.365 0-.547 0-.13.098-.235.184-.335-.047.211.013.435-.04.647a2.613 2.613 0 0 0-.099.782c0 .153-.032.3-.032.453.013.323.072.64.111.959.007.205.013.411.066.611.095.368.274.715.526 1.018.21.264.506.453.776.659.217.164.42.34.585.553.125.158.256.317.309.511.013.041.059.4.059.482-.007-.035-.04-.111-.046-.147-.033-.105-.092-.206-.138-.306a1.627 1.627 0 0 0-.342-.435c-.27-.264-.611-.447-.92-.664-.29-.189-.572-.394-.763-.67a2.115 2.115 0 0 1-.342-.818 5.554 5.554 0 0 1-.125-.806c.007-.235-.013-.465.033-.688zm2.741 3.835a.609.609 0 0 1-.072-.095c-.151-.323-.447-.57-.73-.8a34.24 34.24 0 0 0-.506-.37 2.079 2.079 0 0 1-.808-1.041 2.51 2.51 0 0 1-.125-.582c-.013-.177-.053-.353-.079-.53-.033-.217-.099-.43-.105-.653.059.07.085.16.125.236.098.206.177.423.203.647.06.329.106.67.303.958.112.142.204.294.335.424.099.106.217.2.335.288.125.094.27.165.382.265.263.2.539.429.644.735.066.176.112.347.098.518zm-1.38-3.724c.013-.264.053-.54.164-.788.138-.264.336-.517.375-.817.046-.424-.092-.841-.197-1.253-.033-.118-.072-.235-.086-.353-.013-.106-.046-.212-.026-.318.118.183.21.383.296.583.046.088.046.188.052.288.007.153.086.3.119.447.02.076 0 .153-.013.223-.027.13-.06.253-.066.383-.013.211-.06.423-.145.617-.065.153-.111.306-.164.459-.046.147-.105.294-.105.447 0 .143-.06.28-.165.388-.059-.088-.039-.2-.039-.306zm4.398-4.076c.092-.059.204-.1.283-.182.085-.088.111-.212.203-.294.013.047.02.1.007.147-.04.141-.092.294-.23.382-.138.112-.329.141-.5.194-.006-.005-.013-.023-.02-.03.076-.08.162-.153.257-.217zm-.145-.258c.02.058.066.111.066.176-.026.047-.085.065-.131.088 0-.076.013-.153 0-.223-.02-.112-.08-.206-.112-.312.111.059.131.176.177.27zm-.723 1.264c.151-.082.283-.188.381-.323.053-.07.099-.147.178-.194.118-.077.27-.1.407-.148.112-.035.204-.1.303-.147 0 .036.006.077-.02.106a.614.614 0 0 1-.315.224c-.119.035-.237.065-.342.123-.132.065-.224.183-.342.265a.923.923 0 0 1-.388.182c.04-.03.085-.064.138-.088zm-1.137-.035c.059-.07.092-.159.164-.224-.006.106-.072.194-.125.277-.04.059-.079.135-.17.13.039-.066.085-.124.13-.183zm-.67.376a2.44 2.44 0 0 1 .801-.047c.217.012.44.03.651 0 .187-.019.366-.075.526-.164.184-.118.329-.277.506-.412a.456.456 0 0 1 .217-.083.517.517 0 0 1-.144.189 2.664 2.664 0 0 1-.75.447 4.26 4.26 0 0 1-.664.194c-.125.023-.256.041-.381.064-.151.024-.303.018-.454.053-.177.042-.361.077-.526.16-.164.07-.309.176-.44.293-.072.065-.112.141-.178.212-.006 0-.02-.006-.026-.006.007-.117.066-.23.118-.341.139-.276.428-.476.743-.559zm.302-1.335a7.12 7.12 0 0 0-.23.282 1.472 1.472 0 0 0-.25.606c-.013.106 0 .212-.013.318-.046.041-.105.053-.158.076-.099.041-.19.1-.276.16.059-.142.131-.277.177-.424.086-.265.138-.553.322-.788.119-.13.257-.242.408-.342.105-.07.204-.147.316-.211-.08.123-.204.211-.296.323zm.854-.423c-.105.088-.256.105-.387.14.072-.129.25-.123.387-.14zm.158-1.43c-.006.112-.02.236-.105.324-.046-.112.02-.241.105-.324zm-.532-.182c-.04-.065-.112-.106-.158-.17 0-.012.006-.03.006-.042a.57.57 0 0 1 .316.394c-.072-.04-.118-.117-.164-.182zm-.046 1.159a.6.6 0 0 0 .21-.241c.033-.089.053-.183.066-.277.02-.112-.027-.223-.027-.341.086.07.112.176.138.276a.533.533 0 0 1-.098.43c-.092.118-.165.253-.276.359-.217.217-.493.382-.743.564-.072.053-.132.124-.224.16.02-.071.08-.125.132-.177.25-.277.52-.536.822-.753zM8.87 4.843c.105-.2.131-.424.21-.635.06-.141.151-.277.27-.383.079-.07.164-.147.27-.194-.086.153-.244.265-.316.424-.106.188-.08.406-.106.611a1.116 1.116 0 0 1-.052.33c-.092.241-.237.465-.296.717-.053-.064-.06-.14-.066-.217-.006-.083-.02-.17-.026-.253a.92.92 0 0 1 .112-.4zM6.09 2.22c.124.04.249.111.288.235a.825.825 0 0 1-.289-.235zm.203-.118c.105.041.184.112.276.165.085.053.19.094.237.182a1.126 1.126 0 0 1-.388-.2.386.386 0 0 1-.125-.147zm.756.694c-.237-.1-.467-.235-.605-.435.06 0 .105.041.158.07.118.065.243.112.368.16.204.07.381.2.486.37-.144-.035-.276-.106-.407-.165zm1 1.165c-.093-.112-.225-.194-.33-.294a1.974 1.974 0 0 1-.302-.353c-.066-.106-.151-.2-.204-.312.25.082.487.253.579.488.079.182.217.341.348.494.105.124.23.236.342.359a.833.833 0 0 0 .302.224c-.013.129-.085.247-.15.358a1.145 1.145 0 0 1-.093-.147c-.079-.176-.197-.335-.29-.506-.065-.105-.124-.217-.203-.311zm-.514 3.211a.665.665 0 0 0 .395-.394c.079-.23.125-.465.157-.7.02-.23.04-.464.073-.694h.046c.04.23.085.465.105.7.013.184-.007.369-.06.547-.045.159-.144.294-.23.435-.078.118-.17.247-.328.294-.112.042-.256-.017-.296-.123.04-.036.092-.047.138-.065zm.243.4c-.006.13-.032.259-.059.388a11.14 11.14 0 0 0-.19-.406c.079 0 .164.006.25.018zm-.637-.53c.04.148.092.289.151.436.079.212.197.412.283.63.065.176.144.346.184.523.066.223.092.458.125.688.02.159.098.306.131.465-.112-.083-.164-.206-.23-.318-.17-.288-.237-.612-.302-.93a1.786 1.786 0 0 0-.158-.44c-.066-.183-.164-.347-.224-.53-.039-.112-.052-.235-.065-.353a.773.773 0 0 1 .02-.347.58.58 0 0 1 .085.177zm-.21-3.005c.045.018.098.035.131.077.099.106.112.247.145.376.013.077.032.159.006.235-.066.065-.144.118-.217.177.066-.188.145-.383.092-.583-.02-.105-.098-.188-.158-.282zM6.8 5.22c.072-.04.151-.07.217-.123.118-.1.223-.206.355-.288.105-.065.197-.147.302-.218a.567.567 0 0 1-.157.247c-.152.13-.369.188-.494.341-.098.112-.184.241-.276.353 0-.106.007-.212.053-.312zm.013.46c.092-.1.145-.23.237-.336a.992.992 0 0 1 .388-.282c-.02.14-.165.235-.27.335-.105.088-.118.23-.204.323-.059.065-.125.13-.17.2-.098.153-.205.3-.323.441-.157.206-.276.447-.282.7-.02.177-.02.353-.033.53a.326.326 0 0 1-.151-.1c-.046-.053-.027-.124-.014-.189.04-.194.046-.394.1-.588.058-.217.19-.417.328-.605.105-.16.263-.289.394-.43zm-.375-.495c.014-.1.007-.206.02-.306.072.106.112.23.112.353-.02.224-.112.435-.237.624-.052.082-.092.17-.164.24.006-.317.217-.593.27-.91zm-.17-.494c.039.212 0 .424-.08.623-.032.1-.072.2-.137.289-.066-.16-.046-.336-.046-.506-.007-.194.02-.394.013-.588-.007-.106-.027-.212-.04-.318.178.112.263.312.29.5zm-.395-1.123c.02.07.013.147.013.223 0 .082.033.159.066.235-.072-.029-.131-.082-.138-.153-.013-.105-.013-.223.06-.305zm-.29.247c.185.223.27.511.264.794-.053 0-.105.006-.151-.012-.046-.059-.04-.141-.053-.206-.013-.194-.125-.382-.06-.576zm.244 1.27c-.066-.035-.105-.088-.151-.141-.072-.082-.171-.147-.243-.23.138.03.27.065.407.083a.713.713 0 0 1-.013.288zM4.65 3.102c-.118-.07-.256-.124-.335-.23.145.054.27.124.408.183.059.03.118.047.17.088.027.035.027.083.04.124-.112-.036-.184-.118-.283-.165zm.375-.041c-.066-.277-.17-.577-.04-.859.04.1.02.206.02.312.007.13.027.253.06.376.059.247.236.459.302.706.04.147.072.294.085.441.014.13.053.253.066.382-.085-.058-.105-.158-.145-.24a19.39 19.39 0 0 1-.348-1.118zM5.02 4.343a.665.665 0 0 1-.283-.2.546.546 0 0 1-.125-.2c.177.088.296.247.408.4zm-.526-.418c.072.1.092.218.177.312a1.3 1.3 0 0 0 .368.259.334.334 0 0 1 .138.106c-.15-.03-.296-.077-.447-.088-.131-.018-.263-.006-.394-.03.04-.053.098-.1.098-.165a.752.752 0 0 0-.039-.27c-.026-.077-.079-.147-.125-.212a.235.235 0 0 1 .224.088zm-.737-.105c-.184-.136-.361-.289-.46-.489a.864.864 0 0 1-.046-.588c.053.118.053.247.092.37.046.13.112.254.21.354.145.153.342.24.526.353.152.094.224.27.191.435-.059-.024-.079-.083-.118-.13-.092-.129-.263-.2-.395-.305zm.993.911a3.585 3.585 0 0 0-.717-.07c-.078-.006-.17.017-.223-.042.21-.011.414-.023.624-.023.296 0 .592.059.855.188.204.112.381.265.493.459.02.03.013.059.013.094-.092-.088-.158-.2-.263-.282a2.004 2.004 0 0 0-.782-.324zm-.053.524c.086.017.171.029.257.035-.013-.059-.033-.112-.04-.17.013-.054.06-.095.092-.142.165.053.322.147.447.259.178.182.276.406.375.63.026.07.099.135.079.217-.026.112-.072.223-.053.341.04.277.014.565-.052.835-.013 0-.033-.006-.04-.006-.065-.158-.105-.323-.197-.47a.749.749 0 0 0-.329-.253c-.052-.023-.118-.053-.15-.1a.715.715 0 0 1-.106-.241c-.007-.124.06-.247.02-.365-.046-.165-.23-.247-.296-.4-.04-.053-.026-.117-.007-.17zm.165 1.117c-.06-.017-.138-.035-.138-.1-.02-.182.065-.353.085-.53.08.107.06.236.033.36a.63.63 0 0 0 .02.27zm-.815-.559c.065.083.092.183.164.265.138.159.329.277.52.377.21.105.427.194.617.329.112.082.165.212.197.335.053.194.138.394.323.518.092.07.216.123.262.23a.494.494 0 0 1-.13.287c-.086-.094-.165-.194-.25-.294-.093-.111-.132-.247-.191-.376-.092-.194-.125-.424-.283-.594a1.441 1.441 0 0 0-.546-.336c-.21-.082-.44-.17-.572-.352a.54.54 0 0 1-.111-.389zm1.702 2.318c-.059 0-.131.012-.184-.03-.125-.105-.177-.258-.217-.405-.026-.095-.059-.189-.052-.289.118.136.157.312.25.46.059.087.15.164.203.264zM3.822 6.149a1.16 1.16 0 0 0-.23-.418c-.066-.076-.164-.112-.237-.176.171.011.296.14.388.258.125.16.105.377.237.536.072.094.204.111.283.2-.073.005-.152.011-.21-.03-.132-.088-.185-.235-.23-.37zm.565.5c.204 0 .441.035.585.176-.098.006-.19-.03-.289-.041-.19-.03-.381.006-.565.035-.164.024-.316.077-.48.1.21-.164.473-.276.75-.27zm-.591.464a1.29 1.29 0 0 1-.368.006c-.073-.012-.152-.017-.204-.065.125-.011.25-.005.375-.035.309-.065.624-.141.946-.13.19.007.401.077.513.224-.099-.03-.19-.082-.296-.088-.329-.035-.644.047-.966.088zm.447.389c-.027-.089 0-.183 0-.277.197-.024.407-.059.591.024a.443.443 0 0 1 .237.253c-.112 0-.217-.012-.329.011-.105.024-.203.07-.315.059-.066-.012-.138-.023-.184-.07zm.144.276c.04-.03.08-.059.132-.077.164-.064.329-.152.513-.123a.912.912 0 0 1-.178.07c-.158.042-.302.124-.467.13zm.717.165c-.079-.083-.197-.118-.302-.17.085-.042.197-.077.295-.042.086.035.106.123.132.194.02.076.066.147.112.212-.099-.042-.165-.118-.237-.194zm-1.532.194c.033.058.06.117.086.176.04.088.098.165.138.247-.046-.006-.105.006-.132-.035-.065-.112-.092-.241-.125-.365a.14.14 0 0 0 .033-.023zm-.854.2c.105.047.19.123.296.164.098.047.216.065.308.13a.868.868 0 0 1-.565-.136c-.118-.07-.25-.158-.296-.282l.257.124zm-.388-.753c-.046-.012-.099-.018-.132-.053-.02-.065-.02-.13-.026-.194.092.065.118.159.158.247zm-.894.059c-.158 0-.322-.018-.447-.106A.288.288 0 0 1 .89 7.39c.06.017.106.064.152.1.065.059.164.076.256.088.23.03.46.012.683.035.139.018.27.088.355.183.08.088.158.176.21.282-.118-.041-.183-.135-.275-.206a.976.976 0 0 0-.31-.176 1.974 1.974 0 0 0-.525-.053zm.868.788c-.184-.153-.184-.418-.395-.547-.079-.065-.204-.047-.289-.1.046-.012.085-.024.131-.018.138.024.283.059.382.153.177.159.203.412.4.565.198.153.444.245.704.264.079.006.151.012.23.03-.118.047-.243.082-.361.123a.833.833 0 0 1-.21.042c-.027-.083-.047-.171-.12-.236-.13-.135-.34-.153-.472-.276zm-.52.47c.184-.017.349.06.513.112.204.076.427.106.644.065.171-.035.335-.07.5-.124.144-.047.296-.059.447-.064-.033.047-.099.07-.158.088-.164.053-.335.111-.506.135-.25.035-.5.059-.75.012-.19-.036-.368-.118-.558-.153-.125-.024-.243.018-.362.023.053-.07.145-.088.23-.094zm.552.383c-.144-.036-.262-.142-.42-.136a.612.612 0 0 0-.381.13c-.093.059-.152.14-.237.206.006-.077.072-.142.112-.206.078-.118.197-.241.361-.241.283-.012.5.188.776.223.348.047.697-.012 1.032-.076.276-.053.532-.177.769-.312.348-.218.717-.43 1.137-.53.132-.029.276-.052.408 0a.699.699 0 0 1 .256.16c-.118-.024-.23-.077-.348-.083a1.317 1.317 0 0 0-.48.047 2.088 2.088 0 0 0-.513.27c-.138.1-.276.212-.427.307-.414.24-.92.335-1.414.317a2.85 2.85 0 0 1-.63-.076zm-.821 1.705c0-.012-.007-.029-.007-.04.105-.018.204-.042.31-.066-.06.1-.191.124-.303.106zm.92.189c-.138-.048-.283-.148-.296-.289-.02-.106.04-.2.105-.276.02.076.027.153.046.223.027.118.1.224.145.342zm-.322-.712c-.125.123-.217.282-.381.365-.053.029-.112.023-.171.023.17-.147.342-.3.473-.476.118-.153.256-.294.42-.406a.588.588 0 0 1 .178-.077c-.164.194-.355.37-.519.57zm.079-.5c-.092.076-.151.182-.237.264-.02-.094.033-.176.066-.264a.681.681 0 0 1 .256-.341c.112-.07.25-.053.382-.041.072.011.157.005.216.047-.25.076-.5.17-.683.335zm6.981 3.405a3.632 3.632 0 0 0-.204-.582 3.267 3.267 0 0 0-.315-.541c-.105-.147-.243-.265-.381-.388-.119-.106-.25-.194-.375-.294-.151-.118-.303-.236-.447-.365-.151-.135-.27-.294-.401-.441-.132-.165-.283-.312-.401-.488-.105-.153-.19-.318-.316-.465-.197-.235-.44-.459-.756-.559-.15-.053-.315-.047-.473-.04-.362.023-.684.205-1.052.229-.151.017-.289.082-.44.094-.198.011-.395.047-.592.03-.138-.019-.283-.024-.42-.036.164-.047.341-.018.506-.018.38.012.762-.065 1.13-.153.178-.041.349-.123.52-.182.223-.088.44-.212.696-.212.191-.012.382.041.56.094a.762.762 0 0 1 .413.33c.21.34.382.705.618 1.035.204.282.506.494.809.688.407.259.828.535 1.084.93.106.152.152.334.198.51.046.183.059.366.111.548.06.218-.032.541.014.87.046.353.15.441.197.53.118.212.309.388.42.606a1.07 1.07 0 0 1-.414-.277 1.133 1.133 0 0 1-.19-.359 1.268 1.268 0 0 1-.073-.44 2.644 2.644 0 0 0-.026-.654zM4.31 10.607c-.093.03-.191.041-.283.077-.145.046-.27.14-.427.17-.106.024-.204-.03-.29-.07-.118-.065-.25-.165-.23-.306.066.064.092.152.165.206a.561.561 0 0 0 .519.064c.223-.076.427-.188.65-.264-.026.047-.045.1-.104.123zm.059.27a1.92 1.92 0 0 1 .388-.458c.124-.124.276-.23.46-.288a.675.675 0 0 1 .118.147.945.945 0 0 0-.315.111c-.23.153-.415.353-.651.489zm.697-.346a.059.059 0 0 0-.014-.036c.106-.017.25-.053.33.041-.106.006-.211 0-.316-.005zm-.014-.97a1.325 1.325 0 0 0-.374-.09c0-.011.006-.029.006-.034.165-.03.329-.036.493-.047.224 0 .46.047.625.188a.807.807 0 0 1 .236.27c-.098.07-.243.06-.355.03-.223-.083-.414-.224-.63-.318zm.447.493c.138.03.257.106.401.106h.276a.39.39 0 0 1 .073.241c-.224.018-.428-.088-.605-.2-.06-.035-.138-.07-.145-.147zm.579.73a.949.949 0 0 1-.342-.212.384.384 0 0 1-.079-.183c.125.071.243.16.388.2.112.036.237.018.348.018.027.041.073.077.066.13a.411.411 0 0 1-.085.205c-.099-.047-.19-.111-.296-.159zm-.092 2.276a.523.523 0 0 1 .131-.277c.027-.023.06-.064.092-.07.007.076.04.917.152 1.188-.066.023-.106.04-.171.059-.046-.048-.178-.47-.184-.5a1.067 1.067 0 0 1-.02-.4zm-.151 1.57s.217-.241.256-.276c.158-.118.342-.23.552-.224.119.006.257-.006.355.059a4.01 4.01 0 0 0-.355.094c-.276.07-.48.277-.65.482-.033.041-.1.13-.132.177-.21.259-.388.547-.664.759-.013-.006-.033-.018-.04-.018.178-.259.31-.541.487-.8.06-.088.105-.188.19-.253zm-.927.906c.079-.135.131-.288.25-.406a1.89 1.89 0 0 0 .144-.165c.02-.035.072-.029.112-.04-.046.1-.112.187-.164.287a3.19 3.19 0 0 1-.27.447.98.98 0 0 1-.27.236c-.013-.012-.02-.03-.032-.042.09-.096.168-.203.23-.317zm-2.143 1.076c-.06.065-.112.136-.178.189-.026-.06.033-.106.066-.153.099-.112.177-.26.342-.306-.053.106-.151.182-.23.27zm.716-.011c-.033.047-.072.105-.138.117a.512.512 0 0 1-.322-.059c.072-.094.145-.194.243-.27a.72.72 0 0 1 .428-.088c-.073.1-.145.2-.21.3zm1.276-.106c-.224.017-.454 0-.684.035-.178.035-.303.153-.408.276-.033.047-.092.07-.15.083a.96.96 0 0 1 .13-.141c.119-.118.185-.277.316-.383.112-.1.276-.13.434-.147a.691.691 0 0 1 .309.041c.131.047.276.077.401.147-.105.065-.23.077-.348.089zm.032.635c-.006-.012-.02-.03-.026-.041.077-.087.151-.175.224-.265a.485.485 0 0 1 .19-.165.586.586 0 0 1 .178-.035c-.04.112-.145.188-.197.294a.434.434 0 0 1-.369.212zm.73-.247c-.026.065-.026.141-.052.206-.06.082-.185.1-.277.053a.716.716 0 0 1 .171-.283c.086-.094.178-.188.296-.247.158-.076.349-.07.513-.13.131-.046.23-.134.348-.193.027.082-.046.159-.105.217-.144.106-.342.106-.52.112a.444.444 0 0 0-.374.265zm1.9-.759a.92.92 0 0 1-.086.418c-.065.135-.19.235-.322.323-.039-.006-.033-.047-.006-.064a1.17 1.17 0 0 0 .223-.448c.04-.158.06-.323.125-.47.013-.03.04-.047.06-.065.026.1.006.206.006.306zm.335.206a.286.286 0 0 1-.17.2c-.007-.041-.014-.077-.007-.118.033-.182.033-.364.046-.547.013-.117.072-.247.204-.294-.02.112-.06.218-.06.335.007.142.02.289-.013.424zm.178-1.07c-.158.14-.401.146-.566.276a.913.913 0 0 0-.217.317c-.092.218-.085.46-.184.677-.072.141-.177.288-.342.347-.078.03-.157.006-.236-.012a2.928 2.928 0 0 1-.237-.059c.112-.035.25-.023.349-.088a.669.669 0 0 0 .25-.341c.098-.265.052-.565.21-.812.085-.147.27-.206.427-.264.178-.06.362-.124.513-.23.125-.088.263-.294.263-.294s-.033.353-.23.482zm.414 1.129c-.145-.07-.197-.23-.23-.365a1.737 1.737 0 0 1 .046-.688c.026-.077.072-.194.105-.259-.026.241-.06.535.053.765.059.135.177.23.289.33.085.07.197.105.289.158-.164.07-.368.118-.552.059zm.802.253a.603.603 0 0 1-.29-.006c.224-.135.513-.253.776-.141a2 2 0 0 1-.486.147zm1.61.388c-.085-.07-.124-.17-.216-.235-.106-.077-.218-.147-.31-.236a1.496 1.496 0 0 0-.374-.27c-.092-.053-.204-.06-.296-.118.164-.094.375-.135.559-.059.138.047.217.17.282.277.046.088.099.17.152.253.046.07.065.159.138.206.079.058.177.1.243.182a.175.175 0 0 1-.178 0zm1.335-.506a2.61 2.61 0 0 0-.526.053 1.437 1.437 0 0 1-.388.012v-.047c.125-.012.256-.024.375-.065.177-.047.348-.13.539-.106.144.024.276.088.394.165-.131.041-.263-.012-.394-.012zm1.091.076c.125-.017.243-.04.368-.035.033 0 .06.018.092.03a.743.743 0 0 1-.5.164 1.22 1.22 0 0 1-.427-.123c.158-.041.316-.012.467-.035zm-.52-.711a.76.76 0 0 1 .369.3c.02.023.02.053.013.082a2.09 2.09 0 0 1-.48-.388.18.18 0 0 1 .099.006zm-.84-.088c.104-.024.21 0 .308.035a.964.964 0 0 1 .316.23c.099.1.204.187.283.3-.257-.048-.46-.248-.737-.254-.217.03-.414.13-.618.195a.873.873 0 0 1-.46-.006c-.033-.012-.079-.018-.098-.053-.033-.077-.053-.16-.1-.23-.045-.07-.098-.147-.124-.23.112.042.21.113.329.148.126.03.259.034.388.012.177-.03.335-.106.512-.148zm-1.743-1.56c-.092-.07-.17-.105-.243-.164.072.018.125.041.197.059.119.03.368.094.487.153.118.065.256.147.348.253.092.112.217.306.25.441.04.17.046.306.19.47.066.077.165.148.224.218a.483.483 0 0 1-.394-.135c-.165-.159-.276-.365-.401-.577l-.125-.2c-.092-.129-.171-.24-.29-.329-.02 0-.21-.165-.243-.188zm.677-.075c-.046-.012-.164-.042-.21-.06-.224-.094-.42-.064-.723-.229 0 0-.23-.123-.302-.359.13.047.309.153.506.177.164.041.368.053.512.153.112.07.178.194.217.317zm-.289-.548c-.223-.029-.48-.053-.69-.123-.026-.006-.217-.094-.237-.13a.408.408 0 0 1-.04-.229c.1.047.356.17.468.2.072.024.236.053.322.106a.49.49 0 0 1 .177.176zm-4.306-1.082c-.046.077-.118.112-.164.16-.105.11-.138.205-.204.346-.033.07-.059.153-.105.218-.112.135-.197.288-.184.453l-.007.188c-.006.123.014.23 0 .358a.711.711 0 0 1-.223.448l-.158.129c-.072.082-.151.159-.204.247-.105.153-.164.323-.289.465-.204.24-.52.376-.835.453-.25.058-.519.052-.756.14a.534.534 0 0 0-.27.224c-.091.141-.17.294-.302.418-.118.117-.355.041-.447.194.092.006.178-.024.27-.03.118-.005.243.018.355-.029.112-.041.23-.141.361-.1.165.065.316.153.48.2.08.024.158-.018.224-.059.111-.076.236-.147.374-.176.119-.024.23.017.349.03.118.005.237 0 .361.011-.013.041-.026.088-.072.106-.072.023-.164.006-.223.059-.053.04-.132.082-.119.153.04.059.119.076.191.07.112-.011.197.06.302.065.105 0 .184-.07.283-.088.125.017.25.088.381.04.105-.058.171-.176.296-.205.151-.024.296.041.44.059.185.023.369.03.546-.018.151-.035.31-.053.46-.1.171-.047.322-.13.493-.165.119-.029.237-.052.362-.047.217.018.427.047.638.071.216.023.433-.024.65-.041.316-.035.651-.012.94.112.132.053.204.17.329.235.105.03.217-.018.322-.012.06-.006.151.024.165-.047.039-.1-.027-.2-.08-.282.185-.03.375.006.553-.024.342-.059.703-.064 1.039.047.23.077.493.13.736.053.131-.03.236-.112.355-.159.105.112.197.242.342.312.124.059.276.094.407.03-.006-.095-.079-.165-.118-.247-.04-.077-.066-.171-.138-.23-.086-.082-.217-.082-.329-.094-.072-.041-.112-.112-.19-.147-.119-.047-.257-.006-.375-.03-.119-.123-.151-.3-.276-.423-.132-.141-.33-.212-.52-.253-.138-.03-.276-.065-.414-.082-.184-.018-.414-.035-.611-.159-.178-.094-.204-.7-.428-.97-.131-.16-.105-.371-.21-.536-.033-.07-.263-.476-.374-.559-.139-.1-.395-.247-.54-.411-.17-.2-.098-.483-.21-.73a1.391 1.391 0 0 0-.066-.14c-.052-.107.04-.224.106-.313.138-.158.138-.376.276-.535a1.08 1.08 0 0 1 .46-.329c.164-.059.348-.041.519-.065.151-.023.303-.047.454-.017.079.011.164.053.204.117.046.065.026.147 0 .218-.046.135-.191.212-.31.294-.091.065-.203.076-.302.123-.072.036 0 .118.066.106.184-.023.329-.13.48-.206-.033.071-.092.136-.119.206-.026.065-.026.16.033.194.013.006.046.012.06.006.072-.047-.007-.17.026-.247.026-.07.105-.112.125-.182a.744.744 0 0 1 .085-.194c.138-.206.046-.477-.131-.641-.073-.077-.178-.106-.277-.135.033-.1.092-.195.139-.289a.727.727 0 0 1 .348-.335c.145-.07.316-.077.473-.082.086-.006.152.053.204.111.092.1.112.236.131.36.033.258-.124.51-.078.77.02.129.131.23.243.306.105.07.256.047.362.129.085.065.19.1.302.088.197-.011.355-.13.532-.2.178-.07.368-.123.566-.106.124.012.197.124.223.224.026.106-.19.259-.066.294.171.053.152-.253.138-.388.073-.006.158.011.21-.041.066-.071.244-.136.198-.218-.013-.03-.066 0-.099.012-.085.023-.118.123-.21.135-.125 0-.23-.082-.335-.135-.112-.06-.243-.065-.362-.088a3.21 3.21 0 0 1 .237-.336c.138-.147.302-.288.513-.347.098 0 .197.041.276.1.079.082.085.206.203.27.046.024.119.018.125-.017.007-.053-.105-.059-.144-.1-.066-.07-.066-.182-.099-.27.112-.042.381-.118.276-.2-.066-.053-.151.076-.23.111-.17.053-.361-.04-.532.018-.198.071-.383.17-.546.294-.158.118-.315.247-.5.335-.105.053-.256.089-.354.012a.461.461 0 0 1-.119-.282c.013-.118.072-.23.066-.353-.007-.141-.04-.306.066-.43.085-.135.27-.152.42-.176.25-.024.493-.135.75-.076.072.035.112.094.17.147.06.058.145.082.224.111 0 .03-.02.07.007.089.026.017.079.011.098-.018.027-.03-.013-.07-.02-.106.027-.03.08-.041.093-.082.006-.018 0-.047-.02-.053-.06-.012-.092.07-.132.111-.092-.023-.138-.105-.203-.158a2.632 2.632 0 0 0-.375-.247c.136-.115.268-.235.394-.36.086-.087.145-.193.257-.258.131-.076.296-.07.42-.153.08-.047.257-.135.178-.194-.092-.07-.21.106-.322.147-.112.035-.237.047-.335.112-.112.082-.198.188-.316.265a4.673 4.673 0 0 1-.48.276 1.212 1.212 0 0 1-.407.13c.012-.108.014-.216.006-.324 0-.07-.006-.159.066-.206.145-.018.276.059.394.124.06.035.138.011.184-.036.033-.03.02-.076.027-.117-.073.023-.112.111-.19.082-.12-.047-.238-.1-.362-.141.046-.047.092-.088.138-.141-.007-.047-.08-.03-.119-.042-.006.042.007.083-.013.118-.079.077-.204.1-.263.194-.079.13-.072.3-.197.412-.046.047-.125.047-.19.023-.198-.058-.375-.164-.566-.24-.164-.065-.348-.048-.52-.042-.137.006-.269-.047-.4-.076a1.558 1.558 0 0 0-.736.011c-.119.03-.218.095-.33.142-.026-.083-.039-.177-.104-.247-.033-.048-.092-.095-.08-.16a.403.403 0 0 1 .093-.252c.04-.041.118-.03.15.012.04.047.073.1.12.147a.422.422 0 0 0-.06-.236c-.053-.088-.21-.1-.276-.017-.079.088-.105.206-.145.306-.131-.03-.276-.112-.407-.042-.19.083-.178.336-.046.453.111.094.256-.094.177-.182-.066-.024-.164-.012-.184-.094a.232.232 0 0 1 .138-.053c.105-.006.243-.018.303.082.032.1.02.2.006.3-.059.247-.21.5-.48.606a1.088 1.088 0 0 1-.434.076c-.131-.011-.197-.135-.216-.235a1.026 1.026 0 0 1 .118-.694c.066-.112.17-.2.276-.282a3.49 3.49 0 0 1 .835-.43.256.256 0 0 1 .256.042c.132.106.21.253.349.353.079.058.184.076.269.129.072.041.145.106.237.112.092.006.197.006.263-.053.079-.06.111-.165.21-.206.066-.03.164.023.145.082-.013.041-.119.053-.106.1.02.053.152.018.178-.04.033-.095-.06-.195-.158-.218-.079-.024-.158.029-.23.052-.04-.088-.118-.3-.197-.223-.053.047.079.112.092.182-.013.13-.204.177-.316.124-.085-.07-.131-.17-.177-.265-.04-.106-.105-.206-.145-.318a2.14 2.14 0 0 1 .697-.094c.224 0 .414.112.611.189.158.058.342.047.507.094.177.058.328.159.493.247a.65.65 0 0 0 .394.053c.112-.018.23-.036.316-.106.105-.1.138-.247.263-.33.111-.047.27.006.355-.094-.125-.005-.25 0-.369.03-.138.053-.177.194-.256.294-.04.053-.105.076-.17.1.072-.083.17-.147.203-.247.046-.094 0-.194-.007-.288.073-.024.145-.036.21-.071.04-.03.027-.082-.012-.106-.073-.041-.171-.03-.224.035-.098.118-.026.277-.085.412-.04.083-.106.177-.217.188-.132.018-.257-.047-.355-.117-.158-.112-.355-.183-.533-.27-.118-.06-.256-.066-.361-.148a.797.797 0 0 1 .164-.07c.138-.036.263-.112.408-.124a1.75 1.75 0 0 0 .788-.294c.184-.13.31-.324.526-.412.119-.053.263-.047.395-.059.157-.005.328-.005.473.065.092.065.112.177.112.27.006.054-.013.124.046.16a.757.757 0 0 0 .006-.365c-.02-.088-.105-.147-.177-.2.131-.035.283-.024.407-.088.04-.018.06-.053.086-.083-.132.024-.256.077-.395.065-.295-.012-.578-.118-.874-.1-.151.006-.296.053-.434.088.033-.082.073-.159.092-.241.033-.153.033-.312.04-.465.006-.076.006-.158.052-.223.086-.1.23-.153.369-.17.118-.018.262-.012.354.07.112.094.066.247.158.347.02.023.06.023.092.035-.046-.082-.098-.164-.111-.253a.386.386 0 0 0-.106-.176c.112-.047.23-.1.263-.212-.144.03-.263.118-.42.118-.171.006-.342-.089-.513-.047-.151.047-.19.194-.27.305-.111.147-.164.324-.21.495-.02.064-.04.129-.085.176a.63.63 0 0 1-.185.118c-.105.04-.223.04-.335.047-.105.006-.204.023-.309.04.04-.064.08-.123.119-.187.072-.13.111-.27.124-.418.014-.124.086-.23.145-.341.06-.088.112-.182.204-.253.138-.112.315-.176.467-.27.085-.053.15-.136.25-.154.144.006.282.06.427.036.079-.012.21-.07.164-.124-.053-.059-.158.07-.243.077a1.006 1.006 0 0 1-.322-.035c.046-.083.125-.16.125-.26 0-.105.052-.282-.06-.317-.026-.006-.046.03-.059.053-.052.094.105.194.053.294a.606.606 0 0 1-.204.235c-.164.06-.342.053-.506.094-.092.024-.171.077-.256.118-.02-.076.006-.159 0-.241-.007-.153-.1-.294-.092-.447a.352.352 0 0 1 .157-.212c.099-.03.204.024.303-.006.065-.017.223-.064.17-.117-.065-.065-.183.053-.282.047-.072 0-.151-.012-.224.012a.39.39 0 0 0-.21.14c-.033.054-.046.112-.066.171-.092-.064-.111-.176-.111-.276-.007-.13.295-.218.184-.294-.152-.106-.29.235-.276.405 0 .124.092.224.124.342a.683.683 0 0 1-.026.47c-.052.124-.19.188-.263.3-.059.077-.079.17-.105.259-.026.094-.131.141-.184.23-.092.14-.158.293-.276.423-.197.23-.473.388-.743.53a.865.865 0 0 1-.217.087c.033-.211-.013-.423.026-.635.014-.065.014-.135.046-.194.02-.041.073-.059.112-.076.092.07.138.2.263.223.158.03.29-.123.276-.253 0-.088-.144-.153-.197-.064.04.047.112.1.085.164-.026.094-.184.088-.236.018-.066-.07-.105-.182-.217-.194-.092-.012-.138.07-.204.112-.053.005-.105 0-.158.011-.052.024-.072.077-.098.118.02-.006.046-.006.066-.012.078-.017.144.07.124.135-.026.106-.085.206-.138.306a1.018 1.018 0 0 1-.374.424c-.178.1-.382.176-.592.188-.223.018-.434.094-.657.1 0-.077 0-.153.039-.218a.52.52 0 0 1 .375-.23c.112-.017.217-.064.328-.07.092.024.171.089.27.1a.205.205 0 0 0 .164-.053c.033-.029.046-.082.02-.105-.06-.047-.138.07-.21.094-.066 0-.112-.047-.158-.077.098-.041.21-.059.296-.117.105-.071.131-.242.013-.312-.046-.041-.145-.006-.138.053 0 .076.046.17-.013.23-.086.082-.257.076-.382.029-.079-.024-.15-.053-.23-.077.125-.13.27-.247.42-.353.116-.079.248-.135.389-.164a2.938 2.938 0 0 0 1.006-.418c.131-.088.236-.188.355-.288a.512.512 0 0 0 .098-.106c.119-.17.217-.347.362-.506.065-.065.15-.118.204-.188.072-.094.144-.2.138-.318 0-.064-.02-.135 0-.2.052-.094.157-.153.25-.206.124-.064.236-.153.368-.194.105-.035.223-.047.328-.082a.492.492 0 0 0 .25-.265c.02-.047.066-.123.138-.106.06.036.086.106.151.141.04.012.08.006.125.006-.04-.053-.118-.082-.151-.14-.033-.071-.112-.113-.184-.148a.753.753 0 0 0 .026-.382c-.006-.059-.033-.118-.02-.177.04-.053.092-.1.132-.147-.099-.029-.164.053-.197.124-.06.153.085.312.02.465-.047.129-.171.217-.296.288-.073.035-.152.035-.23.035-.132 0-.263 0-.395-.006-.013-.123-.04-.247-.052-.376-.013-.1.131-.294.21-.2.033.04-.046.112-.007.147.027.023.092.012.119-.018.046-.053-.014-.13-.06-.17-.065-.065-.17-.06-.256-.071.007-.07.027-.135.027-.206a.203.203 0 0 0-.1-.176c-.065-.006-.144.07-.183.03-.053-.048.098-.166.04-.2-.1-.06-.198.24-.073.276.072.017.145-.03.21-.047.06.094.04.2-.006.294-.053.111-.138.211-.178.33-.046.123-.046.258-.085.387-.027.1-.145.147-.204.235-.079.112-.118.247-.223.342-.093-.083-.112-.2-.185-.294a2.895 2.895 0 0 0-.381-.4.616.616 0 0 1-.17-.3c-.04-.13.065-.277.21-.312.079.112.15.253.309.3.111.035.289-.041.256-.147-.013-.041-.072-.065-.112-.047-.052.023-.026.117-.079.14-.151.06-.27-.146-.282-.276.098-.047.197-.094.262-.182.047-.059.04-.13.047-.194.006-.053.052-.165-.014-.165-.105 0-.026.183-.059.27-.026.066-.105.095-.177.124-.099.042-.204 0-.31.018-.104.053-.137.165-.157.265-.066.276.06.553.204.788.105.159.204.33.197.517a1.103 1.103 0 0 1-.243.589c-.086.135-.21.24-.349.335a1.76 1.76 0 0 1-.927.33 4.68 4.68 0 0 0 .171-.595c.033-.117.053-.24.112-.353.06-.1.19-.182.322-.153.027.083.046.177.125.23.046.035.118.035.171.006.046-.03.06-.077.085-.118a.134.134 0 0 0-.045-.012c-.04.012-.08.041-.119.041-.111-.04-.125-.176-.236-.217a.464.464 0 0 0-.474.2c-.164.24-.243.535-.473.747a.434.434 0 0 1-.04-.4c.04-.094.165-.135.21-.218-.006-.117-.255-.159-.282-.023.066-.006.138-.012.204-.012-.066.106-.204.147-.256.265-.086.14-.06.311-.1.464a.214.214 0 0 1-.236.17c-.02-.105.013-.217.027-.323a.963.963 0 0 1 .138-.417 1.63 1.63 0 0 1 1.117-.73c.138-.023.276 0 .414-.017.125-.024.198-.13.31-.177.052-.011.078.041.072.083-.007.07-.106.164-.053.217.033.03.105.006.132-.035.046-.065.072-.147.039-.218-.046-.064-.131-.094-.184-.147-.086-.088-.138-.247-.27-.247-.046 0-.033.077 0 .118.04.041.112.076.086.135-.027.053-.073.13-.151.118-.244-.012-.48-.03-.723-.047.039-.094.098-.183.13-.277.04-.117.133-.211.179-.329.078-.212.164-.43.19-.653.013-.118-.007-.241.04-.359.039-.1.111-.188.131-.288.026-.088.046-.206.164-.235.119-.035.283-.053.329-.177-.06.024-.112.06-.17.083-.08.03-.165.023-.231.064-.053.024-.118.077-.177.036-.06-.047-.1-.112-.165-.147.007.123.165.182.165.305.006.083-.066.142-.112.2a.818.818 0 0 0-.171.353c-.02.077-.033.16-.099.218-.085-.1-.144-.218-.204-.33-.098-.17-.322-.217-.466-.346-.066-.065-.165-.142-.125-.236.026-.088.204-.247.085-.264-.138-.018-.131.217-.197.323-.21-.135-.329-.376-.276-.611.026-.118.302-.23.19-.3-.085-.053-.144.123-.197.194-.078.1-.065.235-.046.347.053.235.27.388.454.547.138.117.25.264.355.405.06.077.118.16.164.247.06.112.06.242.046.36-.02.17-.138.323-.282.429-.066-.112-.092-.236-.138-.353-.04-.118-.086-.23-.092-.353-.007-.03.026-.047.046-.059.046-.03.138-.07.157-.012.02.06-.085.141-.026.177.145.082.066-.312-.085-.294-.086.011-.21-.018-.25.053-.02.04.066.076.059.117-.007.07-.013.147-.026.218h-.04a.49.49 0 0 1-.21-.359c-.013-.1.079-.176.092-.27-.013-.077-.079-.136-.138-.183-.092-.07-.224-.03-.329-.053-.046-.035-.033-.112-.085-.13a.08.08 0 0 0-.04.003.073.073 0 0 0-.033.021c-.02.036.007.083.04.112.059.047.145.047.217.053-.013.065-.08.159-.013.194.02.012.052.006.072-.006.06-.035.079-.106.125-.159.026.024.066.047.072.089.026.123-.06.24-.04.37.02.2.159.37.27.541.086.13.158.283.125.436-.026.1-.125.17-.223.211-.283.135-.585.277-.783.512-.065.077-.092.176-.164.247a.78.78 0 0 1-.105-.147c-.066-.124-.046-.265-.013-.394.04-.182.17-.33.27-.488.085-.13.203-.253.223-.412.013-.112-.099-.182-.151-.276a.765.765 0 0 0-.139-.147c.093-.106.31-.071.25-.177-.02-.035-.098-.059-.144-.018a.638.638 0 0 0-.119.189l-.079-.071c-.04-.041-.092-.088-.164-.082-.052.006-.118.035-.118.076 0 .03.04.059.079.065.052.006.111-.041.164-.024.145.042.178.212.256.324.046.07.086.165.027.235-.099.135-.244.241-.375.353-.079.07-.138.159-.197.241-.105-.106-.125-.253-.158-.388-.033-.206-.131-.406-.151-.618a2.123 2.123 0 0 1 .02-.576.996.996 0 0 1 .124-.335c.073-.106.224-.136.303-.236.072-.088.092-.2.158-.288.085-.106.236-.135.341-.223a.18.18 0 0 0 .04-.224C9.252.45 9.167.438 9.127.385c-.026-.042.02-.13-.033-.142-.04-.005-.033.065-.033.1 0 .095.106.147.158.218-.066.124-.223.159-.348.23-.086.046-.138.129-.19.205l-.12-.07c-.006.094 0 .2-.058.282-.066.077-.171.118-.237.2-.079.094-.164.182-.237.277-.079.1-.111.229-.17.34-.086-.07-.158-.152-.244-.217a2.608 2.608 0 0 1-.335-.306c-.04-.053-.092-.118-.072-.182.026-.1.085-.194.111-.294a.356.356 0 0 0-.105-.341c-.04-.047-.098-.089-.092-.153 0-.112.23-.236.132-.3-.119-.077-.217.211-.184.347.02.076.118.135.085.212-.112-.077-.263-.253-.368-.16-.013.012-.013.036 0 .054.052.052.158.017.223.058.066.048.132.083.198.124.032.088-.02.176-.046.259-.066.147-.099.311-.04.464.072.17.19.33.322.47.092.1.23.166.296.283.026.041.02.083.013.13-.013.117-.02.24-.006.358.026.165.111.318.184.47.072.142.164.277.295.383.139.118.277.235.408.365a.734.734 0 0 1 .21.341.57.57 0 0 1-.144-.088c-.171-.17-.342-.347-.513-.518-.25-.27-.342-.63-.592-.9-.144-.135-.295-.27-.493-.34-.111-.036-.138-.148-.217-.218-.072-.065-.164-.1-.25-.147a1.204 1.204 0 0 1-.328-.253c-.072-.071-.112-.177-.072-.27.026-.083.105-.148.15-.219.034-.058 0-.123-.025-.182l-.053.03c0 .035 0 .07-.007.105-.006.13-.164.206-.157.336.006.164.111.305.125.47-.125-.04-.237-.117-.375-.112-.171-.005-.283.13-.44.153a.268.268 0 0 1 .013-.123.146.146 0 0 0-.093.165c.066.011.132.035.204.023.092-.035.171-.135.29-.106.19.041.322.182.466.288.138.112.303.206.46.294.244.136.467.336.566.583-.132.011-.243-.07-.375-.077-.131-.017-.263.012-.388.03-.046.006-.079-.03-.112-.053.02-.047.106-.112.06-.141-.04-.03-.092.047-.112.094-.013.047-.007.1-.007.153-.046.023-.098.04-.131.076-.04.053-.06.141-.007.177a.08.08 0 0 0 .053 0c.06-.042.02-.16.105-.189a.57.57 0 0 1 .197.012c.171.03.342.053.5.124.138.058.263.14.394.217.19.118.388.253.487.447.092.153.092.33.111.5.02.188-.026.37-.052.553-.052.215-.098.43-.138.647-.046.265-.046.547-.165.794-.078.153-.223.306-.414.335-.02-.053-.046-.1-.059-.158-.046-.183-.079-.371-.118-.56-.046-.258 0-.517.046-.77.04-.176.237-.264.322-.417.072-.141.118-.306.27-.4.072 0 .131.088.203.059.04-.024.073-.077.04-.118-.033-.07-.138-.053-.204-.065.026-.159.118-.317.04-.476-.047-.112-.218-.17-.336-.106-.046.023-.046.076-.033.112.033.03.086.023.132.03.02.04.059.075.046.123a.624.624 0 0 1-.349.329c-.026-.176-.013-.37-.138-.518-.092-.123-.25-.182-.388-.247.04-.035.132-.064.119-.117-.007-.053-.105-.053-.171-.036-.066.018-.072.083-.092.13-.04-.006-.086-.006-.112-.035-.02-.03.007-.083-.026-.1-.033-.018-.092 0-.112.029-.079.118.21.153.322.218.164.1.27.276.243.458-.026.2-.125.389-.243.56-.066-.06-.092-.142-.145-.207-.065-.088-.164-.153-.223-.247-.138-.223-.316-.435-.362-.694-.026-.194-.039-.412.073-.582.052-.088.151-.141.21-.224.033-.047.092-.147.033-.17-.066-.024-.085.1-.118.153-.027-.047-.053-.094-.092-.136-.053-.047-.171-.1-.21-.047-.047.07.177.065.196.136.04.14-.13.253-.223.359-.092.105-.125.235-.178.358-.111-.094-.184-.211-.269-.323-.25-.37-.388-.812-.335-1.241.013-.159.105-.294.118-.453 0-.188-.19-.324-.197-.506.033-.106.328-.165.23-.235-.086-.06-.197.094-.263.176-.033.047-.007.112-.007.165a.363.363 0 0 1-.177-.077c-.066-.047-.053-.14-.112-.194C4.71.99 4.683.98 4.67.984c-.059.048.013.142.06.195.085.088.242.106.321.2.073.117.014.252-.02.376-.085.324-.197.647-.19.982.007.077.013.153.007.23-.263-.053-.52-.141-.71-.318-.138-.135-.086-.341.02-.476.045.023.091.076.137.058.073-.029.014-.164-.072-.188-.079-.023-.112.065-.138.118-.046.118-.118.241-.105.376.079.26.329.424.559.57.197.113.394.248.493.448.085.2.085.417.164.623a.38.38 0 0 1 .02.118c-.158-.088-.237-.247-.368-.365-.106-.094-.244-.14-.375-.194-.171-.065-.362-.082-.54-.147-.11-.035-.183-.123-.262-.194A.691.691 0 0 1 3.5 3.12c-.086-.2-.118-.412-.217-.606-.066-.13-.256-.23-.237-.37.02-.113.237-.242.132-.312-.007-.006-.033 0-.04.005-.105.083-.15.206-.203.324-.112-.006-.296-.13-.322-.035-.033.094.203.07.302.117.072.036.092.112.118.177.04.106.125.194.132.311.013.106 0 .212.013.318a1.09 1.09 0 0 1 0 .206c-.112-.012-.21-.059-.322-.07-.21-.018-.42-.03-.631-.048-.151-.012-.237-.276-.349-.194-.04.024.027.082.027.124 0 .053-.027.1-.02.153 0 .047.046.088.04.135-.014.041-.119.065-.093.1.027.041.112 0 .145-.047.053-.065-.066-.147.006-.206.047-.041.106 0 .152.012.21.082.453-.012.664.076.25.088.44.277.637.43.178.158.381.294.552.464.06.059.1.124.119.2-.217.059-.46.077-.677.018-.178-.053-.362-.13-.46-.277-.086-.117-.033-.264-.033-.394.006-.07-.033-.135-.066-.194-.02-.041.033-.112-.013-.135-.046-.024-.132.023-.132.07-.006.065.132.089.132.16a.661.661 0 0 1-.138.34c-.08-.029-.158-.064-.237-.088-.072-.023-.17-.041-.217.006-.04.041-.046.124 0 .153.053.035.066-.088.118-.112.06-.035.138.03.185.065.111.094.216.2.315.306.072.076.171.112.256.17-.138.036-.282.047-.42.07a1.563 1.563 0 0 1-.868-.134c-.118-.047-.112-.212-.217-.253-.066-.024-.197 0-.19.065.006.076.177.046.236.111.06.059.125.124.204.165.131.065.29.088.407.176-.111.077-.236.13-.361.183-.092.035-.21.07-.302.012-.073-.053-.08-.153-.152-.195-.026-.017-.079-.035-.092-.017-.052.07.21.13.165.206-.027.04-.106.017-.152.035-.046.017-.078.076-.052.106.052.059.164-.018.243-.041.112-.03.224.029.329.005.092-.023.17-.07.25-.111.111-.053.236-.083.361-.112.19-.047.394-.03.592-.03.21-.005.407.065.611.083.388.018.782.035 1.157.141 0 .035-.007.07 0 .106-.085.047-.19.076-.276.123-.125.071-.138.242-.06.342.08.111.205.217.185.358-.026.136-.072.26-.092.394-.197-.088-.303-.27-.401-.435-.066-.13-.145-.253-.217-.376-.046-.088-.184-.112-.217-.212-.02-.082.072-.2 0-.247-.053-.035-.118.059-.164.1-.053-.041-.099-.082-.152-.112-.059-.035-.131-.006-.177.036-.04.035-.079.105-.04.135.066.065.204-.035.303-.024.052.03.072.083.105.13.072.111.224.164.263.294.033.117.04.235.04.353-.08-.077-.119-.177-.204-.247a.859.859 0 0 0-.329-.194 1.509 1.509 0 0 0-.585-.024c-.164.03-.322-.035-.473-.076-.02-.089.059-.147.111-.212 0-.012-.006-.035-.006-.047-.066-.006-.138.006-.171.064-.026.077-.013.153-.026.236.197.064.4.1.604.164.145.053.316.018.46.083.112.04.198.13.263.212.132.164.152.364.23.546a.757.757 0 0 1-.374-.123c-.099-.059-.322-.059-.296-.17.013-.048.112-.018.145-.054.006-.005.006-.029 0-.035-.027-.03-.092-.035-.132-.017-.04.017-.079.064-.066.105.014.036.046.065.066.1-.033.042-.092.083-.085.142.006.1.157.294.21.194.02-.041-.072-.07-.105-.106-.053-.065.046-.17.125-.124.112.047.19.13.276.206.072.065.164.106.256.153a2.48 2.48 0 0 1-.407.241c-.119.047-.263.088-.375.018-.138-.088-.19-.235-.263-.37-.053-.107-.151-.189-.223-.289-.093-.118-.165-.253-.283-.353a1.185 1.185 0 0 0-.48-.253c-.105-.023-.217-.023-.322-.04-.138-.03-.381-.166-.283-.26.027-.023.099.03.119 0 .013-.017-.007-.053-.033-.064-.027-.012-.06-.006-.086.005-.04.024-.052.077-.072.118-.131-.012-.29-.041-.27.03.014.047.106.011.158.017.145 0 .178.159.29.206.118.053.256.053.38.088.185.041.356.147.428.306-.099-.018-.197-.053-.302-.065a.556.556 0 0 0-.408.124c-.066.059-.105.141-.184.194-.033.018-.099.03-.125-.012-.072-.076.007-.182-.04-.259-.032-.058-.164-.07-.183-.017-.014.04.065.065.085.1.013.059 0 .123.013.182.046.1.165.141.27.177a.13.13 0 0 1-.151.012c-.073-.048-.125-.177-.217-.16-.014 0-.027.024-.027.036.02.1.171.141.27.188.072.012.138-.006.21-.018.053.071.072.183.197.183.066 0 .138-.041.112-.088-.04-.071-.204-.048-.223-.142-.033-.058.026-.117.065-.158.092-.095.263-.112.388-.048.127.067.239.155.329.26.17.188.342.387.572.523.23.106.486.206.75.2.19.006.38-.047.571-.03 0 .106-.079.23.007.324.026.041.098.065.105.117-.079.065-.19.077-.296.071-.066-.006-.138-.03-.17-.088-.014-.053.019-.1.032-.153-.066-.035-.158.023-.138.088.04.135.184.235.342.241.105 0 .204-.035.302-.035.151.006.31-.018.447.053.171.088.257.259.388.382-.138.041-.283.059-.42.1-.224.059-.428.17-.658.194-.079.006-.138-.047-.184-.094-.171-.164-.224-.394-.368-.57-.073-.1-.198-.16-.283-.247l.099-.106c-.033-.035-.086-.065-.138-.035-.066.029-.04.105-.053.158-.04-.017-.085-.03-.118-.059-.02-.047-.007-.094-.007-.14-.053.005-.125.046-.099.1.073.146.27.17.382.282a.683.683 0 0 1 .111.288c.027.123.06.247.073.37a.857.857 0 0 1-.276-.07 1.397 1.397 0 0 1-.428-.265c-.098-.1-.157-.223-.243-.33-.131-.152-.15-.352-.289-.505-.072-.088-.177-.153-.21-.259-.007-.065.059-.118.105-.159.046.012.085.03.131.036.027-.012.007-.042-.013-.053-.072-.06-.184-.036-.256-.083-.046-.047-.066-.106-.092-.158a.134.134 0 0 0-.046.011c-.013.07.04.124.085.177.06.053.007.135.007.2-.046.153.072.3.033.453-.165.011-.322-.012-.48 0-.145.011-.31.017-.427-.065a.627.627 0 0 1-.27-.406c-.02-.082.118-.182.06-.235-.027-.024-.106 0-.12.04-.012.054-.019.113-.039.166-.138-.042-.295-.042-.394.04-.007.007-.007.036 0 .042.06.053.17 0 .256 0 .04 0 .092 0 .119.035.118.141.052.353.21.477.151.13.381.111.559.194-.06.047-.132.082-.197.118-.066.035-.119.088-.178.135-.079.064-.23.023-.29.094a.058.058 0 0 0 0 .047c.053.065.185.041.264-.012.092-.059.158-.147.263-.2a.506.506 0 0 1 .276-.07c.144.023.289.1.348.223.073.159.132.335.276.459.112.112.296.13.408.241.046.041.046.1.046.159-.204.04-.395-.041-.585-.1a1.105 1.105 0 0 0-.46-.041.562.562 0 0 0-.349.235c-.079.118-.085.259-.144.382-.033.077-.132.13-.224.124-.144-.047-.112-.23-.21-.312-.007-.006-.04-.012-.046-.006-.099.07.033.212.079.312a.454.454 0 0 1-.342-.206c-.066-.1.066-.253-.026-.318-.014-.005-.046-.011-.053 0-.079.065-.013.194.013.289.033.111.138.188.243.247a.896.896 0 0 0 .513.07c.204-.047.342-.2.506-.306.112-.07.25-.117.388-.076.125.041.25.094.368.159-.092.053-.184.1-.256.17-.112.1-.171.236-.224.365-.085.2-.079.43-.177.623a.447.447 0 0 1-.322.218c-.112-.012-.184-.1-.25-.17-.072-.083-.184-.136-.276-.2-.04-.03 0-.1-.033-.124-.046-.035-.145.053-.105.106.046.064.144.082.217.123.118.07.19.183.256.294-.033.036-.105.06-.092.1.02.065.145.036.217.047.112.024.19.13.309.112.184-.011.296-.159.42-.264.04.094.053.211.152.276.072.059.17.088.223.165.027.094-.197.158-.138.229.033.035.112-.006.145-.041a.74.74 0 0 0 .092-.153c.066.035.145.112.21.076.02-.011.033-.029.027-.047-.033-.076-.191-.047-.237-.123-.151-.218-.237-.488-.151-.741.046-.159.177-.283.309-.388.151-.118.315-.224.5-.294.118-.048.242-.048.367-.048.165 0 .316-.064.474-.1.138-.029.282-.017.42-.005.112.011.23.029.336.07.079.03.138.1.131.177-.02.14-.125.247-.23.34-.085.077-.17.165-.296.189-.263.059-.466.235-.723.294a.635.635 0 0 1-.315-.012c-.112-.04-.204-.147-.19-.264.025-.047.078-.077.11-.118.02-.041-.006-.094.027-.124.046-.04.145 0 .19-.058.034-.036.027-.089-.026-.106-.065-.018-.118.04-.157.076-.086.083-.323 0-.316.106 0 .047.125.035.132.088.013.065-.086.1-.119.16-.013.052 0 .11.007.164.026.117.138.206.243.276.125.082.29.088.44.07.185-.017.33-.152.513-.146-.006.094-.04.188-.026.282.02.141.19.224.21.365.013.117.073.23.053.347-.013.07-.151.13-.105.182.072.082.184-.106.21-.2.02-.094-.105-.206-.04-.282.053-.059.178-.018.244-.07.033-.03.072-.077.04-.107-.007-.005-.034 0-.047.006-.04.018-.046.07-.085.083-.053.017-.132.005-.165-.042-.046-.058-.085-.123-.124-.182-.04-.059-.014-.135.02-.194.058-.106.183-.165.282-.241.06-.041.125-.094.21-.094.191-.006.382.04.572.064.092.006.158.071.23.112.132.077.29.13.408.224a.341.341 0 0 1 .112.294c-.014.153-.027.312-.014.464.007.095.093.194.073.318 0 .17-.04.294-.086.388zm3.537.259c.013.07.132.27.178.33a.673.673 0 0 1-.25-.112c-.125-.106-.092-.23-.099-.512 0-.035.02-.224.066-.247.052.135.079.412.105.541zm2.242-3.094c-.171.03-.31.141-.415.259-.131.147-.144.359-.315.476-.243.153-.559.153-.809.294-.111.06-.21.142-.315.206.131-.223.4-.323.63-.453.362-.188.586-.511.921-.723a.938.938 0 0 1 .605-.123c-.098.047-.204.04-.302.064zm1.34.806c-.039.153-.111.294-.137.447-.02.1-.007.2 0 .3-.197-.088-.296-.323-.21-.506.072-.164.177-.311.23-.482.045-.135.032-.277.072-.412.105.2.105.435.046.653zm.389.547c.216.024.4-.106.578-.206.02.053-.04.094-.066.13a.907.907 0 0 1-.532.329c-.112.024-.25-.006-.303-.106-.04-.106-.02-.224.007-.33.092.077.184.171.316.183zm.295-2.082c.014.1.027.23-.092.282.027-.094.027-.2.092-.282zm-.598.359c.224.064.46.07.69.023.21-.047.408-.13.585-.235.057-.032.116-.06.178-.082-.066.082-.164.129-.256.182a2.03 2.03 0 0 1-.664.247 2.73 2.73 0 0 1-.54.041c-.091 0-.137-.076-.203-.123-.112-.094-.283-.124-.362-.253.204.035.375.147.572.2zm-2.347-.083c.165-.123.355-.235.579-.247-.086.07-.197.106-.29.17-.137.083-.236.207-.367.295.006-.076.006-.165.078-.218zm-.953.66c.19-.077.375-.19.487-.348.092-.118.144-.253.21-.382.033.112.007.223-.02.335-.052.17-.131.353-.296.459-.157.106-.368.182-.565.123a.451.451 0 0 1-.204-.129c.138-.012.27-.012.388-.059zm-.296-1.6c-.309.205-.532.523-.578.864-.02.223-.02.465.085.676.092.206.263.4.506.465.165.028.334.03.5.006.256-.059.454-.236.618-.412.151-.153.27-.33.447-.465.092-.076.19-.147.302-.194.21-.082.454-.088.67-.029.225.065.441.182.553.37a.67.67 0 0 1 .079.389c-.085-.065-.085-.177-.151-.253a.995.995 0 0 0-.572-.312c-.224-.041-.447.018-.644.1a1.763 1.763 0 0 0-.54.382c-.17.189-.394.33-.617.465-.21.106-.434.23-.566.418a.3.3 0 0 1-.079.076c-.078-.27-.27-.5-.42-.735-.197-.265-.349-.57-.336-.888-.006-.477.402-.918.901-1.053a.532.532 0 0 1-.158.13zm1.039-.483c-.316.07-.631.135-.94.218-.296.088-.572.24-.75.47a1.391 1.391 0 0 0-.256.53 1.37 1.37 0 0 0 .118.852c.158.377.454.694.618 1.07.033.107.02.2.02.307a.647.647 0 0 1-.046.205 3.86 3.86 0 0 1-.105-.288c-.04-.14-.118-.27-.184-.4-.138-.282-.349-.535-.487-.823a1.475 1.475 0 0 1 .053-1.559c.23-.376.677-.617 1.144-.676.237-.041.473-.03.71-.03.184 0 .368-.005.552.03-.145.07-.302.065-.447.094zm.67.682c-.131-.047-.197-.164-.27-.264-.052-.077-.124-.142-.17-.218.046-.006.092-.03.145-.018.065.053.098.124.138.194.052.1.111.2.157.306zm-.38-.87c-.297-.03-.592-.07-.888-.065-.243 0-.48.053-.71.124-.44.147-.822.44-1 .835-.183.359-.19.77-.105 1.153.06.264.244.488.388.729-.17-.1-.282-.253-.394-.406-.158-.235-.25-.5-.29-.77a1.542 1.542 0 0 1 .388-1.153c.112-.136.277-.224.428-.318.111-.065.243-.112.368-.159.283-.105.592-.135.887-.205.204-.053.421-.048.631-.042.125.006.244.047.362.083.112.03.217.064.329.1.118.035.243.058.355.106-.25.052-.5 0-.75-.012zm.328-.318a.515.515 0 0 1-.132-.059c.237-.035.467.018.69.089.159.053.33.064.48.129-.348.035-.703-.059-1.038-.159zm1.801.047c-.282.088-.585.006-.868-.059-.17-.047-.348-.076-.506-.158.118-.036.243-.03.362-.03.282 0 .539.13.828.141.197.012.388-.053.572-.1-.112.1-.25.16-.388.206zm1.893-.694c-.144 0-.296 0-.434.047-.15.053-.263.17-.38.265-.191.17-.408.33-.665.4.08-.106.21-.165.303-.253a2.42 2.42 0 0 1 .67-.459c.158-.07.342-.041.513-.041.006.012 0 .035-.007.041zm9.539-4.082c0-.064-.086-.082-.21-.082-.224 0-1.007.03-1.27.03-.341 0-.723-.03-1.11-.03-.145 0-.204.024-.204.095 0 .064.105.082.21.105.204.042.25.16.25.265 0 .135-.046.318-.165.553-.164.33-1.656 2.659-1.774 2.911-.19-.294-1.848-2.846-2.012-3.164-.085-.147-.145-.276-.145-.359 0-.082.06-.17.165-.188.177-.041.263-.053.263-.118 0-.064-.06-.094-.178-.094-.532 0-1.019.03-1.268.03-.388 0-1.276-.03-1.493-.03-.144 0-.223.03-.223.095 0 .076.085.094.177.094.145 0 .342.064.5.135.223.117.52.382.815.77.414.553 1.998 2.882 2.084 3.047.151.306.27.541.27 1.112v.87c0 .17 0 .612-.034 1.059-.026.306-.13.541-.368.582-.105.024-.25.041-.414.041-.131 0-.19.03-.19.083 0 .082.092.106.263.106.44 0 1.183-.03 1.479-.03.322 0 1.065.03 1.808.03.15 0 .25-.03.25-.106 0-.053-.06-.083-.191-.083-.165 0-.428-.023-.592-.04-.355-.042-.46-.277-.486-.583-.033-.447-.033-.888-.033-1.059v-.87c0-.347 0-.677.177-1.059.21-.453 1.867-2.94 2.261-3.364.264-.289.388-.412.638-.518.178-.082.401-.13.52-.13.138 0 .23-.029.23-.105zm8.96 3.953c-.388 0-1.02.03-1.388.03-.355 0-1.097-.03-1.715-.03-.165 0-.25.024-.25.106 0 .065.072.082.177.082.165 0 .368.012.46.03.388.076.5.241.507.606.013.317.013.717.013 1.247v.994c0 .182-.046.317-.224.394-.282.117-.696.117-1.005.117-2.498 0-4.116-1.705-4.116-3.981 0-1.3.428-2.094 1.092-2.594.828-.612 1.69-.66 2.34-.66 1.334 0 2.281.49 2.636.824.309.294.368.636.401.877.013.082.033.135.118.135.092 0 .132-.053.132-.223 0-1.324.085-1.618.085-1.736 0-.076-.026-.117-.164-.129a9.32 9.32 0 0 1-.934-.118 15.987 15.987 0 0 0-2.097-.17c-.992 0-2.044.076-3.181.688-1.078.582-2.058 1.77-2.058 3.464 0 2.923 2.57 4.153 5.47 4.153.92 0 2.083-.118 2.852-.477.145-.076.152-.094.152-.382V8.637c0-.53 0-.953.013-1.27.013-.37.131-.553.447-.606a1.75 1.75 0 0 1 .322-.03c.085 0 .151-.023.151-.082 0-.088-.085-.106-.236-.106zm10.268 0c-.388 0-1.02.03-1.387.03-.355 0-1.098-.03-1.716-.03-.164 0-.25.024-.25.106 0 .065.072.082.178.082.164 0 .368.012.46.03.388.076.5.241.506.606.013.317.013.717.013 1.247v.994c0 .182-.046.317-.224.394-.282.117-.696.117-1.005.117-2.498 0-4.115-1.705-4.115-3.981 0-1.3.427-2.094 1.09-2.594.829-.612 1.69-.66 2.341-.66 1.334 0 2.281.49 2.636.824.309.294.368.636.401.877.013.082.033.135.118.135.092 0 .132-.053.132-.223 0-1.324.085-1.618.085-1.736 0-.076-.026-.117-.164-.129a9.318 9.318 0 0 1-.933-.118 15.99 15.99 0 0 0-2.097-.17c-.993 0-2.045.076-3.182.688-1.078.582-2.058 1.77-2.058 3.464 0 2.923 2.57 4.153 5.47 4.153.92 0 2.084-.118 2.853-.477.144-.076.15-.094.15-.382V8.637c0-.53 0-.953.014-1.27.013-.37.131-.553.447-.606.145-.024.223-.03.322-.03.085 0 .151-.023.151-.082 0-.088-.085-.106-.236-.106zm4.982-4.035c-.71 0-1.452.03-1.82.03-.33 0-1.079-.03-1.703-.03-.178 0-.263.024-.263.095 0 .076.072.094.204.094.164 0 .368.011.46.03.388.076.486.24.506.605.026.341.026.635.026 2.247v1.864c0 .977 0 1.812-.059 2.253-.046.306-.105.541-.342.582a1.97 1.97 0 0 1-.427.041c-.145 0-.19.03-.19.083 0 .076.085.106.236.106.237 0 .546-.024.815-.024.283-.012.546-.012.677-.012.296 0 .71.03 1.157.065.447.035.934.065 1.361.065 2.19 0 3.418-.753 3.964-1.247a3.98 3.98 0 0 0 1.289-2.953c0-1.258-.56-2.14-1.151-2.688-1.288-1.206-3.26-1.206-4.74-1.206zm3.314 6.841c-.71.553-1.512.764-2.722.764-.933 0-1.394-.223-1.551-.423-.092-.118-.119-.541-.132-.806a56.08 56.08 0 0 1-.026-2.14V5.407c0-.835 0-1.759.013-2.117 0-.118.033-.17.145-.212.092-.041.532-.076.769-.076.92 0 2.274.129 3.359 1.058.506.436 1.137 1.3 1.137 2.647 0 1.094-.236 2.059-.992 2.641zm20.562.97c-.145 0-.322-.011-.5-.04-.25-.054-.591-.2-1.038-1.154-.756-1.611-2.65-5.928-2.932-6.51-.118-.242-.19-.342-.296-.342-.118 0-.19.118-.329.424l-2.97 6.646c-.139.318-.277.57-.48.735a3.356 3.356 0 0 1-.717-.517c-.697-.66-1.512-1.6-2.57-2.782 1.196-.87 1.564-1.589 1.564-2.37 0-.712-.473-1.248-.802-1.454-.638-.394-1.433-.452-2.176-.452-.368 0-1.269.029-1.67.029-.25 0-.992-.03-1.623-.03-.178 0-.263.024-.263.095 0 .076.072.094.204.094.164 0 .368.012.46.03.387.076.486.24.506.605.026.341.026.635.026 2.247v1.864c0 .977 0 1.812-.059 2.253-.046.306-.105.541-.342.582a2 2 0 0 1-.427.042c-.145 0-.19.029-.19.082 0 .076.085.106.236.106.473 0 1.216-.03 1.446-.03.178 0 1.052.03 1.742.03.151 0 .237-.03.237-.106 0-.053-.046-.082-.145-.082-.145 0-.4-.024-.578-.042-.355-.04-.428-.276-.46-.582-.06-.447-.06-1.282-.06-2.264v-.142c0-.064.033-.082.092-.082l1.032.024c.086 0 .152.011.21.076.152.159.698.876 1.17 1.459.665.817 1.112 1.311 1.625 1.558.157.077.315.13.519.16.033.029.099.04.197.04h1.67a.446.446 0 0 0 .17-.023c.277.011.573.023.816.023.131 0 .204-.023.204-.106 0-.064-.033-.082-.178-.082h-.177c-.368 0-.474-.135-.474-.33 0-.129.06-.382.178-.646l.638-1.512c.026-.065.046-.082.105-.082h2.636c.059 0 .092.023.118.076l.947 2.247c.059.13-.027.224-.105.241-.119.012-.165.03-.165.094 0 .077.145.077.355.083.947.023 1.808.023 2.235.023.44 0 .546-.023.546-.106 0-.088-.06-.1-.158-.1zM60.383 6.532c-.21.135-.368.182-.842.182-.295 0-.65-.03-.9-.106-.086-.03-.105-.076-.105-.188V3.197c0-.083.026-.13.105-.147.118-.03.328-.042.624-.042.697 0 1.808.436 1.808 1.935.007.865-.335 1.353-.69 1.589zm8.368.688h-2.176c-.046 0-.059-.03-.046-.077l1.092-2.605c.013-.041.032-.095.072-.095.04 0 .046.054.059.095l1.065 2.617c.007.03-.006.065-.066.065zm7.31-1.535l-.329-.224c-.979-.665-1.255-1.035-1.255-1.523 0-.636.532-1.088 1.407-1.088.769 0 1.11.317 1.288.517.25.277.31.606.31.7 0 .13.032.188.117.188.093 0 .132-.082.132-.317 0-.824.046-1.135.046-1.27 0-.077-.06-.107-.164-.13a6.195 6.195 0 0 0-1.572-.182c-1.643 0-2.734.835-2.734 2 0 .858.447 1.6 1.748 2.51l.546.383c.98.688 1.157 1.177 1.157 1.694 0 .559-.52 1.206-1.584 1.206-.737 0-1.433-.288-1.69-1.07a2.026 2.026 0 0 1-.105-.542c0-.082-.013-.182-.118-.182-.092 0-.132.117-.145.276-.013.17-.059.806-.059 1.388 0 .236.033.289.224.36.506.2 1.038.276 1.728.276.625 0 1.289-.094 1.88-.436C77.745 9.72 78 8.99 78 8.38c0-1-.506-1.73-1.939-2.694zm7.14 4.634a6.61 6.61 0 0 1-.606-.04c-.355-.042-.44-.236-.473-.518-.046-.453-.046-1.294-.046-2.318V5.58c0-1.612 0-1.906.026-2.247.027-.37.119-.553.44-.606.118-.02.237-.03.356-.03.118 0 .19-.023.19-.105 0-.065-.092-.083-.25-.083-.446 0-1.15.03-1.445.03-.342 0-1.092-.03-1.539-.03-.19 0-.282.024-.282.083 0 .082.072.106.19.106.145 0 .296.011.427.04.263.054.382.236.402.595.026.341.026.635.026 2.247v1.864c0 1.03 0 1.865-.06 2.306-.032.306-.105.488-.341.53a2 2 0 0 1-.427.04c-.145 0-.191.03-.191.083 0 .076.085.106.237.106.473 0 1.216-.03 1.492-.03.322 0 1.065.03 1.847.03.131 0 .223-.03.223-.106-.013-.047-.072-.083-.197-.083zm7.52-1.458c-.093 0-.119.064-.132.158-.026.2-.164.5-.309.636-.296.288-.756.294-1.387.294-.92 0-1.23-.077-1.433-.235-.25-.189-.25-.924-.25-2.277V5.58c0-1.612 0-1.906.026-2.247.027-.37.119-.553.44-.606.145-.023.33-.03.461-.03.145 0 .21-.023.21-.093 0-.077-.085-.095-.25-.095-.46 0-1.327.03-1.61.03-.322 0-1.065-.03-1.624-.03-.177 0-.263.024-.263.095 0 .076.073.094.204.094.151 0 .296.011.388.03.388.076.486.24.506.605.026.341.026.635.026 2.247v1.864c0 .977 0 1.812-.059 2.253-.046.306-.105.541-.342.582a1.97 1.97 0 0 1-.427.041c-.145 0-.19.03-.19.083 0 .076.085.106.236.106.237 0 .546-.024.815-.024.283-.012.546-.012.677-.012.487 0 .914.012 1.447.03.532.011 1.15.03 1.998.03.618 0 .677-.054.743-.289.092-.306.177-1.1.177-1.218.02-.111.007-.164-.079-.164z" fill="#32448C"/><path d="M16.693 14.03h1.124v.083a.631.631 0 0 0-.256.035.159.159 0 0 0-.085.112c-.014.053-.02.176-.02.382v.247c-.033-.006-.06-.006-.085-.006-.099 0-.23.03-.388.083-.217.07-.421.111-.605.111-.375 0-.684-.111-.934-.33a1.06 1.06 0 0 1-.374-.834c0-.336.118-.63.355-.877.236-.253.558-.376.96-.376.348 0 .637.117.867.347a.707.707 0 0 0 .08-.259h.091v.77h-.085a.912.912 0 0 0-.303-.57.9.9 0 0 0-.605-.212.94.94 0 0 0-.644.247c-.184.165-.276.453-.276.87 0 .418.086.707.263.883.178.17.395.259.657.259a.893.893 0 0 0 .362-.07.433.433 0 0 0 .223-.177.53.53 0 0 0 .06-.265.75.75 0 0 0-.027-.253c-.02-.041-.046-.07-.085-.082a.787.787 0 0 0-.21-.024h-.06v-.094zm14.607.141h-.993l-.065.147c-.099.218-.152.353-.152.418 0 .07.027.123.08.158a.37.37 0 0 0 .203.053v.077h-.776v-.077c.119-.017.204-.053.257-.111.059-.06.125-.177.204-.36.006-.017.039-.082.092-.2l.756-1.623h.072l.874 1.86.118.246a.34.34 0 0 0 .112.13.42.42 0 0 0 .204.058v.077H31.26v-.077c.125 0 .21-.005.257-.023.046-.018.066-.047.066-.1 0-.024-.027-.1-.086-.224l-.197-.429zm-.033-.082l-.46-.994-.46.994h.92zm14.515.536l.953-1.935h.802v.076h-.099a.704.704 0 0 0-.25.03c-.039.017-.065.053-.078.105-.014.053-.02.177-.02.37v1.148c0 .182.006.306.013.359.007.053.04.1.08.129.038.03.124.041.236.041h.118v.077h-1.249v-.077h.092a.53.53 0 0 0 .23-.035.169.169 0 0 0 .086-.118c.013-.053.02-.176.02-.37v-1.488l-1.033 2.094h-.092l-1.038-2.094v1.37c0 .188.006.318.02.382a.29.29 0 0 0 .117.177.519.519 0 0 0 .283.088v.076h-.946v-.076a.51.51 0 0 0 .27-.082.297.297 0 0 0 .124-.183c.013-.07.026-.206.026-.394v-1.017c0-.189-.006-.306-.02-.36-.013-.052-.039-.093-.078-.11a.744.744 0 0 0-.257-.03h-.065v-.083h.795l.96 1.93zm13.608-1.854v-.076h1.196v.076h-.052a.698.698 0 0 0-.25.03c-.04.018-.066.053-.079.106-.013.053-.02.176-.02.37v1.147c0 .183.007.306.014.359.006.053.032.1.078.13.046.029.125.04.237.04h.079v.077h-1.197v-.076h.08c.111 0 .19-.012.23-.036a.161.161 0 0 0 .078-.117c.007-.053.02-.177.02-.37v-1.148c0-.188-.007-.306-.02-.359-.013-.053-.04-.094-.078-.111a.747.747 0 0 0-.257-.03h-.06v-.011zm15.408 2.312l-1.847-2.188v1.623c0 .136.007.224.02.265.013.041.059.082.125.118a.691.691 0 0 0 .309.053v.076h-.973v-.076a.785.785 0 0 0 .282-.06c.066-.029.106-.07.119-.105.013-.035.02-.13.02-.27v-1.242c0-.176-.007-.3-.027-.358-.02-.06-.046-.1-.085-.118-.04-.018-.132-.024-.27-.024v-.082h.77l1.544 1.83v-1.4a.538.538 0 0 0-.033-.218c-.02-.041-.072-.077-.144-.1a.874.874 0 0 0-.263-.036v-.076h.946v.076a.73.73 0 0 0-.263.06c-.065.029-.105.064-.118.105a.724.724 0 0 0-.026.212v1.935h-.086zm14.034-1.053h1.124v.083a.632.632 0 0 0-.256.035.158.158 0 0 0-.085.112c-.014.053-.02.176-.02.382v.247c-.033-.006-.06-.006-.086-.006-.098 0-.23.03-.388.083a2 2 0 0 1-.604.111c-.375 0-.684-.111-.934-.33a1.06 1.06 0 0 1-.374-.834c0-.336.118-.63.355-.877.236-.247.558-.376.96-.376.348 0 .637.117.867.347a.705.705 0 0 0 .079-.259h.092v.77h-.092a.912.912 0 0 0-.302-.57.9.9 0 0 0-.605-.212.94.94 0 0 0-.645.247c-.184.165-.276.453-.276.87 0 .418.086.707.263.883a.888.888 0 0 0 .658.259.892.892 0 0 0 .361-.07.463.463 0 0 0 .224-.177.53.53 0 0 0 .059-.265.75.75 0 0 0-.026-.253c-.02-.047-.046-.07-.086-.082a.785.785 0 0 0-.21-.024h-.06v-.094h.007z" fill="#32448C"/></svg>